{
customParameters = (
{
name = glyphOrder;
value = (
    A,
    B,
    C,
    D,
    E,
    F,
    G,
    H,
    I,
    J,
    K,
    L,
    M,
    N,
    O,
    P,
    Q,
    R,
    S,
    T,
    U,
    V,
    W,
    X,
    Y,
    Z,
    a,
    b,
    c,
    d,
    e,
    f,
    g,
    h,
    i,
    j,
    k,
    l,
    m,
    n,
    o,
    p,
    q,
    r,
    s,
    t,
    u,
    v,
    w,
    x,
    y,
    z,
    uni0621,
    uni0627,
    uniFE8E,
    "uni0627.short",
    "uniFE8E.short",
    uni0623,
    uniFE84,
    uni0625,
    uniFE88,
    uni0672,
    "uni0672.fina",
    uni0673,
    "uni0673.fina",
    uni0622,
    uniFE82,
    uni0671,
    uniFB51,
    uniFD3D,
    uniFD3C,
    uni0675,
    "uni0675.fina",
    uni066E,
    "uni066E.fina",
    "uni066E.medi",
    "uni066E.init",
    uni0628,
    uniFE90,
    uniFE92,
    uniFE91,
    uni067E,
    uniFB57,
    uniFB59,
    uniFB58,
    uni067B,
    uniFB53,
    uniFB55,
    uniFB54,
    uni0680,
    uniFB5B,
    uniFB5D,
    uniFB5C,
    uni062A,
    uniFE96,
    uniFE98,
    uniFE97,
    uni067C,
    "uni067C.fina",
    "uni067C.init",
    "uni067C.medi",
    uni067D,
    "uni067D.fina",
    "uni067D.init",
    "uni067D.medi",
    uni062B,
    uniFE9A,
    uniFE9C,
    uniFE9B,
    uni0679,
    uniFB67,
    uniFB69,
    uniFB68,
    uni067A,
    uniFB5F,
    uniFB61,
    uniFB60,
    uni067F,
    uniFB63,
    uniFB65,
    uniFB64,
    uni0750,
    "uni0750.fina",
    "uni0750.init",
    "uni0750.medi",
    uni0751,
    "uni0751.fina",
    "uni0751.init",
    "uni0751.medi",
    uni0752,
    "uni0752.fina",
    "uni0752.init",
    "uni0752.medi",
    uni0753,
    "uni0753.fina",
    "uni0753.init",
    "uni0753.medi",
    uni0754,
    "uni0754.fina",
    "uni0754.init",
    "uni0754.medi",
    uni0755,
    "uni0755.fina",
    "uni0755.init",
    "uni0755.medi",
    uni0756,
    uni08A0,
    "uni08A0.fina",
    "uni08A0.init",
    "uni08A0.medi",
    "uni0756.fina",
    "uni0756.init",
    "uni0756.medi",

glyphs = (
{
glyphname = uni0621;
layers = (
{
anchors = (
{
name = bottom;
position = "{170, 3}";
},
{
name = top;
position = "{181, 249}";
}
);
layerId = "51F41761-070F-43EA-B302-C90910850260";
name = Regular;
paths = (
{
closed = 1;
nodes = (
"278 101 OFFCURVE",
"268 100 OFFCURVE",
"257 98 CURVE SMOOTH",
"229 93 OFFCURVE",
"204 93 OFFCURVE",
"178 100 CURVE SMOOTH",
"146 109 OFFCURVE",
"133 120 OFFCURVE",
"133 145 CURVE",
"160 162 OFFCURVE",
"182 173 OFFCURVE",
"213 173 CURVE SMOOTH",
"232 173 OFFCURVE",
"245 170 OFFCURVE",
"253 166 CURVE",
"260 176 LINE",
"259 187 OFFCURVE",
"245 209 OFFCURVE",
"208 209 CURVE SMOOTH",
"182 209 OFFCURVE",
"156 200 OFFCURVE",
"132 181 CURVE SMOOTH",
"118 168 OFFCURVE",
"101 147 OFFCURVE",
"92 134 CURVE SMOOTH",
"89 130 OFFCURVE",
"88 125 OFFCURVE",
"88 120 CURVE SMOOTH",
"88 91 OFFCURVE",
"112 68 OFFCURVE",
"153 68 CURVE",
"117 48 OFFCURVE",
"98 36 OFFCURVE",
"74 22 CURVE SMOOTH",
"61 14 OFFCURVE",
"60 9 OFFCURVE",
"60 5 CURVE SMOOTH",
"60 2 OFFCURVE",
"64 -5 OFFCURVE",
"70 -10 CURVE",
"96 5 OFFCURVE",
"123 22 OFFCURVE",
"176 39 CURVE SMOOTH",
"210 50 OFFCURVE",
"231 56 OFFCURVE",
"268 59 CURVE",
"275 71 OFFCURVE",
"283 89 OFFCURVE",
"289 104 CURVE"
);
}
);
width = 339;
}
);
unicode = 0621;
},
{
glyphname = uni0627;
layers = (
{
anchors = (
{
name = bottom;
position = "{78, -24}";
},
{
name = top;
position = "{82, 578}";
}
);
layerId = "51F41761-070F-43EA-B302-C90910850260";
name = Regular;
paths = (
{
closed = 1;
nodes = (
"30 472 OFFCURVE",
"33 411 OFFCURVE",
"41 328 CURVE SMOOTH",
"47 268 OFFCURVE",
"54 217 OFFCURVE",
"58 189 CURVE SMOOTH",
"63 157 OFFCURVE",
"67 125 OFFCURVE",
"68 115 CURVE SMOOTH",
"71 76 OFFCURVE",
"72 28 OFFCURVE",
"70 0 CURVE",
"85 0 LINE",
"95 25 OFFCURVE",
"99 47 OFFCURVE",
"100 54 CURVE SMOOTH",
"112 125 OFFCURVE",
"122 190 OFFCURVE",
"104 403 CURVE SMOOTH",
"103 417 OFFCURVE",
"100 447 OFFCURVE",
"100 454 CURVE SMOOTH",
"100 465 OFFCURVE",
"92 517 OFFCURVE",
"93 568 CURVE",
"82 568 LINE",
"63 544 OFFCURVE",
"48 520 OFFCURVE",
"30 484 CURVE"
);
}
);
width = 154;
}
);
unicode = 0627;
},
{
glyphname = uniFE8E;
layers = (
{
anchors = (
{
name = bottom;
position = "{93, -26}";
},
{
name = top;
position = "{105, 578}";
}
);
layerId = "51F41761-070F-43EA-B302-C90910850260";
name = Regular;
paths = (
{
closed = 1;
nodes = (
"207 98 LINE SMOOTH",
"179 98 OFFCURVE",
"158 106 OFFCURVE",
"144 122 CURVE SMOOTH",
"133 135 OFFCURVE",
"127 154 OFFCURVE",
"126 178 CURVE SMOOTH",
"116 568 LINE",
"105 568 LINE",
"95 554 OFFCURVE",
"68 518 OFFCURVE",
"50 488 CURVE",
"65 391 OFFCURVE",
"69 271 OFFCURVE",
"71 146 CURVE SMOOTH",
"72 102 OFFCURVE",
"83 65 OFFCURVE",
"103 38 CURVE SMOOTH",
"122 13 OFFCURVE",
"151 0 OFFCURVE",
"189 0 CURVE SMOOTH",
"262 0 LINE",
"262 98 LINE"
);
}
);
width = 262;
}
);
unicode = FE8E;
},
{
glyphname = uni0627.short;
layers = (
{
anchors = (
{
name = bottom;
position = "{77, -26}";
},
{
name = top;
position = "{84, 610}";
}
);
layerId = "51F41761-070F-43EA-B302-C90910850260";
name = Regular;
paths = (
{
closed = 1;
nodes = (
"30 415 OFFCURVE",
"35 362 OFFCURVE",
"45 289 CURVE SMOOTH",
"53 231 OFFCURVE",
"58 195 OFFCURVE",
"61 166 CURVE SMOOTH",
"64 138 OFFCURVE",
"67 117 OFFCURVE",
"68 101 CURVE SMOOTH",
"70 67 OFFCURVE",
"72 25 OFFCURVE",
"70 0 CURVE",
"85 0 LINE",
"92 19 OFFCURVE",
"96 34 OFFCURVE",
"100 48 CURVE SMOOTH",
"114 101 OFFCURVE",
"124 135 OFFCURVE",
"104 355 CURVE SMOOTH",
"103 367 OFFCURVE",
"100 394 OFFCURVE",
"100 399 CURVE SMOOTH",
"96 437 OFFCURVE",
"92 467 OFFCURVE",
"93 500 CURVE",
"82 500 LINE",
"63 479 OFFCURVE",
"48 458 OFFCURVE",
"30 426 CURVE"
);
}
);
width = 155;
}
);
},
{
glyphname = uniFE8E.short;
layers = (
{
anchors = (
{
name = bottom;
position = "{95, -24}";
},
{
name = top;
position = "{107, 611}";
}
);
layerId = "51F41761-070F-43EA-B302-C90910850260";
name = Regular;
paths = (
{
closed = 1;
nodes = (
"207 98 LINE SMOOTH",
"179 98 OFFCURVE",
"158 106 OFFCURVE",
"144 122 CURVE SMOOTH",
"133 135 OFFCURVE",
"127 154 OFFCURVE",
"126 178 CURVE SMOOTH",
"116 499 LINE",
"105 499 LINE",
"95 485 OFFCURVE",
"68 449 OFFCURVE",
"50 419 CURVE",
"59 362 OFFCURVE",
"69 202 OFFCURVE",
"71 146 CURVE SMOOTH",
"73 102 OFFCURVE",
"83 65 OFFCURVE",
"103 38 CURVE SMOOTH",
"122 13 OFFCURVE",
"151 0 OFFCURVE",
"189 0 CURVE SMOOTH",
"262 0 LINE",
"262 98 LINE"
);
}
);
width = 262;
}
);
},
{
glyphname = uni066E;
layers = (
{
anchors = (
{
name = bottom;
position = "{411, -46}";
},
{
name = top;
position = "{411, 208}";
}
);
layerId = "51F41761-070F-43EA-B302-C90910850260";
name = Regular;
paths = (
{
closed = 1;
nodes = (
"704 292 OFFCURVE",
"687 263 OFFCURVE",
"677 241 CURVE",
"702 215 OFFCURVE",
"718 192 OFFCURVE",
"733 162 CURVE",
"733 162 OFFCURVE",
"691 127 OFFCURVE",
"584 109 CURVE SMOOTH",
"537 101 OFFCURVE",
"471 95 OFFCURVE",
"396 95 CURVE SMOOTH",
"353 95 OFFCURVE",
"284 97 OFFCURVE",
"233 106 CURVE SMOOTH",
"150 120 OFFCURVE",
"104 148 OFFCURVE",
"92 222 CURVE",
"73 229 LINE",
"62 131 OFFCURVE",
"85 84 OFFCURVE",
"109 58 CURVE SMOOTH",
"136 29 OFFCURVE",
"172 16 OFFCURVE",
"233 5 CURVE SMOOTH",
"272 -2 OFFCURVE",
"315 -7 OFFCURVE",
"376 -7 CURVE SMOOTH",
"486 -7 OFFCURVE",
"581 9 OFFCURVE",
"651 38 CURVE SMOOTH",
"754 81 OFFCURVE",
"772 141 OFFCURVE",
"772 183 CURVE SMOOTH",
"772 227 OFFCURVE",
"752 274 OFFCURVE",
"720 310 CURVE"
);
}
);
width = 832;
}
);
unicode = 066E;
},
{
glyphname = uni066E.fina;
layers = (
{
anchors = (
{
name = bottom;
position = "{418, -35}";
},
{
name = top;
position = "{418, 198}";
}
);
layerId = "51F41761-070F-43EA-B302-C90910850260";
name = Regular;
paths = (
{
closed = 1;
nodes = (
"724 158 OFFCURVE",
"684 117 OFFCURVE",
"554 99 CURVE SMOOTH",
"493 91 OFFCURVE",
"450 91 OFFCURVE",
"448 91 CURVE SMOOTH",
"322 91 OFFCURVE",
"248 92 OFFCURVE",
"192 110 CURVE SMOOTH",
"129 129 OFFCURVE",
"104 162 OFFCURVE",
"93 220 CURVE SMOOTH",
"74 228 LINE",
"68 191 OFFCURVE",
"65 133 OFFCURVE",
"91 87 CURVE SMOOTH",
"122 32 OFFCURVE",
"185 11 OFFCURVE",
"233 3 CURVE SMOOTH",
"269 -3 OFFCURVE",
"327 -6 OFFCURVE",
"380 -6 CURVE SMOOTH",
"490 -6 OFFCURVE",
"598 5 OFFCURVE",
"670 52 CURVE SMOOTH",
"689 64 OFFCURVE",
"706 80 OFFCURVE",
"719 98 CURVE",
"722 78 OFFCURVE",
"729 58 OFFCURVE",
"743 41 CURVE SMOOTH",
"762 17 OFFCURVE",
"795 0 OFFCURVE",
"848 0 CURVE SMOOTH",
"893 0 LINE",
"893 98 LINE",
"851 98 LINE SMOOTH",
"769 98 OFFCURVE",
"755 144 OFFCURVE",
"753 153 CURVE SMOOTH",
"753 153 OFFCURVE",
"770 175 OFFCURVE",
"777 184 CURVE",
"754 189 LINE"
);
}
);
width = 893;
}
);
},
{
glyphname = uni066E.medi;
layers = (
{
anchors = (
{
name = bottom;
position = "{17, -25}";
},
{
name = top;
position = "{24, 198}";
}
);
layerId = "51F41761-070F-43EA-B302-C90910850260";
name = Regular;
paths = (
{
closed = 1;
nodes = (
"131 183 LINE",
"126 127 OFFCURVE",
"106 98 OFFCURVE",
"36 98 CURVE SMOOTH",
"-21 98 LINE SMOOTH",
"-48 98 OFFCURVE",
"-70 77 OFFCURVE",
"-70 50 CURVE SMOOTH",
"-70 22 OFFCURVE",
"-48 0 OFFCURVE",
"-21 0 CURVE SMOOTH",
"55 0 LINE SMOOTH",
"86 0 OFFCURVE",
"112 11 OFFCURVE",
"131 31 CURVE SMOOTH",
"150 51 OFFCURVE",
"153 68 OFFCURVE",
"156 76 CURVE",
"157 68 OFFCURVE",
"162 50 OFFCURVE",
"177 33 CURVE SMOOTH",
"193 15 OFFCURVE",
"217 0 OFFCURVE",
"261 0 CURVE SMOOTH",
"301 0 LINE",
"301 98 LINE",
"247 98 LINE SMOOTH",
"212 98 OFFCURVE",
"187 107 OFFCURVE",
"171 125 CURVE SMOOTH",
"157 141 OFFCURVE",
"151 164 OFFCURVE",
"153 195 CURVE"
);
}
);
width = 301;
}
);
},
{
glyphname = uni066E.init;
layers = (
{
anchors = (
{
name = bottom;
position = "{14, -25}";
},
{
name = top;
position = "{-9, 283}";
}
);
guideLines = (
{
position = "{-1403, -55}";
}
);
layerId = "51F41761-070F-43EA-B302-C90910850260";
name = Regular;
paths = (
{
closed = 1;
nodes = (
"94 280 OFFCURVE",
"82 260 OFFCURVE",
"68 230 CURVE",
"92 202 OFFCURVE",
"108 183 OFFCURVE",
"129 158 CURVE",
"129 158 OFFCURVE",
"111 98 OFFCURVE",
"34 98 CURVE SMOOTH",
"-21 98 LINE SMOOTH",
"-50 98 OFFCURVE",
"-70 77 OFFCURVE",
"-70 50 CURVE",
"-70 22 OFFCURVE",
"-49 0 OFFCURVE",
"-21 0 CURVE",
"26 0 LINE SMOOTH",
"74 0 OFFCURVE",
"108 19 OFFCURVE",
"132 56 CURVE SMOOTH",
"153 89 OFFCURVE",
"163 122 OFFCURVE",
"163 165 CURVE SMOOTH",
"163 215 OFFCURVE",
"144 263 OFFCURVE",
"111 299 CURVE"
);
}
);
width = 223;
}
);
userData = {
com.typemytype.robofont.guides = (
{
angle = 0;
isGlobal = 0;
x = -1403;
y = -55;
}
);
};
},
{
glyphname = uni0750.init;
layers = (
{
anchors = (
{
name = top;
position = "{184, 283}";
}
);
components = (
{
name = "dots.horz.below-ar";
transform = "{1, 0, 0, 1, 149, 146}";
}
);
layerId = "51F41761-070F-43EA-B302-C90910850260";
name = Regular;
paths = (
{
closed = 1;
nodes = (
"287 280 OFFCURVE",
"275 260 OFFCURVE",
"261 230 CURVE",
"284 203 OFFCURVE",
"301 182 OFFCURVE",
"322 158 CURVE",
"322 158 OFFCURVE",
"304 98 OFFCURVE",
"227 98 CURVE SMOOTH",
"-21 98 LINE SMOOTH",
"-50 98 OFFCURVE",
"-70 77 OFFCURVE",
"-70 50 CURVE",
"-70 22 OFFCURVE",
"-49 0 OFFCURVE",
"-21 0 CURVE",
"219 0 LINE SMOOTH",
"267 0 OFFCURVE",
"301 19 OFFCURVE",
"325 56 CURVE SMOOTH",
"346 89 OFFCURVE",
"356 122 OFFCURVE",
"356 165 CURVE SMOOTH",
"356 215 OFFCURVE",
"337 263 OFFCURVE",
"304 299 CURVE"
);
}
);
width = 416;
}
);
},
{
glyphname = uni0750.medi;
layers = (
{
anchors = (
{
name = top;
position = "{133, 198}";
}
);
components = (
{
name = "dots.horz.below-ar";
transform = "{1, 0, 0, 1, 153, 148}";
}
);
layerId = "51F41761-070F-43EA-B302-C90910850260";
name = Regular;
paths = (
{
closed = 1;
nodes = (
"288 183 LINE",
"283 127 OFFCURVE",
"263 98 OFFCURVE",
"193 98 CURVE SMOOTH",
"-21 98 LINE SMOOTH",
"-48 98 OFFCURVE",
"-70 77 OFFCURVE",
"-70 50 CURVE SMOOTH",
"-70 22 OFFCURVE",
"-48 0 OFFCURVE",
"-21 0 CURVE SMOOTH",
"212 0 LINE SMOOTH",
"243 0 OFFCURVE",
"269 11 OFFCURVE",
"288 31 CURVE SMOOTH",
"307 51 OFFCURVE",
"310 68 OFFCURVE",
"313 76 CURVE",
"314 68 OFFCURVE",
"319 50 OFFCURVE",
"334 33 CURVE SMOOTH",
"350 15 OFFCURVE",
"374 0 OFFCURVE",
"418 0 CURVE SMOOTH",
"458 0 LINE",
"458 98 LINE",
"404 98 LINE SMOOTH",
"369 98 OFFCURVE",
"344 107 OFFCURVE",
"328 125 CURVE SMOOTH",
"314 141 OFFCURVE",
"308 164 OFFCURVE",
"310 195 CURVE"
);
}
);
width = 458;
}
);
},
{
glyphname = uni062D;
layers = (
{
anchors = (
{
name = bottom;
position = "{289, -366}";
},
{
name = center;
position = "{323, -48}";
},
{
name = top;
position = "{272, 328}";
}
);
layerId = "51F41761-070F-43EA-B302-C90910850260";
name = Regular;
paths = (
{
closed = 1;
nodes = (
"510 244 OFFCURVE",
"502 244 OFFCURVE",
"494 244 CURVE SMOOTH",
"382 241 OFFCURVE",
"281 275 OFFCURVE",
"272 278 CURVE SMOOTH",
"247 286 OFFCURVE",
"227 293 OFFCURVE",
"201 293 CURVE SMOOTH",
"177 293 OFFCURVE",
"160 287 OFFCURVE",
"144 272 CURVE SMOOTH",
"129 258 OFFCURVE",
"115 240 OFFCURVE",
"93 191 CURVE",
"109 180 LINE",
"119 197 OFFCURVE",
"141 223 OFFCURVE",
"194 223 CURVE SMOOTH",
"243 223 OFFCURVE",
"298 201 OFFCURVE",
"317 194 CURVE",
"286 187 OFFCURVE",
"256 176 OFFCURVE",
"229 160 CURVE SMOOTH",
"188 137 OFFCURVE",
"151 105 OFFCURVE",
"124 66 CURVE SMOOTH",
"94 22 OFFCURVE",
"74 -32 OFFCURVE",
"71 -95 CURVE SMOOTH",
"68 -162 OFFCURVE",
"87 -220 OFFCURVE",
"121 -262 CURVE SMOOTH",
"160 -308 OFFCURVE",
"218 -336 OFFCURVE",
"289 -336 CURVE SMOOTH",
"335 -336 OFFCURVE",
"359 -324 OFFCURVE",
"384 -310 CURVE SMOOTH",
"408 -297 OFFCURVE",
"434 -284 OFFCURVE",
"479 -282 CURVE",
"484 -267 LINE",
"448 -262 OFFCURVE",
"439 -262 OFFCURVE",
"402 -259 CURVE SMOOTH",
"361 -256 OFFCURVE",
"327 -251 OFFCURVE",
"314 -249 CURVE SMOOTH",
"248 -238 OFFCURVE",
"198 -218 OFFCURVE",
"166 -183 CURVE SMOOTH",
"138 -152 OFFCURVE",
"124 -112 OFFCURVE",
"128 -57 CURVE SMOOTH",
"133 17 OFFCURVE",
"178 74 OFFCURVE",
"241 111 CURVE SMOOTH",
"312 153 OFFCURVE",
"407 171 OFFCURVE",
"494 161 CURVE",
"505 191 OFFCURVE",
"512 223 OFFCURVE",
"518 244 CURVE"
);
}
);
width = 578;
}
);
unicode = 062D;
},
{
glyphname = uniFEA2;
layers = (
{
anchors = (
{
name = bottom;
position = "{289, -340}";
},
{
name = center;
position = "{300, -14}";
},
{
name = top;
position = "{271, 349}";
}
);
layerId = "51F41761-070F-43EA-B302-C90910850260";
name = Regular;
paths = (
{
closed = 1;
nodes = (
"574 98 LINE SMOOTH",
"531 98 OFFCURVE",
"500 110 OFFCURVE",
"480 129 CURVE SMOOTH",
"455 152 OFFCURVE",
"454 178 OFFCURVE",
"456 197 CURVE",
"463 198 OFFCURVE",
"485 198 OFFCURVE",
"494 196 CURVE",
"505 222 OFFCURVE",
"517 268 OFFCURVE",
"518 270 CURVE",
"510 270 OFFCURVE",
"502 270 OFFCURVE",
"494 270 CURVE SMOOTH",
"384 270 OFFCURVE",
"291 298 OFFCURVE",
"272 304 CURVE SMOOTH",
"247 312 OFFCURVE",
"227 319 OFFCURVE",
"201 319 CURVE SMOOTH",
"177 319 OFFCURVE",
"160 313 OFFCURVE",
"144 298 CURVE SMOOTH",
"129 284 OFFCURVE",
"115 266 OFFCURVE",
"93 217 CURVE",
"109 206 LINE",
"119 223 OFFCURVE",
"141 249 OFFCURVE",
"194 249 CURVE SMOOTH",
"243 249 OFFCURVE",
"292 227 OFFCURVE",
"311 220 CURVE",
"271 210 OFFCURVE",
"235 195 OFFCURVE",
"204 174 CURVE SMOOTH",
"166 149 OFFCURVE",
"135 116 OFFCURVE",
"110 72 CURVE SMOOTH",
"87 32 OFFCURVE",
"73 -18 OFFCURVE",
"71 -69 CURVE SMOOTH",
"68 -139 OFFCURVE",
"88 -200 OFFCURVE",
"128 -244 CURVE SMOOTH",
"166 -285 OFFCURVE",
"222 -310 OFFCURVE",
"289 -310 CURVE SMOOTH",
"335 -310 OFFCURVE",
"359 -298 OFFCURVE",
"384 -284 CURVE SMOOTH",
"408 -271 OFFCURVE",
"434 -258 OFFCURVE",
"479 -256 CURVE",
"484 -241 LINE",
"448 -236 OFFCURVE",
"439 -235 OFFCURVE",
"402 -233 CURVE SMOOTH",
"351 -230 OFFCURVE",
"317 -225 OFFCURVE",
"304 -223 CURVE SMOOTH",
"250 -213 OFFCURVE",
"200 -189 OFFCURVE",
"168 -152 CURVE SMOOTH",
"137 -116 OFFCURVE",
"126 -74 OFFCURVE",
"128 -34 CURVE SMOOTH",
"131 31 OFFCURVE",
"165 79 OFFCURVE",
"215 118 CURVE SMOOTH",
"271 163 OFFCURVE",
"348 189 OFFCURVE",
"423 189 CURVE",
"416 132 OFFCURVE",
"417 95 OFFCURVE",
"437 64 CURVE SMOOTH",
"462 25 OFFCURVE",
"499 0 OFFCURVE",
"563 0 CURVE SMOOTH",
"651 0 LINE",
"651 98 LINE"
);
}
);
width = 651;
}
);
unicode = FEA2;
},
{
glyphname = uniFEA4;
layers = (
{
anchors = (
{
name = bottom;
position = "{153, -25}";
},
{
name = top;
position = "{163, 352}";
}
);
layerId = "51F41761-070F-43EA-B302-C90910850260";
name = Regular;
paths = (
{
closed = 1;
nodes = (
"468 257 OFFCURVE",
"458 256 OFFCURVE",
"440 256 CURVE SMOOTH",
"327 256 OFFCURVE",
"274 283 OFFCURVE",
"225 301 CURVE SMOOTH",
"190 314 OFFCURVE",
"167 322 OFFCURVE",
"143 322 CURVE SMOOTH",
"115 322 OFFCURVE",
"91 311 OFFCURVE",
"71 289 CURVE SMOOTH",
"53 269 OFFCURVE",
"38 241 OFFCURVE",
"27 205 CURVE",
"43 194 LINE",
"62 221 OFFCURVE",
"68 241 OFFCURVE",
"105 243 CURVE SMOOTH",
"175 247 OFFCURVE",
"283 201 OFFCURVE",
"311 191 CURVE",
"291 172 OFFCURVE",
"276 160 OFFCURVE",
"229 139 CURVE SMOOTH",
"188 121 OFFCURVE",
"118 98 OFFCURVE",
"26 98 CURVE SMOOTH",
"-21 98 LINE SMOOTH",
"-48 98 OFFCURVE",
"-70 76 OFFCURVE",
"-70 49 CURVE SMOOTH",
"-70 23 OFFCURVE",
"-49 0 OFFCURVE",
"-21 0 CURVE SMOOTH",
"31 0 LINE SMOOTH",
"84 0 OFFCURVE",
"133 13 OFFCURVE",
"183 38 CURVE SMOOTH",
"237 66 OFFCURVE",
"278 102 OFFCURVE",
"313 127 CURVE SMOOTH",
"332 140 OFFCURVE",
"349 151 OFFCURVE",
"365 154 CURVE",
"364 113 OFFCURVE",
"369 81 OFFCURVE",
"390 51 CURVE SMOOTH",
"414 17 OFFCURVE",
"457 0 OFFCURVE",
"507 0 CURVE SMOOTH",
"619 0 LINE",
"619 98 LINE",
"496 98 LINE SMOOTH",
"437 98 OFFCURVE",
"401 112 OFFCURVE",
"396 159 CURVE",
"401 161 OFFCURVE",
"427 164 OFFCURVE",
"441 161 CURVE",
"458 193 OFFCURVE",
"471 223 OFFCURVE",
"485 257 CURVE"
);
}
);
width = 619;
}
);
unicode = FEA4;
},
{
glyphname = uniFEA3;
layers = (
{
anchors = (
{
name = bottom;
position = "{172, -24}";
},
{
name = top;
position = "{162, 331}";
}
);
layerId = "51F41761-070F-43EA-B302-C90910850260";
name = Regular;
paths = (
{
closed = 1;
nodes = (
"486 229 OFFCURVE",
"475 229 OFFCURVE",
"464 229 CURVE SMOOTH",
"349 229 OFFCURVE",
"279 257 OFFCURVE",
"226 278 CURVE SMOOTH",
"194 291 OFFCURVE",
"168 301 OFFCURVE",
"142 301 CURVE SMOOTH",
"115 301 OFFCURVE",
"91 290 OFFCURVE",
"71 268 CURVE SMOOTH",
"53 248 OFFCURVE",
"38 220 OFFCURVE",
"27 184 CURVE",
"43 173 LINE",
"61 203 OFFCURVE",
"69 219 OFFCURVE",
"105 222 CURVE SMOOTH",
"166 228 OFFCURVE",
"274 182 OFFCURVE",
"313 169 CURVE SMOOTH",
"313 169 OFFCURVE",
"279 145 OFFCURVE",
"229 128 CURVE SMOOTH",
"193 116 OFFCURVE",
"117 98 OFFCURVE",
"27 98 CURVE SMOOTH",
"-21 98 LINE SMOOTH",
"-49 98 OFFCURVE",
"-70 76 OFFCURVE",
"-70 49 CURVE SMOOTH",
"-70 24 OFFCURVE",
"-52 0 OFFCURVE",
"-21 0 CURVE SMOOTH",
"32 0 LINE SMOOTH",
"132 0 OFFCURVE",
"193 36 OFFCURVE",
"252 71 CURVE SMOOTH",
"307 104 OFFCURVE",
"365 138 OFFCURVE",
"453 139 CURVE",
"471 172 OFFCURVE",
"483 196 OFFCURVE",
"497 229 CURVE"
);
}
);
width = 557;
}
);
unicode = FEA3;
},
{
glyphname = uni062F;
layers = (
{
anchors = (
{
name = bottom;
position = "{175, -35}";
},
{
name = top;
position = "{189, 408}";
}
);
layerId = "51F41761-070F-43EA-B302-C90910850260";
name = Regular;
paths = (
{
closed = 1;
nodes = (
"353 242 OFFCURVE",
"312 288 OFFCURVE",
"278 319 CURVE SMOOTH",
"244 349 OFFCURVE",
"207 370 OFFCURVE",
"189 378 CURVE",
"178 348 OFFCURVE",
"170 324 OFFCURVE",
"165 294 CURVE",
"262 255 OFFCURVE",
"312 164 OFFCURVE",
"312 164 CURVE SMOOTH",
"312 164 OFFCURVE",
"290 90 OFFCURVE",
"192 90 CURVE SMOOTH",
"151 90 LINE SMOOTH",
"118 90 OFFCURVE",
"99 99 OFFCURVE",
"83 117 CURVE SMOOTH",
"70 130 OFFCURVE",
"63 147 OFFCURVE",
"61 168 CURVE",
"44 164 LINE",
"40 143 OFFCURVE",
"31 79 OFFCURVE",
"65 35 CURVE SMOOTH",
"87 7 OFFCURVE",
"123 -6 OFFCURVE",
"171 -6 CURVE SMOOTH",
"226 -6 OFFCURVE",
"272 11 OFFCURVE",
"304 44 CURVE SMOOTH",
"336 77 OFFCURVE",
"353 126 OFFCURVE",
"353 171 CURVE SMOOTH"
);
}
);
width = 413;
}
);
unicode = 062F;
},
{
glyphname = uniFEAA;
layers = (
{
anchors = (
{
name = bottom;
position = "{177, -29}";
},
{
name = top;
position = "{250, 384}";
}
);
layerId = "51F41761-070F-43EA-B302-C90910850260";
name = Regular;
paths = (
{
closed = 1;
nodes = (
"295 360 OFFCURVE",
"278 341 OFFCURVE",
"262 319 CURVE",
"296 198 LINE",
"291 155 OFFCURVE",
"268 92 OFFCURVE",
"193 92 CURVE SMOOTH",
"159 92 LINE SMOOTH",
"125 92 OFFCURVE",
"100 101 OFFCURVE",
"83 119 CURVE SMOOTH",
"71 132 OFFCURVE",
"64 149 OFFCURVE",
"62 170 CURVE",
"45 166 LINE",
"31 92 OFFCURVE",
"52 52 OFFCURVE",
"65 35 CURVE SMOOTH",
"87 9 OFFCURVE",
"123 -5 OFFCURVE",
"172 -5 CURVE SMOOTH",
"309 -5 OFFCURVE",
"324 97 OFFCURVE",
"328 116 CURVE",
"338 76 OFFCURVE",
"349 56 OFFCURVE",
"374 33 CURVE SMOOTH",
"397 11 OFFCURVE",
"429 0 OFFCURVE",
"471 0 CURVE SMOOTH",
"503 0 LINE",
"503 98 LINE",
"472 98 LINE SMOOTH",
"414 98 OFFCURVE",
"383 128 OFFCURVE",
"359 203 CURVE",
"309 374 LINE"
);
}
);
width = 503;
}
);
unicode = FEAA;
},
{
glyphname = uni0631;
layers = (
{
anchors = (
{
name = bottom;
position = "{49, -268}";
},
{
name = center;
position = "{92, 5}";
},
{
name = top;
position = "{133, 233}";
}
);
layerId = "51F41761-070F-43EA-B302-C90910850260";
name = Regular;
paths = (
{
closed = 1;
nodes = (
"163 186 OFFCURVE",
"150 166 OFFCURVE",
"134 137 CURVE",
"150 122 OFFCURVE",
"167 100 OFFCURVE",
"179 81 CURVE SMOOTH",
"193 59 OFFCURVE",
"202 38 OFFCURVE",
"202 8 CURVE SMOOTH",
"202 -27 OFFCURVE",
"189 -58 OFFCURVE",
"162 -85 CURVE SMOOTH",
"139 -108 OFFCURVE",
"98 -134 OFFCURVE",
"70 -150 CURVE SMOOTH",
"38 -168 OFFCURVE",
"5 -186 OFFCURVE",
"-60 -221 CURVE",
"-51 -234 LINE",
"-29 -229 OFFCURVE",
"-11 -227 OFFCURVE",
"7 -227 CURVE SMOOTH",
"30 -227 OFFCURVE",
"59 -230 OFFCURVE",
"78 -230 CURVE SMOOTH",
"106 -230 OFFCURVE",
"126 -224 OFFCURVE",
"150 -207 CURVE SMOOTH",
"172 -192 OFFCURVE",
"190 -171 OFFCURVE",
"203 -148 CURVE SMOOTH",
"238 -87 OFFCURVE",
"245 -8 OFFCURVE",
"245 34 CURVE SMOOTH",
"245 99 OFFCURVE",
"228 139 OFFCURVE",
"212 168 CURVE SMOOTH",
"201 188 OFFCURVE",
"190 202 OFFCURVE",
"183 209 CURVE"
);
}
);
width = 305;
}
);
unicode = 0631;
},
{
glyphname = uniFEAE;
layers = (
{
anchors = (
{
name = bottom;
position = "{36, -309}";
},
{
name = center;
position = "{82, -43}";
},
{
name = top;
position = "{151, 198}";
}
);
layerId = "51F41761-070F-43EA-B302-C90910850260";
name = Regular;
paths = (
{
closed = 1;
nodes = (
"164 140 OFFCURVE",
"149 117 OFFCURVE",
"133 87 CURVE",
"172 51 OFFCURVE",
"202 14 OFFCURVE",
"202 -41 CURVE SMOOTH",
"202 -79 OFFCURVE",
"188 -108 OFFCURVE",
"160 -135 CURVE SMOOTH",
"111 -182 OFFCURVE",
"19 -228 OFFCURVE",
"-60 -271 CURVE",
"-51 -284 LINE",
"-30 -278 OFFCURVE",
"-12 -276 OFFCURVE",
"3 -276 CURVE SMOOTH",
"25 -276 OFFCURVE",
"57 -280 OFFCURVE",
"79 -280 CURVE SMOOTH",
"119 -280 OFFCURVE",
"140 -267 OFFCURVE",
"161 -247 CURVE SMOOTH",
"182 -227 OFFCURVE",
"202 -199 OFFCURVE",
"218 -162 CURVE SMOOTH",
"259 -68 OFFCURVE",
"244 19 OFFCURVE",
"244 19 CURVE SMOOTH",
"244 19 OFFCURVE",
"267 0 OFFCURVE",
"309 0 CURVE SMOOTH",
"375 0 LINE",
"375 98 LINE",
"296 98 LINE SMOOTH",
"272 98 OFFCURVE",
"239 108 OFFCURVE",
"217 124 CURVE SMOOTH",
"210 129 OFFCURVE",
"197 141 OFFCURVE",
"181 159 CURVE"
);
}
);
width = 375;
}
);
unicode = FEAE;
},
{
glyphname = uni08AA;
layers = (
{
anchors = (
{
name = bottom;
position = "{160, -276}";
},
{
name = top;
position = "{238, 242}";
}
);
layerId = "51F41761-070F-43EA-B302-C90910850260";
name = Regular;
paths = (
{
closed = 1;
nodes = (
"272 186 OFFCURVE",
"259 166 OFFCURVE",
"243 137 CURVE",
"259 122 OFFCURVE",
"276 100 OFFCURVE",
"288 81 CURVE SMOOTH",
"302 59 OFFCURVE",
"311 38 OFFCURVE",
"311 8 CURVE SMOOTH",
"311 -40 OFFCURVE",
"284 -82 OFFCURVE",
"243 -108 CURVE",
"221 -48 OFFCURVE",
"174 -16 OFFCURVE",
"120 -15 CURVE SMOOTH",
"88 -15 OFFCURVE",
"30 -38 OFFCURVE",
"30 -113 CURVE SMOOTH",
"30 -149 OFFCURVE",
"44 -179 OFFCURVE",
"68 -201 CURVE SMOOTH",
"91 -222 OFFCURVE",
"124 -235 OFFCURVE",
"160 -236 CURVE SMOOTH",
"185 -236 OFFCURVE",
"212 -231 OFFCURVE",
"239 -219 CURVE",
"242 -233 OFFCURVE",
"246 -247 OFFCURVE",
"248 -262 CURVE",
"279 -235 LINE",
"276 -223 OFFCURVE",
"274 -210 OFFCURVE",
"271 -198 CURVE",
"287 -184 OFFCURVE",
"301 -167 OFFCURVE",
"312 -148 CURVE SMOOTH",
"347 -87 OFFCURVE",
"354 -8 OFFCURVE",
"354 34 CURVE SMOOTH",
"354 99 OFFCURVE",
"337 139 OFFCURVE",
"321 168 CURVE SMOOTH",
"310 188 OFFCURVE",
"299 202 OFFCURVE",
"292 209 CURVE"
);
},
{
closed = 1;
nodes = (
"190 -146 OFFCURVE",
"160 -154 OFFCURVE",
"132 -154 CURVE SMOOTH",
"92 -154 OFFCURVE",
"54 -137 OFFCURVE",
"58 -100 CURVE SMOOTH",
"61 -80 OFFCURVE",
"84 -60 OFFCURVE",
"111 -60 CURVE SMOOTH",
"148 -60 OFFCURVE",
"183 -82 OFFCURVE",
"205 -130 CURVE"
);
}
);
width = 414;
}
);
unicode = 08AA;
},
{
glyphname = uni08AA.fina;
layers = (
{
anchors = (
{
name = bottom;
position = "{160, -316}";
},
{
name = top;
position = "{243, 189}";
}
);
layerId = "51F41761-070F-43EA-B302-C90910850260";
name = Regular;
paths = (
{
closed = 1;
nodes = (
"407 98 LINE SMOOTH",
"383 98 OFFCURVE",
"350 108 OFFCURVE",
"328 124 CURVE SMOOTH",
"321 129 OFFCURVE",
"308 142 OFFCURVE",
"292 159 CURVE",
"272 136 OFFCURVE",
"259 116 OFFCURVE",
"243 87 CURVE",
"259 72 OFFCURVE",
"276 50 OFFCURVE",
"288 31 CURVE SMOOTH",
"302 9 OFFCURVE",
"311 -12 OFFCURVE",
"311 -42 CURVE SMOOTH",
"311 -90 OFFCURVE",
"284 -132 OFFCURVE",
"243 -158 CURVE",
"221 -98 OFFCURVE",
"174 -66 OFFCURVE",
"120 -65 CURVE SMOOTH",
"88 -65 OFFCURVE",
"30 -88 OFFCURVE",
"30 -163 CURVE SMOOTH",
"30 -199 OFFCURVE",
"44 -229 OFFCURVE",
"68 -251 CURVE SMOOTH",
"91 -272 OFFCURVE",
"124 -285 OFFCURVE",
"160 -286 CURVE SMOOTH",
"185 -286 OFFCURVE",
"212 -281 OFFCURVE",
"239 -269 CURVE",
"242 -283 OFFCURVE",
"246 -297 OFFCURVE",
"248 -312 CURVE",
"279 -285 LINE",
"276 -273 OFFCURVE",
"274 -260 OFFCURVE",
"271 -248 CURVE",
"287 -234 OFFCURVE",
"301 -217 OFFCURVE",
"312 -198 CURVE SMOOTH",
"347 -137 OFFCURVE",
"354 -58 OFFCURVE",
"354 -16 CURVE SMOOTH",
"354 -4 OFFCURVE",
"353 8 OFFCURVE",
"352 18 CURVE",
"358 14 OFFCURVE",
"383 0 OFFCURVE",
"420 0 CURVE SMOOTH",
"486 0 LINE",
"486 98 LINE"
);
},
{
closed = 1;
nodes = (
"190 -196 OFFCURVE",
"160 -204 OFFCURVE",
"132 -204 CURVE SMOOTH",
"92 -204 OFFCURVE",
"54 -187 OFFCURVE",
"58 -150 CURVE",
"61 -130 OFFCURVE",
"84 -110 OFFCURVE",
"111 -110 CURVE SMOOTH",
"148 -110 OFFCURVE",
"183 -132 OFFCURVE",
"205 -180 CURVE"
);
}
);
width = 486;
}
);
},
{
glyphname = uni0633;
layers = (
{
anchors = (
{
name = bottom;
position = "{284, -313}";
},
{
name = center;
position = "{654, -101}";
},
{
name = top;
position = "{642, 231}";
}
);
layerId = "51F41761-070F-43EA-B302-C90910850260";
name = Regular;
paths = (
{
closed = 1;
nodes = (
"781 248 OFFCURVE",
"766 228 OFFCURVE",
"755 209 CURVE",
"798 148 LINE",
"794 124 OFFCURVE",
"766 95 OFFCURVE",
"730 95 CURVE SMOOTH",
"674 95 OFFCURVE",
"650 127 OFFCURVE",
"658 191 CURVE",
"636 179 LINE",
"634 148 OFFCURVE",
"622 96 OFFCURVE",
"559 96 CURVE SMOOTH",
"502 96 OFFCURVE",
"467 142 OFFCURVE",
"459 159 CURVE",
"445 142 OFFCURVE",
"426 118 OFFCURVE",
"412 91 CURVE",
"431 65 OFFCURVE",
"488 -14 OFFCURVE",
"488 -63 CURVE SMOOTH",
"488 -91 OFFCURVE",
"466 -118 OFFCURVE",
"431 -138 CURVE SMOOTH",
"396 -158 OFFCURVE",
"349 -170 OFFCURVE",
"292 -170 CURVE SMOOTH",
"214 -170 OFFCURVE",
"159 -148 OFFCURVE",
"132 -114 CURVE SMOOTH",
"106 -81 OFFCURVE",
"109 -40 OFFCURVE",
"119 17 CURVE",
"100 24 LINE",
"82 -19 OFFCURVE",
"73 -61 OFFCURVE",
"71 -89 CURVE SMOOTH",
"69 -118 OFFCURVE",
"72 -148 OFFCURVE",
"84 -177 CURVE SMOOTH",
"98 -211 OFFCURVE",
"121 -236 OFFCURVE",
"156 -255 CURVE SMOOTH",
"191 -274 OFFCURVE",
"234 -283 OFFCURVE",
"284 -283 CURVE SMOOTH",
"321 -283 OFFCURVE",
"354 -278 OFFCURVE",
"384 -268 CURVE SMOOTH",
"411 -259 OFFCURVE",
"436 -247 OFFCURVE",
"460 -225 CURVE SMOOTH",
"505 -184 OFFCURVE",
"528 -121 OFFCURVE",
"528 -44 CURVE SMOOTH",
"528 -26 OFFCURVE",
"526 -9 OFFCURVE",
"524 8 CURVE",
"557 -2 OFFCURVE",
"585 0 OFFCURVE",
"606 14 CURVE SMOOTH",
"625 26 OFFCURVE",
"638 48 OFFCURVE",
"642 76 CURVE SMOOTH",
"642 76 OFFCURVE",
"647 51 OFFCURVE",
"668 31 CURVE SMOOTH",
"681 19 OFFCURVE",
"700 9 OFFCURVE",
"728 9 CURVE SMOOTH",
"764 9 OFFCURVE",
"787 26 OFFCURVE",
"803 48 CURVE SMOOTH",
"829 85 OFFCURVE",
"833 135 OFFCURVE",
"833 140 CURVE SMOOTH",
"833 209 OFFCURVE",
"807 249 OFFCURVE",
"795 263 CURVE"
);
}
);
width = 893;
}
);
unicode = 0633;
},
{
glyphname = uniFEB2;
layers = (
{
anchors = (
{
name = bottom;
position = "{284, -314}";
},
{
name = center;
position = "{638, -101}";
},
{
name = top;
position = "{639, 228}";
}
);
layerId = "51F41761-070F-43EA-B302-C90910850260";
name = Regular;
paths = (
{
closed = 1;
nodes = (
"873 98 LINE SMOOTH",
"845 98 OFFCURVE",
"827 105 OFFCURVE",
"814 119 CURVE SMOOTH",
"796 140 OFFCURVE",
"798 167 OFFCURVE",
"800 190 CURVE",
"778 178 LINE",
"776 145 OFFCURVE",
"766 95 OFFCURVE",
"711 95 CURVE SMOOTH",
"646 95 OFFCURVE",
"652 167 OFFCURVE",
"655 190 CURVE",
"633 178 LINE",
"631 148 OFFCURVE",
"616 95 OFFCURVE",
"561 95 CURVE SMOOTH",
"511 95 OFFCURVE",
"473 139 OFFCURVE",
"459 158 CURVE",
"445 141 OFFCURVE",
"426 117 OFFCURVE",
"412 90 CURVE",
"415 86 OFFCURVE",
"488 -15 OFFCURVE",
"488 -64 CURVE SMOOTH",
"488 -92 OFFCURVE",
"466 -119 OFFCURVE",
"431 -139 CURVE SMOOTH",
"396 -159 OFFCURVE",
"349 -171 OFFCURVE",
"292 -171 CURVE SMOOTH",
"214 -171 OFFCURVE",
"159 -149 OFFCURVE",
"132 -115 CURVE SMOOTH",
"106 -82 OFFCURVE",
"109 -41 OFFCURVE",
"119 16 CURVE",
"100 23 LINE",
"82 -20 OFFCURVE",
"73 -62 OFFCURVE",
"71 -90 CURVE SMOOTH",
"69 -119 OFFCURVE",
"72 -149 OFFCURVE",
"84 -178 CURVE SMOOTH",
"98 -213 OFFCURVE",
"124 -239 OFFCURVE",
"156 -256 CURVE SMOOTH",
"191 -275 OFFCURVE",
"234 -284 OFFCURVE",
"284 -284 CURVE SMOOTH",
"321 -284 OFFCURVE",
"354 -279 OFFCURVE",
"384 -269 CURVE SMOOTH",
"411 -260 OFFCURVE",
"436 -248 OFFCURVE",
"460 -226 CURVE SMOOTH",
"505 -185 OFFCURVE",
"528 -121 OFFCURVE",
"528 -50 CURVE SMOOTH",
"528 -35 OFFCURVE",
"527 -15 OFFCURVE",
"524 7 CURVE",
"529 5 OFFCURVE",
"541 2 OFFCURVE",
"556 2 CURVE SMOOTH",
"597 2 OFFCURVE",
"625 24 OFFCURVE",
"639 75 CURVE",
"643 35 OFFCURVE",
"665 0 OFFCURVE",
"712 0 CURVE SMOOTH",
"768 0 OFFCURVE",
"780 49 OFFCURVE",
"784 75 CURVE",
"787 48 OFFCURVE",
"805 0 OFFCURVE",
"876 0 CURVE",
"919 0 LINE",
"919 98 LINE"
);
}
);
width = 919;
}
);
unicode = FEB2;
},
{
glyphname = uniFEB4;
layers = (
{
anchors = (
{
name = bottom;
position = "{279, -25}";
},
{
name = top;
position = "{279, 229}";
}
);
layerId = "51F41761-070F-43EA-B302-C90910850260";
name = Regular;
paths = (
{
closed = 1;
nodes = (
"513 98 LINE SMOOTH",
"485 98 OFFCURVE",
"467 105 OFFCURVE",
"454 120 CURVE SMOOTH",
"436 140 OFFCURVE",
"438 167 OFFCURVE",
"440 190 CURVE",
"418 178 LINE",
"417 162 OFFCURVE",
"414 142 OFFCURVE",
"405 126 CURVE SMOOTH",
"396 108 OFFCURVE",
"380 95 OFFCURVE",
"354 95 CURVE SMOOTH",
"306 95 OFFCURVE",
"295 130 OFFCURVE",
"294 160 CURVE SMOOTH",
"293 172 OFFCURVE",
"294 183 OFFCURVE",
"295 190 CURVE",
"273 178 LINE",
"272 159 OFFCURVE",
"267 137 OFFCURVE",
"254 120 CURVE SMOOTH",
"243 105 OFFCURVE",
"225 94 OFFCURVE",
"197 94 CURVE SMOOTH",
"141 94 OFFCURVE",
"128 124 OFFCURVE",
"125 152 CURVE SMOOTH",
"124 167 OFFCURVE",
"126 182 OFFCURVE",
"127 190 CURVE",
"105 178 LINE",
"101 161 OFFCURVE",
"101 148 OFFCURVE",
"90 131 CURVE SMOOTH",
"75 109 OFFCURVE",
"53 98 OFFCURVE",
"25 98 CURVE SMOOTH",
"-20 98 LINE SMOOTH",
"-47 98 OFFCURVE",
"-70 75 OFFCURVE",
"-70 48 CURVE SMOOTH",
"-70 20 OFFCURVE",
"-47 0 OFFCURVE",
"-20 0 CURVE SMOOTH",
"18 0 LINE SMOOTH",
"75 0 OFFCURVE",
"101 34 OFFCURVE",
"108 75 CURVE",
"107 36 OFFCURVE",
"134 -2 OFFCURVE",
"187 -2 CURVE SMOOTH",
"244 -2 OFFCURVE",
"269 38 OFFCURVE",
"279 75 CURVE",
"277 37 OFFCURVE",
"301 -2 OFFCURVE",
"346 -2 CURVE SMOOTH",
"405 -2 OFFCURVE",
"420 49 OFFCURVE",
"425 75 CURVE",
"425 33 OFFCURVE",
"453 0 OFFCURVE",
"511 0 CURVE",
"549 0 LINE",
"549 98 LINE"
);
}
);
width = 549;
}
);
unicode = FEB4;
},
{
glyphname = uniFEB3;
layers = (
{
anchors = (
{
name = bottom;
position = "{279, -24}";
},
{
name = top;
position = "{279, 228}";
}
);
layerId = "51F41761-070F-43EA-B302-C90910850260";
name = Regular;
paths = (
{
closed = 1;
nodes = (
"418 248 OFFCURVE",
"403 228 OFFCURVE",
"392 208 CURVE",
"436 147 LINE",
"421 106 OFFCURVE",
"405 94 OFFCURVE",
"368 94 CURVE SMOOTH",
"340 94 OFFCURVE",
"322 101 OFFCURVE",
"309 116 CURVE SMOOTH",
"296 130 OFFCURVE",
"293 149 OFFCURVE",
"293 167 CURVE SMOOTH",
"293 175 OFFCURVE",
"294 183 OFFCURVE",
"295 190 CURVE",
"273 178 LINE",
"272 169 OFFCURVE",
"271 159 OFFCURVE",
"268 149 CURVE SMOOTH",
"260 121 OFFCURVE",
"241 94 OFFCURVE",
"197 94 CURVE SMOOTH",
"141 94 OFFCURVE",
"128 124 OFFCURVE",
"125 152 CURVE SMOOTH",
"124 167 OFFCURVE",
"126 182 OFFCURVE",
"127 190 CURVE",
"105 178 LINE",
"101 161 OFFCURVE",
"101 148 OFFCURVE",
"90 131 CURVE SMOOTH",
"75 109 OFFCURVE",
"53 98 OFFCURVE",
"25 98 CURVE SMOOTH",
"-20 98 LINE SMOOTH",
"-47 98 OFFCURVE",
"-70 75 OFFCURVE",
"-70 48 CURVE SMOOTH",
"-70 24 OFFCURVE",
"-51 0 OFFCURVE",
"-20 0 CURVE SMOOTH",
"18 0 LINE SMOOTH",
"53 0 OFFCURVE",
"74 14 OFFCURVE",
"88 30 CURVE SMOOTH",
"105 51 OFFCURVE",
"108 76 OFFCURVE",
"108 76 CURVE SMOOTH",
"113 40 OFFCURVE",
"134 0 OFFCURVE",
"187 0 CURVE SMOOTH",
"243 0 OFFCURVE",
"271 40 OFFCURVE",
"279 75 CURVE",
"281 47 OFFCURVE",
"303 8 OFFCURVE",
"366 8 CURVE SMOOTH",
"401 8 OFFCURVE",
"424 25 OFFCURVE",
"440 47 CURVE SMOOTH",
"466 84 OFFCURVE",
"470 134 OFFCURVE",
"470 139 CURVE SMOOTH",
"470 208 OFFCURVE",
"444 248 OFFCURVE",
"432 262 CURVE"
);
}
);
width = 530;
}
);
unicode = FEB3;
},
{
glyphname = uni0635;
layers = (
{
anchors = (
{
name = bottom;
position = "{284, -314}";
},
{
name = center;
position = "{687, -90}";
},
{
name = top;
position = "{814, 351}";
}
);
layerId = "51F41761-070F-43EA-B302-C90910850260";
name = Regular;
paths = (
{
closed = 1;
nodes = (
"937 243 OFFCURVE",
"932 269 OFFCURVE",
"900 294 CURVE SMOOTH",
"879 310 OFFCURVE",
"853 321 OFFCURVE",
"834 321 CURVE SMOOTH",
"766 321 OFFCURVE",
"698 256 OFFCURVE",
"662 218 CURVE SMOOTH",
"622 176 OFFCURVE",
"605 151 OFFCURVE",
"571 98 CURVE SMOOTH",
"520 104 OFFCURVE",
"497 113 OFFCURVE",
"460 159 CURVE",
"438 133 OFFCURVE",
"427 116 OFFCURVE",
"412 90 CURVE",
"431 64 OFFCURVE",
"488 -15 OFFCURVE",
"488 -64 CURVE SMOOTH",
"488 -92 OFFCURVE",
"466 -119 OFFCURVE",
"431 -139 CURVE SMOOTH",
"396 -159 OFFCURVE",
"349 -171 OFFCURVE",
"292 -171 CURVE SMOOTH",
"214 -171 OFFCURVE",
"159 -149 OFFCURVE",
"132 -115 CURVE SMOOTH",
"106 -82 OFFCURVE",
"109 -41 OFFCURVE",
"119 16 CURVE",
"100 23 LINE",
"82 -20 OFFCURVE",
"73 -62 OFFCURVE",
"71 -90 CURVE SMOOTH",
"69 -119 OFFCURVE",
"72 -149 OFFCURVE",
"84 -178 CURVE SMOOTH",
"98 -212 OFFCURVE",
"121 -237 OFFCURVE",
"156 -256 CURVE SMOOTH",
"191 -275 OFFCURVE",
"234 -284 OFFCURVE",
"284 -284 CURVE SMOOTH",
"369 -284 OFFCURVE",
"427 -258 OFFCURVE",
"465 -222 CURVE SMOOTH",
"516 -172 OFFCURVE",
"531 -105 OFFCURVE",
"531 -57 CURVE SMOOTH",
"531 -35 OFFCURVE",
"527 -3 OFFCURVE",
"521 30 CURVE",
"533 20 OFFCURVE",
"550 13 OFFCURVE",
"560 11 CURVE SMOOTH",
"584 4 OFFCURVE",
"615 4 OFFCURVE",
"657 4 CURVE SMOOTH",
"718 4 OFFCURVE",
"789 29 OFFCURVE",
"845 72 CURVE SMOOTH",
"873 94 OFFCURVE",
"896 119 OFFCURVE",
"912 145 CURVE SMOOTH",
"929 173 OFFCURVE",
"937 202 OFFCURVE",
"937 231 CURVE SMOOTH"
);
},
{
closed = 1;
nodes = (
"866 144 OFFCURVE",
"857 135 OFFCURVE",
"827 120 CURVE SMOOTH",
"801 108 OFFCURVE",
"767 98 OFFCURVE",
"722 98 CURVE SMOOTH",
"606 98 LINE SMOOTH",
"631 132 OFFCURVE",
"654 161 OFFCURVE",
"677 183 CURVE SMOOTH",
"705 211 OFFCURVE",
"735 246 OFFCURVE",
"793 246 CURVE SMOOTH",
"823 246 OFFCURVE",
"853 225 OFFCURVE",
"866 208 CURVE SMOOTH",
"877 195 OFFCURVE",
"878 187 OFFCURVE",
"886 165 CURVE SMOOTH"
);
}
);
width = 997;
}
);
unicode = 0635;
},
{
glyphname = uniFEBA;
layers = (
{
anchors = (
{
name = bottom;
position = "{284, -314}";
},
{
name = center;
position = "{687, -90}";
},
{
name = top;
position = "{814, 351}";
}
);
layerId = "51F41761-070F-43EA-B302-C90910850260";
name = Regular;
paths = (
{
closed = 1;
nodes = (
"968 98 LINE SMOOTH",
"920 98 OFFCURVE",
"862 79 OFFCURVE",
"845 73 CURVE",
"873 94 OFFCURVE",
"896 119 OFFCURVE",
"912 145 CURVE SMOOTH",
"929 173 OFFCURVE",
"938 202 OFFCURVE",
"938 231 CURVE SMOOTH",
"938 243 OFFCURVE",
"933 269 OFFCURVE",
"901 294 CURVE SMOOTH",
"880 310 OFFCURVE",
"853 321 OFFCURVE",
"834 321 CURVE SMOOTH",
"767 321 OFFCURVE",
"698 256 OFFCURVE",
"662 218 CURVE SMOOTH",
"630 184 OFFCURVE",
"603 147 OFFCURVE",
"571 98 CURVE SMOOTH",
"525 102 OFFCURVE",
"497 114 OFFCURVE",
"460 159 CURVE",
"440 137 OFFCURVE",
"424 115 OFFCURVE",
"412 90 CURVE",
"431 64 OFFCURVE",
"488 -16 OFFCURVE",
"488 -63 CURVE SMOOTH",
"488 -91 OFFCURVE",
"468 -118 OFFCURVE",
"431 -139 CURVE SMOOTH",
"396 -159 OFFCURVE",
"349 -171 OFFCURVE",
"292 -171 CURVE SMOOTH",
"214 -171 OFFCURVE",
"159 -149 OFFCURVE",
"132 -115 CURVE SMOOTH",
"106 -82 OFFCURVE",
"109 -41 OFFCURVE",
"119 16 CURVE",
"100 23 LINE",
"82 -20 OFFCURVE",
"73 -62 OFFCURVE",
"71 -90 CURVE SMOOTH",
"69 -119 OFFCURVE",
"72 -149 OFFCURVE",
"84 -178 CURVE SMOOTH",
"98 -213 OFFCURVE",
"124 -239 OFFCURVE",
"156 -256 CURVE SMOOTH",
"191 -275 OFFCURVE",
"234 -284 OFFCURVE",
"284 -284 CURVE SMOOTH",
"358 -284 OFFCURVE",
"411 -265 OFFCURVE",
"450 -234 CURVE SMOOTH",
"513 -184 OFFCURVE",
"532 -108 OFFCURVE",
"532 -60 CURVE SMOOTH",
"532 -35 OFFCURVE",
"527 3 OFFCURVE",
"522 30 CURVE",
"528 26 OFFCURVE",
"543 16 OFFCURVE",
"560 11 CURVE SMOOTH",
"589 2 OFFCURVE",
"648 4 OFFCURVE",
"663 4 CURVE SMOOTH",
"677 4 OFFCURVE",
"841 2 OFFCURVE",
"883 1 CURVE SMOOTH",
"911 1 OFFCURVE",
"932 0 OFFCURVE",
"962 0 CURVE SMOOTH",
"1072 0 LINE",
"1072 98 LINE"
);
},
{
closed = 1;
nodes = (
"865 142 OFFCURVE",
"855 131 OFFCURVE",
"821 117 CURVE SMOOTH",
"796 106 OFFCURVE",
"763 98 OFFCURVE",
"722 98 CURVE SMOOTH",
"607 98 LINE SMOOTH",
"632 133 OFFCURVE",
"653 160 OFFCURVE",
"677 183 CURVE SMOOTH",
"705 211 OFFCURVE",
"735 246 OFFCURVE",
"793 246 CURVE SMOOTH",
"823 246 OFFCURVE",
"853 225 OFFCURVE",
"867 208 CURVE SMOOTH",
"876 195 OFFCURVE",
"881 185 OFFCURVE",
"886 165 CURVE"
);
}
);
width = 1072;
}
);
unicode = FEBA;
},
{
glyphname = uniFEBC;
layers = (
{
anchors = (
{
name = bottom;
position = "{307, -25}";
},
{
name = top;
position = "{419, 350}";
}
);
layerId = "51F41761-070F-43EA-B302-C90910850260";
name = Regular;
paths = (
{
closed = 1;
nodes = (
"578 98 LINE SMOOTH",
"532 98 OFFCURVE",
"475 80 OFFCURVE",
"456 73 CURVE",
"470 83 OFFCURVE",
"482 95 OFFCURVE",
"493 106 CURVE SMOOTH",
"514 128 OFFCURVE",
"548 183 OFFCURVE",
"548 222 CURVE SMOOTH",
"548 229 OFFCURVE",
"547 268 OFFCURVE",
"512 295 CURVE SMOOTH",
"494 309 OFFCURVE",
"466 320 OFFCURVE",
"439 320 CURVE SMOOTH",
"410 320 OFFCURVE",
"384 308 OFFCURVE",
"357 291 CURVE SMOOTH",
"319 267 OFFCURVE",
"285 232 OFFCURVE",
"272 218 CURVE SMOOTH",
"218 160 OFFCURVE",
"183 102 OFFCURVE",
"181 98 CURVE",
"160 100 OFFCURVE",
"144 113 OFFCURVE",
"136 122 CURVE SMOOTH",
"116 145 OFFCURVE",
"120 175 OFFCURVE",
"122 199 CURVE",
"101 187 LINE",
"98 164 OFFCURVE",
"94 149 OFFCURVE",
"82 132 CURVE SMOOTH",
"68 112 OFFCURVE",
"50 98 OFFCURVE",
"17 98 CURVE SMOOTH",
"-22 98 LINE SMOOTH",
"-49 98 OFFCURVE",
"-70 76 OFFCURVE",
"-70 48 CURVE SMOOTH",
"-70 20 OFFCURVE",
"-50 0 OFFCURVE",
"-22 0 CURVE SMOOTH",
"16 0 LINE SMOOTH",
"67 0 OFFCURVE",
"95 21 OFFCURVE",
"105 68 CURVE",
"112 42 OFFCURVE",
"125 26 OFFCURVE",
"154 17 CURVE",
"146 -17 LINE",
"174 -17 LINE",
"182 9 LINE",
"205 4 OFFCURVE",
"229 4 OFFCURVE",
"267 4 CURVE SMOOTH",
"298 4 OFFCURVE",
"452 2 OFFCURVE",
"493 1 CURVE SMOOTH",
"521 1 OFFCURVE",
"542 0 OFFCURVE",
"572 0 CURVE SMOOTH",
"688 0 LINE",
"688 98 LINE"
);
},
{
closed = 1;
nodes = (
"486 137 OFFCURVE",
"451 119 OFFCURVE",
"411 109 CURVE SMOOTH",
"388 103 OFFCURVE",
"361 98 OFFCURVE",
"332 98 CURVE SMOOTH",
"217 98 LINE SMOOTH",
"217 98 OFFCURVE",
"238 134 OFFCURVE",
"287 183 CURVE SMOOTH",
"315 211 OFFCURVE",
"351 246 OFFCURVE",
"401 246 CURVE SMOOTH",
"446 246 OFFCURVE",
"486 218 OFFCURVE",
"486 176 CURVE SMOOTH"
);
}
);
width = 688;
}
);
unicode = FEBC;
},
{
glyphname = uniFEBB;
layers = (
{
anchors = (
{
name = bottom;
position = "{285, -25}";
},
{
name = top;
position = "{419, 351}";
}
);
layerId = "51F41761-070F-43EA-B302-C90910850260";
name = Regular;
paths = (
{
closed = 1;
nodes = (
"548 242 OFFCURVE",
"542 271 OFFCURVE",
"512 294 CURVE SMOOTH",
"493 309 OFFCURVE",
"464 321 OFFCURVE",
"439 321 CURVE SMOOTH",
"380 321 OFFCURVE",
"308 256 OFFCURVE",
"272 218 CURVE SMOOTH",
"224 167 OFFCURVE",
"188 110 OFFCURVE",
"181 98 CURVE",
"163 100 OFFCURVE",
"149 108 OFFCURVE",
"137 122 CURVE SMOOTH",
"120 141 OFFCURVE",
"118 164 OFFCURVE",
"123 199 CURVE",
"101 187 LINE",
"98 164 OFFCURVE",
"94 149 OFFCURVE",
"82 132 CURVE SMOOTH",
"68 112 OFFCURVE",
"50 98 OFFCURVE",
"17 98 CURVE SMOOTH",
"-22 98 LINE SMOOTH",
"-49 98 OFFCURVE",
"-70 77 OFFCURVE",
"-70 48 CURVE SMOOTH",
"-70 28 OFFCURVE",
"-60 0 OFFCURVE",
"-22 0 CURVE SMOOTH",
"16 0 LINE SMOOTH",
"67 0 OFFCURVE",
"96 24 OFFCURVE",
"105 68 CURVE",
"112 44 OFFCURVE",
"127 25 OFFCURVE",
"154 17 CURVE",
"146 -17 LINE",
"174 -17 LINE",
"182 9 LINE",
"206 4 OFFCURVE",
"229 4 OFFCURVE",
"267 4 CURVE SMOOTH",
"328 4 OFFCURVE",
"402 31 OFFCURVE",
"455 72 CURVE SMOOTH",
"483 94 OFFCURVE",
"507 120 OFFCURVE",
"522 145 CURVE SMOOTH",
"539 173 OFFCURVE",
"548 205 OFFCURVE",
"548 225 CURVE SMOOTH"
);
},
{
closed = 1;
nodes = (
"477 143 OFFCURVE",
"461 130 OFFCURVE",
"428 116 CURVE SMOOTH",
"404 106 OFFCURVE",
"372 98 OFFCURVE",
"332 98 CURVE SMOOTH",
"217 98 LINE SMOOTH",
"237 126 OFFCURVE",
"265 161 OFFCURVE",
"286 183 CURVE SMOOTH",
"329 226 OFFCURVE",
"362 246 OFFCURVE",
"399 246 CURVE SMOOTH",
"437 246 OFFCURVE",
"462 224 OFFCURVE",
"476 208 CURVE SMOOTH",
"486 196 OFFCURVE",
"490 186 OFFCURVE",
"496 165 CURVE SMOOTH"
);
}
);
width = 608;
}
);
unicode = FEBB;
},
{
glyphname = uni0637;
layers = (
{
anchors = (
{
name = bottom;
position = "{287, -25}";
},
{
name = top;
position = "{460, 338}";
}
);
layerId = "51F41761-070F-43EA-B302-C90910850260";
name = Regular;
paths = (
{
closed = 1;
nodes = (
"584 230 OFFCURVE",
"579 255 OFFCURVE",
"547 280 CURVE SMOOTH",
"526 297 OFFCURVE",
"500 308 OFFCURVE",
"480 308 CURVE SMOOTH",
"425 308 OFFCURVE",
"377 279 OFFCURVE",
"309 204 CURVE SMOOTH",
"305 200 OFFCURVE",
"297 191 OFFCURVE",
"290 183 CURVE",
"290 183 OFFCURVE",
"299 217 OFFCURVE",
"296 276 CURVE SMOOTH",
"295 302 OFFCURVE",
"292 344 OFFCURVE",
"285 396 CURVE",
"282 440 OFFCURVE",
"288 462 OFFCURVE",
"312 482 CURVE",
"283 513 OFFCURVE",
"262 549 OFFCURVE",
"252 568 CURVE",
"203 492 LINE",
"207 482 OFFCURVE",
"216 457 OFFCURVE",
"226 410 CURVE SMOOTH",
"237 358 OFFCURVE",
"255 263 OFFCURVE",
"259 151 CURVE",
"247 137 OFFCURVE",
"235 122 OFFCURVE",
"216 98 CURVE",
"216 98 OFFCURVE",
"111 103 OFFCURVE",
"70 108 CURVE",
"99 58 OFFCURVE",
"128 22 OFFCURVE",
"161 -3 CURVE",
"178 -2 OFFCURVE",
"199 -1 OFFCURVE",
"236 0 CURVE SMOOTH",
"259 0 OFFCURVE",
"290 1 OFFCURVE",
"315 2 CURVE SMOOTH",
"377 4 OFFCURVE",
"444 29 OFFCURVE",
"496 68 CURVE SMOOTH",
"553 110 OFFCURVE",
"584 163 OFFCURVE",
"584 217 CURVE SMOOTH"
);
},
{
closed = 1;
nodes = (
"510 141 OFFCURVE",
"493 127 OFFCURVE",
"461 114 CURVE",
"436 105 OFFCURVE",
"406 98 OFFCURVE",
"368 98 CURVE SMOOTH",
"257 98 LINE",
"274 117 OFFCURVE",
"288 134 OFFCURVE",
"303 149 CURVE SMOOTH",
"339 186 OFFCURVE",
"392 229 OFFCURVE",
"436 229 CURVE SMOOTH",
"488 229 OFFCURVE",
"512 209 OFFCURVE",
"533 165 CURVE"
);
}
);
width = 644;
}
);
unicode = 0637;
},
{
glyphname = uniFEC2;
layers = (
{
anchors = (
{
name = bottom;
position = "{338, -26}";
},
{
name = top;
position = "{460, 338}";
}
);
layerId = "51F41761-070F-43EA-B302-C90910850260";
name = Regular;
paths = (
{
closed = 1;
nodes = (
"624 98 LINE SMOOTH",
"579 98 OFFCURVE",
"523 81 OFFCURVE",
"503 73 CURVE",
"556 114 OFFCURVE",
"584 165 OFFCURVE",
"584 217 CURVE SMOOTH",
"584 230 OFFCURVE",
"579 255 OFFCURVE",
"547 280 CURVE SMOOTH",
"526 297 OFFCURVE",
"500 308 OFFCURVE",
"480 308 CURVE SMOOTH",
"425 308 OFFCURVE",
"377 279 OFFCURVE",
"309 204 CURVE",
"305 200 OFFCURVE",
"297 191 OFFCURVE",
"290 183 CURVE",
"290 183 OFFCURVE",
"299 217 OFFCURVE",
"296 276 CURVE SMOOTH",
"295 302 OFFCURVE",
"292 344 OFFCURVE",
"285 396 CURVE",
"282 440 OFFCURVE",
"288 462 OFFCURVE",
"312 482 CURVE",
"283 513 OFFCURVE",
"262 549 OFFCURVE",
"252 568 CURVE",
"203 492 LINE",
"207 482 OFFCURVE",
"216 457 OFFCURVE",
"226 410 CURVE SMOOTH",
"237 358 OFFCURVE",
"255 263 OFFCURVE",
"259 151 CURVE",
"247 137 OFFCURVE",
"235 122 OFFCURVE",
"216 98 CURVE",
"216 98 OFFCURVE",
"111 103 OFFCURVE",
"70 108 CURVE",
"99 58 OFFCURVE",
"128 22 OFFCURVE",
"161 -3 CURVE",
"178 -2 OFFCURVE",
"199 -1 OFFCURVE",
"236 0 CURVE SMOOTH",
"261 0 OFFCURVE",
"282 1 OFFCURVE",
"288 1 CURVE",
"319 1 OFFCURVE",
"498 2 OFFCURVE",
"539 1 CURVE SMOOTH",
"567 1 OFFCURVE",
"588 0 OFFCURVE",
"618 0 CURVE SMOOTH",
"726 0 LINE",
"726 98 LINE"
);
},
{
closed = 1;
nodes = (
"510 141 OFFCURVE",
"493 127 OFFCURVE",
"461 114 CURVE",
"436 105 OFFCURVE",
"406 98 OFFCURVE",
"368 98 CURVE SMOOTH",
"257 98 LINE",
"274 117 OFFCURVE",
"288 134 OFFCURVE",
"303 149 CURVE SMOOTH",
"339 186 OFFCURVE",
"392 229 OFFCURVE",
"436 229 CURVE SMOOTH",
"488 229 OFFCURVE",
"512 209 OFFCURVE",
"533 165 CURVE"
);
}
);
width = 726;
}
);
unicode = FEC2;
},
{
glyphname = uniFEC4;
layers = (
{
anchors = (
{
name = bottom;
position = "{159, -25}";
},
{
name = top;
position = "{281, 338}";
}
);
layerId = "51F41761-070F-43EA-B302-C90910850260";
name = Regular;
paths = (
{
closed = 1;
nodes = (
"400 98 OFFCURVE",
"344 81 OFFCURVE",
"324 73 CURVE",
"377 114 OFFCURVE",
"405 165 OFFCURVE",
"405 217 CURVE SMOOTH",
"405 230 OFFCURVE",
"400 255 OFFCURVE",
"368 280 CURVE SMOOTH",
"347 297 OFFCURVE",
"321 308 OFFCURVE",
"301 308 CURVE SMOOTH",
"246 308 OFFCURVE",
"198 279 OFFCURVE",
"130 204 CURVE",
"126 200 OFFCURVE",
"118 191 OFFCURVE",
"111 183 CURVE",
"111 183 OFFCURVE",
"120 217 OFFCURVE",
"117 276 CURVE SMOOTH",
"116 302 OFFCURVE",
"113 344 OFFCURVE",
"106 396 CURVE",
"103 440 OFFCURVE",
"109 462 OFFCURVE",
"133 482 CURVE",
"104 513 OFFCURVE",
"83 549 OFFCURVE",
"73 568 CURVE",
"24 492 LINE",
"28 482 OFFCURVE",
"37 457 OFFCURVE",
"47 410 CURVE SMOOTH",
"58 358 OFFCURVE",
"76 263 OFFCURVE",
"80 151 CURVE",
"68 137 OFFCURVE",
"56 122 OFFCURVE",
"37 98 CURVE",
"-22 98 LINE SMOOTH",
"-51 98 OFFCURVE",
"-70 77 OFFCURVE",
"-70 49 CURVE SMOOTH",
"-70 23 OFFCURVE",
"-48 0 OFFCURVE",
"-22 0 CURVE SMOOTH",
"15 0 LINE SMOOTH",
"18 0 OFFCURVE",
"103 1 OFFCURVE",
"109 1 CURVE SMOOTH",
"140 1 OFFCURVE",
"319 2 OFFCURVE",
"360 1 CURVE SMOOTH",
"388 1 OFFCURVE",
"409 0 OFFCURVE",
"439 0 CURVE SMOOTH",
"550 0 LINE",
"550 98 LINE",
"445 98 LINE SMOOTH"
);
},
{
closed = 1;
nodes = (
"257 105 OFFCURVE",
"227 98 OFFCURVE",
"189 98 CURVE SMOOTH",
"78 98 LINE",
"95 117 OFFCURVE",
"109 134 OFFCURVE",
"124 149 CURVE SMOOTH",
"160 186 OFFCURVE",
"213 229 OFFCURVE",
"257 229 CURVE SMOOTH",
"309 229 OFFCURVE",
"333 209 OFFCURVE",
"354 165 CURVE",
"331 141 OFFCURVE",
"314 127 OFFCURVE",
"282 114 CURVE"
);
}
);
width = 550;
}
);
unicode = FEC4;
},
{
glyphname = uniFEC3;
layers = (
{
anchors = (
{
name = bottom;
position = "{116, -25}";
},
{
name = top;
position = "{281, 338}";
}
);
layerId = "51F41761-070F-43EA-B302-C90910850260";
name = Regular;
paths = (
{
closed = 1;
nodes = (
"405 230 OFFCURVE",
"400 255 OFFCURVE",
"368 280 CURVE SMOOTH",
"347 297 OFFCURVE",
"321 308 OFFCURVE",
"301 308 CURVE SMOOTH",
"246 308 OFFCURVE",
"198 279 OFFCURVE",
"130 204 CURVE SMOOTH",
"128 202 OFFCURVE",
"113 185 OFFCURVE",
"111 183 CURVE",
"111 183 OFFCURVE",
"120 217 OFFCURVE",
"117 276 CURVE SMOOTH",
"116 302 OFFCURVE",
"113 344 OFFCURVE",
"106 396 CURVE SMOOTH",
"103 440 OFFCURVE",
"109 462 OFFCURVE",
"133 482 CURVE",
"104 513 OFFCURVE",
"83 549 OFFCURVE",
"73 568 CURVE",
"24 492 LINE",
"28 482 OFFCURVE",
"37 457 OFFCURVE",
"47 410 CURVE SMOOTH",
"58 358 OFFCURVE",
"76 263 OFFCURVE",
"80 151 CURVE",
"68 137 OFFCURVE",
"56 122 OFFCURVE",
"37 98 CURVE",
"-22 98 LINE SMOOTH",
"-49 98 OFFCURVE",
"-70 77 OFFCURVE",
"-70 49 CURVE SMOOTH",
"-70 22 OFFCURVE",
"-50 0 OFFCURVE",
"-22 0 CURVE SMOOTH",
"57 0 LINE SMOOTH",
"80 0 OFFCURVE",
"111 1 OFFCURVE",
"136 2 CURVE SMOOTH",
"198 4 OFFCURVE",
"265 29 OFFCURVE",
"317 68 CURVE SMOOTH",
"374 110 OFFCURVE",
"405 163 OFFCURVE",
"405 217 CURVE SMOOTH"
);
},
{
closed = 1;
nodes = (
"331 141 OFFCURVE",
"314 127 OFFCURVE",
"282 114 CURVE SMOOTH",
"257 105 OFFCURVE",
"227 98 OFFCURVE",
"189 98 CURVE SMOOTH",
"78 98 LINE SMOOTH",
"95 117 OFFCURVE",
"109 134 OFFCURVE",
"124 149 CURVE SMOOTH",
"160 186 OFFCURVE",
"213 229 OFFCURVE",
"257 229 CURVE SMOOTH",
"309 229 OFFCURVE",
"333 209 OFFCURVE",
"354 165 CURVE SMOOTH"
);
}
);
width = 465;
}
);
unicode = FEC3;
},
{
glyphname = uni0639;
layers = (
{
anchors = (
{
name = bottom;
position = "{290, -369}";
},
{
name = center;
position = "{293, -48}";
},
{
name = top;
position = "{243, 406}";
}
);
layerId = "51F41761-070F-43EA-B302-C90910850260";
name = Regular;
paths = (
{
closed = 1;
nodes = (
"374 220 OFFCURVE",
"297 194 OFFCURVE",
"255 178 CURVE",
"215 190 OFFCURVE",
"173 214 OFFCURVE",
"155 258 CURVE",
"178 283 OFFCURVE",
"199 299 OFFCURVE",
"243 310 CURVE SMOOTH",
"293 322 OFFCURVE",
"329 315 OFFCURVE",
"343 312 CURVE",
"358 334 LINE",
"321 364 OFFCURVE",
"273 376 OFFCURVE",
"243 376 CURVE SMOOTH",
"205 376 OFFCURVE",
"164 344 OFFCURVE",
"142 312 CURVE SMOOTH",
"119 279 OFFCURVE",
"110 244 OFFCURVE",
"116 214 CURVE SMOOTH",
"123 180 OFFCURVE",
"158 149 OFFCURVE",
"187 134 CURVE",
"142 90 OFFCURVE",
"84 5 OFFCURVE",
"72 -98 CURVE SMOOTH",
"64 -168 OFFCURVE",
"87 -226 OFFCURVE",
"126 -269 CURVE SMOOTH",
"166 -313 OFFCURVE",
"222 -339 OFFCURVE",
"290 -339 CURVE SMOOTH",
"336 -339 OFFCURVE",
"360 -327 OFFCURVE",
"385 -313 CURVE SMOOTH",
"409 -300 OFFCURVE",
"435 -287 OFFCURVE",
"480 -285 CURVE",
"485 -270 LINE",
"449 -265 OFFCURVE",
"440 -265 OFFCURVE",
"403 -262 CURVE SMOOTH",
"362 -259 OFFCURVE",
"328 -254 OFFCURVE",
"315 -252 CURVE SMOOTH",
"251 -242 OFFCURVE",
"201 -218 OFFCURVE",
"169 -181 CURVE SMOOTH",
"151 -160 OFFCURVE",
"130 -127 OFFCURVE",
"130 -60 CURVE SMOOTH",
"130 -10 OFFCURVE",
"155 54 OFFCURVE",
"238 107 CURVE SMOOTH",
"277 131 OFFCURVE",
"329 153 OFFCURVE",
"397 170 CURVE",
"403 190 OFFCURVE",
"409 210 OFFCURVE",
"415 233 CURVE"
);
}
);
width = 515;
}
);
unicode = 0639;
},
{
glyphname = uniFECA;
layers = (
{
anchors = (
{
name = bottom;
position = "{289, -366}";
},
{
name = center;
position = "{265, -88}";
},
{
name = top;
position = "{287, 293}";
}
);
layerId = "51F41761-070F-43EA-B302-C90910850260";
name = Regular;
paths = (
{
closed = 1;
nodes = (
"390 98 LINE SMOOTH",
"374 98 OFFCURVE",
"353 105 OFFCURVE",
"334 118 CURVE",
"371 145 OFFCURVE",
"400 170 OFFCURVE",
"400 202 CURVE SMOOTH",
"400 247 OFFCURVE",
"342 263 OFFCURVE",
"287 263 CURVE SMOOTH",
"242 263 OFFCURVE",
"202 242 OFFCURVE",
"192 237 CURVE",
"184 216 OFFCURVE",
"178 191 OFFCURVE",
"174 165 CURVE",
"200 160 OFFCURVE",
"221 147 OFFCURVE",
"238 131 CURVE",
"223 123 OFFCURVE",
"210 115 OFFCURVE",
"197 106 CURVE SMOOTH",
"167 87 OFFCURVE",
"144 65 OFFCURVE",
"124 38 CURVE SMOOTH",
"94 -3 OFFCURVE",
"74 -53 OFFCURVE",
"71 -112 CURVE SMOOTH",
"68 -174 OFFCURVE",
"87 -228 OFFCURVE",
"121 -267 CURVE SMOOTH",
"160 -310 OFFCURVE",
"218 -336 OFFCURVE",
"289 -336 CURVE SMOOTH",
"335 -336 OFFCURVE",
"359 -325 OFFCURVE",
"384 -312 CURVE SMOOTH",
"408 -300 OFFCURVE",
"434 -283 OFFCURVE",
"479 -281 CURVE",
"484 -265 LINE",
"448 -260 OFFCURVE",
"439 -260 OFFCURVE",
"402 -257 CURVE SMOOTH",
"361 -255 OFFCURVE",
"327 -251 OFFCURVE",
"314 -249 CURVE SMOOTH",
"248 -239 OFFCURVE",
"198 -220 OFFCURVE",
"166 -188 CURVE SMOOTH",
"138 -159 OFFCURVE",
"124 -127 OFFCURVE",
"128 -76 CURVE SMOOTH",
"131 -38 OFFCURVE",
"146 -5 OFFCURVE",
"169 23 CURVE SMOOTH",
"194 53 OFFCURVE",
"229 77 OFFCURVE",
"270 94 CURVE",
"289 69 OFFCURVE",
"307 43 OFFCURVE",
"329 26 CURVE SMOOTH",
"351 8 OFFCURVE",
"379 0 OFFCURVE",
"409 0 CURVE SMOOTH",
"519 0 LINE",
"519 98 LINE"
);
}
);
width = 519;
}
);
unicode = FECA;
},
{
glyphname = uniFECC;
layers = (
{
anchors = (
{
name = bottom;
position = "{160, -27}";
},
{
name = top;
position = "{179, 293}";
}
);
layerId = "51F41761-070F-43EA-B302-C90910850260";
name = Regular;
paths = (
{
closed = 1;
nodes = (
"282 98 LINE SMOOTH",
"257 98 OFFCURVE",
"243 104 OFFCURVE",
"226 118 CURVE SMOOTH",
"226 118 OFFCURVE",
"293 159 OFFCURVE",
"293 202 CURVE SMOOTH",
"293 247 OFFCURVE",
"234 263 OFFCURVE",
"179 263 CURVE SMOOTH",
"134 263 OFFCURVE",
"94 242 OFFCURVE",
"84 237 CURVE",
"76 216 OFFCURVE",
"70 191 OFFCURVE",
"67 165 CURVE",
"102 159 OFFCURVE",
"117 146 OFFCURVE",
"138 121 CURVE",
"115 106 OFFCURVE",
"97 98 OFFCURVE",
"66 98 CURVE SMOOTH",
"-22 98 LINE SMOOTH",
"-54 98 OFFCURVE",
"-70 66 OFFCURVE",
"-70 49 CURVE SMOOTH",
"-70 22 OFFCURVE",
"-48 0 OFFCURVE",
"-22 0 CURVE SMOOTH",
"28 0 LINE SMOOTH",
"62 0 OFFCURVE",
"89 7 OFFCURVE",
"113 20 CURVE SMOOTH",
"133 30 OFFCURVE",
"154 48 OFFCURVE",
"181 73 CURVE SMOOTH",
"191 53 OFFCURVE",
"200 40 OFFCURVE",
"221 26 CURVE SMOOTH",
"245 9 OFFCURVE",
"271 0 OFFCURVE",
"301 0 CURVE SMOOTH",
"415 0 LINE",
"415 98 LINE"
);
}
);
width = 415;
}
);
unicode = FECC;
},
{
glyphname = uniFECB;
layers = (
{
anchors = (
{
name = bottom;
position = "{124, -25}";
},
{
name = top;
position = "{171, 352}";
}
);
layerId = "51F41761-070F-43EA-B302-C90910850260";
name = Regular;
paths = (
{
closed = 1;
nodes = (
"311 133 OFFCURVE",
"293 127 OFFCURVE",
"272 121 CURVE",
"208 100 OFFCURVE",
"162 99 OFFCURVE",
"162 99 CURVE",
"114 119 OFFCURVE",
"76 181 OFFCURVE",
"69 222 CURVE",
"98 245 OFFCURVE",
"132 256 OFFCURVE",
"180 256 CURVE SMOOTH",
"222 256 OFFCURVE",
"255 244 OFFCURVE",
"267 239 CURVE",
"287 257 LINE",
"282 265 OFFCURVE",
"227 322 OFFCURVE",
"171 322 CURVE SMOOTH",
"137 322 OFFCURVE",
"96 300 OFFCURVE",
"70 276 CURVE SMOOTH",
"40 249 OFFCURVE",
"17 208 OFFCURVE",
"17 170 CURVE SMOOTH",
"17 143 OFFCURVE",
"32 113 OFFCURVE",
"54 98 CURVE",
"-20 98 LINE SMOOTH",
"-50 98 OFFCURVE",
"-70 77 OFFCURVE",
"-70 50 CURVE SMOOTH",
"-70 22 OFFCURVE",
"-48 0 OFFCURVE",
"-20 0 CURVE SMOOTH",
"63 0 LINE SMOOTH",
"154 0 OFFCURVE",
"217 26 OFFCURVE",
"261 43 CURVE SMOOTH",
"275 48 OFFCURVE",
"264 45 OFFCURVE",
"292 55 CURVE",
"307 85 OFFCURVE",
"314 105 OFFCURVE",
"324 137 CURVE"
);
}
);
width = 384;
}
);
unicode = FECB;
},
{
glyphname = uni06A1;
layers = (
{
anchors = (
{
name = bottom;
position = "{397, -36}";
},
{
name = center;
position = "{615, -97}";
},
{
name = top;
position = "{657, 454}";
}
);
layerId = "51F41761-070F-43EA-B302-C90910850260";
name = Regular;
paths = (
{
closed = 1;
nodes = (
"618 424 OFFCURVE",
"594 391 OFFCURVE",
"583 371 CURVE SMOOTH",
"567 342 OFFCURVE",
"556 303 OFFCURVE",
"556 269 CURVE SMOOTH",
"556 239 OFFCURVE",
"565 214 OFFCURVE",
"583 198 CURVE SMOOTH",
"595 187 OFFCURVE",
"613 177 OFFCURVE",
"648 177 CURVE SMOOTH",
"664 177 OFFCURVE",
"700 179 OFFCURVE",
"725 203 CURVE",
"728 179 OFFCURVE",
"718 155 OFFCURVE",
"704 138 CURVE SMOOTH",
"681 109 OFFCURVE",
"645 91 OFFCURVE",
"569 91 CURVE SMOOTH",
"546 91 OFFCURVE",
"476 90 OFFCURVE",
"407 90 CURVE",
"338 90 OFFCURVE",
"278 90 OFFCURVE",
"229 97 CURVE SMOOTH",
"169 106 OFFCURVE",
"133 129 OFFCURVE",
"113 160 CURVE SMOOTH",
"103 176 OFFCURVE",
"96 196 OFFCURVE",
"92 220 CURVE",
"73 227 LINE SMOOTH",
"68 184 OFFCURVE",
"69 147 OFFCURVE",
"77 116 CURVE SMOOTH",
"94 55 OFFCURVE",
"142 18 OFFCURVE",
"232 3 CURVE SMOOTH",
"268 -3 OFFCURVE",
"299 -6 OFFCURVE",
"397 -6 CURVE SMOOTH",
"552 -6 OFFCURVE",
"631 -4 OFFCURVE",
"687 39 CURVE SMOOTH",
"720 64 OFFCURVE",
"737 98 OFFCURVE",
"748 137 CURVE SMOOTH",
"760 178 OFFCURVE",
"764 226 OFFCURVE",
"760 269 CURVE SMOOTH",
"753 345 OFFCURVE",
"718 424 OFFCURVE",
"657 424 CURVE SMOOTH"
);
},
{
closed = 1;
nodes = (
"704 268 OFFCURVE",
"684 251 OFFCURVE",
"648 251 CURVE SMOOTH",
"593 251 OFFCURVE",
"588 291 OFFCURVE",
"588 301 CURVE SMOOTH",
"588 317 OFFCURVE",
"600 357 OFFCURVE",
"642 357 CURVE SMOOTH",
"679 357 OFFCURVE",
"701 325 OFFCURVE",
"711 276 CURVE"
);
}
);
width = 822;
}
);
unicode = 06A1;
},
{
glyphname = uni06A1.fina;
layers = (
{
anchors = (
{
name = bottom;
position = "{411, -37}";
},
{
name = center;
position = "{687, -97}";
},
{
name = top;
position = "{729, 352}";
}
);
layerId = "51F41761-070F-43EA-B302-C90910850260";
name = Regular;
paths = (
{
closed = 1;
nodes = (
"815 98 LINE",
"807 98 OFFCURVE",
"798 98 OFFCURVE",
"790 98 CURVE",
"790 98 OFFCURVE",
"813 141 OFFCURVE",
"813 198 CURVE SMOOTH",
"813 231 OFFCURVE",
"805 264 OFFCURVE",
"789 287 CURVE SMOOTH",
"776 306 OFFCURVE",
"754 322 OFFCURVE",
"729 322 CURVE SMOOTH",
"702 322 OFFCURVE",
"671 303 OFFCURVE",
"646 269 CURVE SMOOTH",
"623 238 OFFCURVE",
"607 195 OFFCURVE",
"607 164 CURVE SMOOTH",
"607 132 OFFCURVE",
"624 109 OFFCURVE",
"624 109 CURVE SMOOTH",
"624 109 OFFCURVE",
"567 94 OFFCURVE",
"410 94 CURVE SMOOTH",
"352 94 OFFCURVE",
"295 96 OFFCURVE",
"250 103 CURVE SMOOTH",
"202 110 OFFCURVE",
"163 121 OFFCURVE",
"136 140 CURVE SMOOTH",
"109 159 OFFCURVE",
"95 183 OFFCURVE",
"91 222 CURVE",
"73 229 LINE",
"73 227 OFFCURVE",
"68 191 OFFCURVE",
"71 154 CURVE SMOOTH",
"79 60 OFFCURVE",
"131 23 OFFCURVE",
"232 5 CURVE SMOOTH",
"280 -3 OFFCURVE",
"332 -7 OFFCURVE",
"395 -7 CURVE SMOOTH",
"485 -7 OFFCURVE",
"568 1 OFFCURVE",
"614 9 CURVE SMOOTH",
"694 23 OFFCURVE",
"730 37 OFFCURVE",
"752 50 CURVE",
"757 32 OFFCURVE",
"779 0 OFFCURVE",
"840 0 CURVE SMOOTH",
"946 0 LINE",
"946 98 LINE"
);
},
{
closed = 1;
nodes = (
"778 156 OFFCURVE",
"755 117 OFFCURVE",
"714 117 CURVE SMOOTH",
"666 117 OFFCURVE",
"642 169 OFFCURVE",
"642 169 CURVE SMOOTH",
"642 169 OFFCURVE",
"668 242 OFFCURVE",
"713 242 CURVE SMOOTH",
"751 242 OFFCURVE",
"778 187 OFFCURVE",
"778 171 CURVE SMOOTH"
);
}
);
width = 946;
}
);
},
{
glyphname = uni06A1.medi;
layers = (
{
anchors = (
{
name = bottom;
position = "{129, -25}";
},
{
name = top;
position = "{181, 338}";
}
);
layerId = "51F41761-070F-43EA-B302-C90910850260";
name = Regular;
paths = (
{
closed = 1;
nodes = (
"155 308 OFFCURVE",
"128 290 OFFCURVE",
"105 259 CURVE SMOOTH",
"84 231 OFFCURVE",
"67 193 OFFCURVE",
"67 158 CURVE SMOOTH",
"67 120 OFFCURVE",
"87 98 OFFCURVE",
"87 98 CURVE SMOOTH",
"-21 98 LINE SMOOTH",
"-47 98 OFFCURVE",
"-70 76 OFFCURVE",
"-70 48 CURVE SMOOTH",
"-70 24 OFFCURVE",
"-53 0 OFFCURVE",
"-21 0 CURVE SMOOTH",
"98 0 LINE SMOOTH",
"174 0 OFFCURVE",
"212 19 OFFCURVE",
"227 45 CURVE",
"232 34 OFFCURVE",
"251 0 OFFCURVE",
"321 0 CURVE SMOOTH",
"402 0 LINE",
"402 98 LINE",
"244 98 LINE SMOOTH",
"244 98 OFFCURVE",
"262 131 OFFCURVE",
"262 185 CURVE SMOOTH",
"262 267 OFFCURVE",
"220 308 OFFCURVE",
"181 308 CURVE SMOOTH"
);
},
{
closed = 1;
nodes = (
"229 155 OFFCURVE",
"206 110 OFFCURVE",
"164 110 CURVE SMOOTH",
"116 110 OFFCURVE",
"99 170 OFFCURVE",
"99 170 CURVE SMOOTH",
"99 170 OFFCURVE",
"129 228 OFFCURVE",
"163 228 CURVE SMOOTH",
"189 228 OFFCURVE",
"229 192 OFFCURVE",
"229 171 CURVE SMOOTH"
);
}
);
width = 402;
}
);
},
{
glyphname = uni06A1.init;
layers = (
{
anchors = (
{
name = bottom;
position = "{63, -25}";
},
{
name = top;
position = "{126, 454}";
}
);
layerId = "51F41761-070F-43EA-B302-C90910850260";
name = Regular;
paths = (
{
closed = 1;
nodes = (
"87 424 OFFCURVE",
"63 391 OFFCURVE",
"52 371 CURVE SMOOTH",
"36 342 OFFCURVE",
"25 303 OFFCURVE",
"25 269 CURVE SMOOTH",
"25 239 OFFCURVE",
"34 214 OFFCURVE",
"52 198 CURVE SMOOTH",
"64 187 OFFCURVE",
"82 177 OFFCURVE",
"117 177 CURVE SMOOTH",
"133 177 OFFCURVE",
"169 179 OFFCURVE",
"194 203 CURVE",
"197 179 OFFCURVE",
"186 153 OFFCURVE",
"173 138 CURVE SMOOTH",
"155 116 OFFCURVE",
"120 98 OFFCURVE",
"57 98 CURVE SMOOTH",
"33 98 OFFCURVE",
"-21 98 OFFCURVE",
"-21 98 CURVE SMOOTH",
"-48 98 OFFCURVE",
"-70 77 OFFCURVE",
"-70 50 CURVE SMOOTH",
"-70 22 OFFCURVE",
"-48 0 OFFCURVE",
"-21 0 CURVE SMOOTH",
"18 0 LINE SMOOTH",
"63 0 OFFCURVE",
"115 4 OFFCURVE",
"157 38 CURVE SMOOTH",
"185 61 OFFCURVE",
"205 96 OFFCURVE",
"217 137 CURVE SMOOTH",
"229 178 OFFCURVE",
"233 226 OFFCURVE",
"229 269 CURVE SMOOTH",
"222 345 OFFCURVE",
"187 424 OFFCURVE",
"126 424 CURVE SMOOTH"
);
},
{
closed = 1;
nodes = (
"173 268 OFFCURVE",
"153 251 OFFCURVE",
"117 251 CURVE SMOOTH",
"62 251 OFFCURVE",
"57 291 OFFCURVE",
"57 301 CURVE SMOOTH",
"57 317 OFFCURVE",
"69 357 OFFCURVE",
"111 357 CURVE SMOOTH",
"148 357 OFFCURVE",
"170 325 OFFCURVE",
"180 276 CURVE"
);
}
);
width = 291;
}
);
},
{
glyphname = uni066F;
layers = (
{
anchors = (
{
name = bottom;
position = "{277, -228}";
},
{
name = top;
position = "{399, 363}";
}
);
layerId = "51F41761-070F-43EA-B302-C90910850260";
name = Regular;
paths = (
{
closed = 1;
nodes = (
"384 333 OFFCURVE",
"354 326 OFFCURVE",
"328 280 CURVE SMOOTH",
"313 253 OFFCURVE",
"301 214 OFFCURVE",
"301 178 CURVE SMOOTH",
"301 148 OFFCURVE",
"309 123 OFFCURVE",
"327 107 CURVE SMOOTH",
"342 93 OFFCURVE",
"365 86 OFFCURVE",
"395 86 CURVE SMOOTH",
"443 86 OFFCURVE",
"469 104 OFFCURVE",
"469 104 CURVE",
"479 58 LINE",
"479 58 OFFCURVE",
"469 12 OFFCURVE",
"431 -27 CURVE SMOOTH",
"399 -60 OFFCURVE",
"349 -85 OFFCURVE",
"280 -85 CURVE SMOOTH",
"221 -85 OFFCURVE",
"162 -67 OFFCURVE",
"132 -29 CURVE SMOOTH",
"106 4 OFFCURVE",
"108 44 OFFCURVE",
"119 102 CURVE",
"100 109 LINE",
"85 72 OFFCURVE",
"74 33 OFFCURVE",
"71 -4 CURVE SMOOTH",
"69 -32 OFFCURVE",
"70 -60 OFFCURVE",
"83 -92 CURVE SMOOTH",
"97 -127 OFFCURVE",
"121 -153 OFFCURVE",
"155 -171 CURVE SMOOTH",
"188 -189 OFFCURVE",
"230 -198 OFFCURVE",
"277 -198 CURVE SMOOTH",
"322 -198 OFFCURVE",
"356 -190 OFFCURVE",
"387 -175 CURVE SMOOTH",
"415 -161 OFFCURVE",
"440 -141 OFFCURVE",
"460 -115 CURVE SMOOTH",
"479 -90 OFFCURVE",
"494 -60 OFFCURVE",
"504 -24 CURVE SMOOTH",
"513 9 OFFCURVE",
"518 45 OFFCURVE",
"518 80 CURVE SMOOTH",
"518 124 OFFCURVE",
"510 185 OFFCURVE",
"487 243 CURVE SMOOTH",
"475 272 OFFCURVE",
"466 289 OFFCURVE",
"448 308 CURVE SMOOTH",
"433 324 OFFCURVE",
"417 333 OFFCURVE",
"399 333 CURVE SMOOTH"
);
},
{
closed = 1;
nodes = (
"444 266 OFFCURVE",
"456 186 OFFCURVE",
"456 186 CURVE SMOOTH",
"456 186 OFFCURVE",
"439 160 OFFCURVE",
"396 160 CURVE SMOOTH",
"370 160 OFFCURVE",
"333 170 OFFCURVE",
"333 210 CURVE SMOOTH",
"333 243 OFFCURVE",
"358 266 OFFCURVE",
"388 266 CURVE SMOOTH"
);
}
);
width = 578;
}
);
unicode = 066F;
},
{
glyphname = uni066F.fina;
layers = (
{
anchors = (
{
name = bottom;
position = "{279, -293}";
},
{
name = top;
position = "{419, 297}";
}
);
layerId = "51F41761-070F-43EA-B302-C90910850260";
name = Regular;
paths = (
{
closed = 1;
nodes = (
"378 267 OFFCURVE",
"350 234 OFFCURVE",
"335 194 CURVE SMOOTH",
"325 170 OFFCURVE",
"320 136 OFFCURVE",
"320 112 CURVE SMOOTH",
"320 69 OFFCURVE",
"333 40 OFFCURVE",
"353 22 CURVE SMOOTH",
"369 8 OFFCURVE",
"390 0 OFFCURVE",
"433 0 CURVE SMOOTH",
"474 0 LINE",
"474 0 OFFCURVE",
"479 -52 OFFCURVE",
"431 -100 CURVE SMOOTH",
"397 -134 OFFCURVE",
"353 -150 OFFCURVE",
"287 -150 CURVE SMOOTH",
"216 -150 OFFCURVE",
"162 -132 OFFCURVE",
"133 -93 CURVE SMOOTH",
"108 -60 OFFCURVE",
"110 -21 OFFCURVE",
"121 37 CURVE",
"102 44 LINE",
"86 3 OFFCURVE",
"76 -33 OFFCURVE",
"73 -67 CURVE SMOOTH",
"71 -94 OFFCURVE",
"72 -123 OFFCURVE",
"85 -155 CURVE SMOOTH",
"100 -192 OFFCURVE",
"126 -217 OFFCURVE",
"157 -234 CURVE SMOOTH",
"190 -252 OFFCURVE",
"232 -263 OFFCURVE",
"279 -263 CURVE SMOOTH",
"320 -263 OFFCURVE",
"357 -255 OFFCURVE",
"389 -239 CURVE SMOOTH",
"417 -225 OFFCURVE",
"442 -204 OFFCURVE",
"461 -179 CURVE SMOOTH",
"523 -97 OFFCURVE",
"519 0 OFFCURVE",
"519 0 CURVE",
"642 0 LINE",
"642 98 LINE",
"519 98 LINE SMOOTH",
"519 98 OFFCURVE",
"516 170 OFFCURVE",
"487 221 CURVE SMOOTH",
"467 256 OFFCURVE",
"442 267 OFFCURVE",
"419 267 CURVE SMOOTH"
);
},
{
closed = 1;
nodes = (
"461 200 OFFCURVE",
"466 98 OFFCURVE",
"466 98 CURVE SMOOTH",
"413 98 LINE SMOOTH",
"390 98 OFFCURVE",
"354 102 OFFCURVE",
"354 145 CURVE SMOOTH",
"354 172 OFFCURVE",
"378 200 OFFCURVE",
"405 200 CURVE SMOOTH"
);
}
);
width = 642;
}
);
},
{
glyphname = uni0643;
layers = (
{
anchors = (
{
name = bottom;
position = "{397, -36}";
},
{
name = top;
position = "{396, 347}";
}
);
layerId = "51F41761-070F-43EA-B302-C90910850260";
name = Regular;
paths = (
{
closed = 1;
nodes = (
"671 512 OFFCURVE",
"651 537 OFFCURVE",
"639 566 CURVE",
"581 490 LINE",
"597 450 OFFCURVE",
"616 369 OFFCURVE",
"626 320 CURVE SMOOTH",
"636 271 OFFCURVE",
"646 206 OFFCURVE",
"652 152 CURVE",
"623 111 OFFCURVE",
"616 102 OFFCURVE",
"554 97 CURVE SMOOTH",
"514 94 OFFCURVE",
"452 92 OFFCURVE",
"402 92 CURVE SMOOTH",
"340 92 OFFCURVE",
"276 95 OFFCURVE",
"229 102 CURVE SMOOTH",
"175 110 OFFCURVE",
"136 123 OFFCURVE",
"113 159 CURVE SMOOTH",
"104 173 OFFCURVE",
"96 194 OFFCURVE",
"92 219 CURVE",
"73 226 LINE",
"68 183 OFFCURVE",
"69 145 OFFCURVE",
"77 115 CURVE SMOOTH",
"84 90 OFFCURVE",
"95 69 OFFCURVE",
"119 49 CURVE SMOOTH",
"143 29 OFFCURVE",
"182 9 OFFCURVE",
"231 2 CURVE SMOOTH",
"268 -3 OFFCURVE",
"330 -6 OFFCURVE",
"411 -6 CURVE SMOOTH",
"505 -6 OFFCURVE",
"568 -2 OFFCURVE",
"597 4 CURVE SMOOTH",
"624 10 OFFCURVE",
"651 25 OFFCURVE",
"671 54 CURVE SMOOTH",
"689 80 OFFCURVE",
"699 115 OFFCURVE",
"702 157 CURVE",
"700 205 OFFCURVE",
"699 213 OFFCURVE",
"683 322 CURVE SMOOTH",
"676 369 OFFCURVE",
"675 381 OFFCURVE",
"673 397 CURVE",
"670 439 OFFCURVE",
"676 461 OFFCURVE",
"699 481 CURVE"
);
},
{
closed = 1;
nodes = (
"457 240 OFFCURVE",
"442 241 OFFCURVE",
"410 241 CURVE SMOOTH",
"384 241 OFFCURVE",
"360 246 OFFCURVE",
"360 265 CURVE",
"377 279 OFFCURVE",
"399 289 OFFCURVE",
"424 297 CURVE",
"432 307 OFFCURVE",
"438 316 OFFCURVE",
"443 327 CURVE",
"430 324 OFFCURVE",
"406 316 OFFCURVE",
"384 304 CURVE SMOOTH",
"352 287 OFFCURVE",
"336 267 OFFCURVE",
"336 243 CURVE SMOOTH",
"336 228 OFFCURVE",
"349 216 OFFCURVE",
"384 214 CURVE SMOOTH",
"412 212 OFFCURVE",
"423 210 OFFCURVE",
"423 203 CURVE SMOOTH",
"423 183 OFFCURVE",
"346 163 OFFCURVE",
"300 149 CURVE",
"330 147 OFFCURVE",
"362 148 OFFCURVE",
"396 152 CURVE",
"440 178 OFFCURVE",
"457 197 OFFCURVE",
"457 219 CURVE SMOOTH"
);
}
);
width = 762;
}
);
unicode = 0643;
},
{
glyphname = uniFEDA;
layers = (
{
anchors = (
{
name = bottom;
position = "{395, -35}";
},
{
name = top;
position = "{390, 347}";
}
);
layerId = "51F41761-070F-43EA-B302-C90910850260";
name = Regular;
paths = (
{
closed = 1;
nodes = (
"782 98 LINE SMOOTH",
"755 98 OFFCURVE",
"734 107 OFFCURVE",
"719 125 CURVE",
"708 139 OFFCURVE",
"702 162 OFFCURVE",
"700 178 CURVE SMOOTH",
"682 325 OFFCURVE",
"672 430 OFFCURVE",
"659 568 CURVE",
"636 547 OFFCURVE",
"619 529 OFFCURVE",
"598 497 CURVE",
"622 360 OFFCURVE",
"632 272 OFFCURVE",
"643 188 CURVE",
"644 176 LINE SMOOTH",
"646 157 OFFCURVE",
"641 138 OFFCURVE",
"627 122 CURVE SMOOTH",
"613 106 OFFCURVE",
"591 95 OFFCURVE",
"563 95 CURVE SMOOTH",
"407 93 LINE SMOOTH",
"341 92 OFFCURVE",
"274 94 OFFCURVE",
"229 101 CURVE SMOOTH",
"174 109 OFFCURVE",
"133 128 OFFCURVE",
"113 159 CURVE SMOOTH",
"104 173 OFFCURVE",
"96 194 OFFCURVE",
"92 219 CURVE",
"73 226 LINE",
"68 183 OFFCURVE",
"69 145 OFFCURVE",
"77 115 CURVE SMOOTH",
"83 92 OFFCURVE",
"95 69 OFFCURVE",
"119 49 CURVE SMOOTH",
"138 33 OFFCURVE",
"173 12 OFFCURVE",
"231 2 CURVE SMOOTH",
"266 -4 OFFCURVE",
"305 -6 OFFCURVE",
"358 -6 CURVE SMOOTH",
"395 -6 OFFCURVE",
"534 -5 OFFCURVE",
"586 -4 CURVE",
"648 -2 OFFCURVE",
"689 26 OFFCURVE",
"692 82 CURVE",
"703 26 OFFCURVE",
"738 0 OFFCURVE",
"795 0 CURVE SMOOTH",
"833 0 LINE",
"833 98 LINE"
);
},
{
closed = 1;
nodes = (
"457 240 OFFCURVE",
"442 241 OFFCURVE",
"410 241 CURVE SMOOTH",
"384 241 OFFCURVE",
"360 246 OFFCURVE",
"360 265 CURVE",
"377 279 OFFCURVE",
"399 289 OFFCURVE",
"424 297 CURVE",
"432 307 OFFCURVE",
"438 316 OFFCURVE",
"443 327 CURVE",
"430 324 OFFCURVE",
"406 316 OFFCURVE",
"384 304 CURVE SMOOTH",
"352 287 OFFCURVE",
"336 267 OFFCURVE",
"336 243 CURVE SMOOTH",
"336 228 OFFCURVE",
"349 216 OFFCURVE",
"384 214 CURVE SMOOTH",
"412 212 OFFCURVE",
"423 210 OFFCURVE",
"423 203 CURVE SMOOTH",
"423 183 OFFCURVE",
"346 163 OFFCURVE",
"300 149 CURVE",
"330 147 OFFCURVE",
"362 148 OFFCURVE",
"396 152 CURVE",
"440 178 OFFCURVE",
"457 197 OFFCURVE",
"457 219 CURVE SMOOTH"
);
}
);
width = 833;
}
);
unicode = FEDA;
},
{
glyphname = uniFEDC;
layers = (
{
anchors = (
{
name = bottom;
position = "{82, -34}";
},
{
name = top;
position = "{107, 530}";
}
);
layerId = "51F41761-070F-43EA-B302-C90910850260";
name = Regular;
paths = (
{
closed = 1;
nodes = (
"267 511 OFFCURVE",
"272 538 OFFCURVE",
"276 568 CURVE",
"201 533 OFFCURVE",
"79 472 OFFCURVE",
"4 410 CURVE",
"0 393 OFFCURVE",
"-4 370 OFFCURVE",
"-7 341 CURVE",
"21 315 OFFCURVE",
"49 283 OFFCURVE",
"73 252 CURVE SMOOTH",
"90 231 OFFCURVE",
"125 179 OFFCURVE",
"151 140 CURVE",
"151 140 OFFCURVE",
"130 98 OFFCURVE",
"75 98 CURVE SMOOTH",
"-21 98 LINE SMOOTH",
"-48 98 OFFCURVE",
"-70 76 OFFCURVE",
"-70 49 CURVE SMOOTH",
"-70 21 OFFCURVE",
"-49 0 OFFCURVE",
"-21 0 CURVE SMOOTH",
"83 0 LINE SMOOTH",
"147 0 OFFCURVE",
"179 38 OFFCURVE",
"188 113 CURVE",
"217 37 OFFCURVE",
"257 0 OFFCURVE",
"336 0 CURVE SMOOTH",
"371 0 LINE",
"371 98 LINE",
"335 98 LINE SMOOTH",
"271 98 OFFCURVE",
"238 140 OFFCURVE",
"214 176 CURVE",
"191 208 OFFCURVE",
"157 252 OFFCURVE",
"125 286 CURVE SMOOTH",
"107 306 OFFCURVE",
"68 346 OFFCURVE",
"44 370 CURVE",
"120 413 OFFCURVE",
"211 461 OFFCURVE",
"259 480 CURVE"
);
}
);
width = 371;
}
);
unicode = FEDC;
},
{
glyphname = uniFEDB;
layers = (
{
anchors = (
{
name = bottom;
position = "{24, -24}";
},
{
name = top;
position = "{87, 518}";
}
);
layerId = "51F41761-070F-43EA-B302-C90910850260";
name = Regular;
paths = (
{
closed = 1;
nodes = (
"255 510 OFFCURVE",
"260 537 OFFCURVE",
"264 568 CURVE",
"190 533 OFFCURVE",
"67 472 OFFCURVE",
"-8 410 CURVE",
"-15 383 OFFCURVE",
"-20 363 OFFCURVE",
"-24 327 CURVE",
"3 297 LINE",
"12 315 LINE",
"69 269 OFFCURVE",
"149 187 OFFCURVE",
"149 139 CURVE",
"141 121 OFFCURVE",
"109 98 OFFCURVE",
"73 98 CURVE SMOOTH",
"-21 98 LINE SMOOTH",
"-48 98 OFFCURVE",
"-70 76 OFFCURVE",
"-70 49 CURVE SMOOTH",
"-70 21 OFFCURVE",
"-48 0 OFFCURVE",
"-21 0 CURVE SMOOTH",
"71 0 LINE SMOOTH",
"149 0 OFFCURVE",
"195 46 OFFCURVE",
"195 128 CURVE SMOOTH",
"195 192 OFFCURVE",
"167 254 OFFCURVE",
"134 297 CURVE SMOOTH",
"113 324 OFFCURVE",
"81 353 OFFCURVE",
"45 378 CURVE",
"122 421 OFFCURVE",
"198 457 OFFCURVE",
"247 480 CURVE"
);
}
);
width = 284;
}
);
unicode = FEDB;
},
{
glyphname = uni06A9;
layers = (
{
anchors = (
{
name = bottom;
position = "{395, -26}";
},
{
name = top;
position = "{363, 131}";
}
);
layerId = "51F41761-070F-43EA-B302-C90910850260";
name = Regular;
paths = (
{
closed = 1;
nodes = (
"68 182 OFFCURVE",
"69 145 OFFCURVE",
"77 114 CURVE SMOOTH",
"94 53 OFFCURVE",
"142 16 OFFCURVE",
"232 1 CURVE SMOOTH",
"268 -5 OFFCURVE",
"299 -6 OFFCURVE",
"397 -6 CURVE",
"451 -5 OFFCURVE",
"506 -6 OFFCURVE",
"560 -2 CURVE SMOOTH",
"638 4 OFFCURVE",
"684 46 OFFCURVE",
"684 128 CURVE SMOOTH",
"684 192 OFFCURVE",
"656 254 OFFCURVE",
"623 297 CURVE SMOOTH",
"602 324 OFFCURVE",
"570 353 OFFCURVE",
"534 378 CURVE",
"611 421 OFFCURVE",
"687 457 OFFCURVE",
"736 480 CURVE",
"744 510 OFFCURVE",
"749 537 OFFCURVE",
"753 568 CURVE",
"679 533 OFFCURVE",
"556 472 OFFCURVE",
"481 410 CURVE",
"474 383 OFFCURVE",
"469 363 OFFCURVE",
"465 327 CURVE",
"492 297 LINE",
"501 315 LINE",
"558 269 OFFCURVE",
"638 187 OFFCURVE",
"638 139 CURVE",
"630 121 OFFCURVE",
"598 95 OFFCURVE",
"562 95 CURVE",
"510 91 OFFCURVE",
"459 93 OFFCURVE",
"407 92 CURVE",
"338 92 OFFCURVE",
"278 95 OFFCURVE",
"229 102 CURVE SMOOTH",
"169 111 OFFCURVE",
"133 127 OFFCURVE",
"113 158 CURVE SMOOTH",
"103 174 OFFCURVE",
"96 194 OFFCURVE",
"92 218 CURVE",
"73 225 LINE"
);
}
);
width = 773;
}
);
unicode = 06A9;
},
{
glyphname = uniFB8F;
layers = (
{
anchors = (
{
name = bottom;
position = "{376, -30}";
},
{
name = top;
position = "{338, 142}";
}
);
layerId = "51F41761-070F-43EA-B302-C90910850260";
name = Regular;
paths = (
{
closed = 1;
nodes = (
"744 508 OFFCURVE",
"750 535 OFFCURVE",
"753 565 CURVE",
"679 530 OFFCURVE",
"557 469 OFFCURVE",
"481 407 CURVE",
"480 401 OFFCURVE",
"469 364 OFFCURVE",
"466 324 CURVE",
"494 293 LINE",
"501 308 LINE",
"519 288 OFFCURVE",
"537 267 OFFCURVE",
"553 247 CURVE SMOOTH",
"596 192 OFFCURVE",
"628 142 OFFCURVE",
"628 142 CURVE SMOOTH",
"628 142 OFFCURVE",
"607 97 OFFCURVE",
"553 94 CURVE SMOOTH",
"497 91 OFFCURVE",
"456 93 OFFCURVE",
"407 93 CURVE SMOOTH",
"338 93 OFFCURVE",
"278 94 OFFCURVE",
"229 101 CURVE SMOOTH",
"174 109 OFFCURVE",
"133 128 OFFCURVE",
"113 159 CURVE SMOOTH",
"103 175 OFFCURVE",
"96 195 OFFCURVE",
"92 219 CURVE",
"73 226 LINE",
"68 183 OFFCURVE",
"69 146 OFFCURVE",
"77 115 CURVE SMOOTH",
"94 54 OFFCURVE",
"142 18 OFFCURVE",
"232 3 CURVE SMOOTH",
"268 -3 OFFCURVE",
"299 -7 OFFCURVE",
"397 -6 CURVE SMOOTH",
"452 -5 OFFCURVE",
"502 -8 OFFCURVE",
"561 -4 CURVE SMOOTH",
"626 0 OFFCURVE",
"669 35 OFFCURVE",
"666 108 CURVE",
"692 30 OFFCURVE",
"734 0 OFFCURVE",
"814 0 CURVE SMOOTH",
"848 0 LINE",
"848 98 LINE",
"813 98 LINE SMOOTH",
"749 98 OFFCURVE",
"716 141 OFFCURVE",
"691 177 CURVE SMOOTH",
"669 209 OFFCURVE",
"635 248 OFFCURVE",
"604 282 CURVE SMOOTH",
"561 329 OFFCURVE",
"522 367 OFFCURVE",
"522 367 CURVE SMOOTH",
"603 413 OFFCURVE",
"686 457 OFFCURVE",
"737 477 CURVE"
);
}
);
width = 848;
}
);
unicode = FB8F;
},
{
glyphname = uni06AA;
layers = (
{
anchors = (
{
name = bottom;
position = "{439, -25}";
},
{
name = top;
position = "{313, 489}";
}
);
layerId = "51F41761-070F-43EA-B302-C90910850260";
name = Regular;
paths = (
{
closed = 1;
nodes = (
"358 468 OFFCURVE",
"307 425 OFFCURVE",
"280 394 CURVE SMOOTH",
"248 357 OFFCURVE",
"229 316 OFFCURVE",
"229 284 CURVE SMOOTH",
"229 265 OFFCURVE",
"236 250 OFFCURVE",
"249 237 CURVE SMOOTH",
"264 222 OFFCURVE",
"289 211 OFFCURVE",
"321 205 CURVE SMOOTH",
"343 201 OFFCURVE",
"363 200 OFFCURVE",
"374 200 CURVE SMOOTH",
"406 200 OFFCURVE",
"571 206 OFFCURVE",
"630 206 CURVE SMOOTH",
"682 206 OFFCURVE",
"718 183 OFFCURVE",
"739 163 CURVE SMOOTH",
"756 147 OFFCURVE",
"760 133 OFFCURVE",
"767 106 CURVE SMOOTH",
"767 106 OFFCURVE",
"686 103 OFFCURVE",
"649 102 CURVE SMOOTH",
"613 100 OFFCURVE",
"576 100 OFFCURVE",
"539 100 CURVE SMOOTH",
"466 100 OFFCURVE",
"415 97 OFFCURVE",
"376 97 CURVE SMOOTH",
"314 97 OFFCURVE",
"279 99 OFFCURVE",
"229 106 CURVE SMOOTH",
"174 114 OFFCURVE",
"133 133 OFFCURVE",
"113 164 CURVE SMOOTH",
"103 180 OFFCURVE",
"96 200 OFFCURVE",
"92 224 CURVE",
"73 231 LINE",
"68 188 OFFCURVE",
"69 151 OFFCURVE",
"77 120 CURVE SMOOTH",
"94 59 OFFCURVE",
"142 22 OFFCURVE",
"232 7 CURVE SMOOTH",
"268 1 OFFCURVE",
"299 -2 OFFCURVE",
"397 -2 CURVE SMOOTH",
"440 -2 OFFCURVE",
"588 3 OFFCURVE",
"692 7 CURVE SMOOTH",
"729 9 OFFCURVE",
"759 25 OFFCURVE",
"781 56 CURVE SMOOTH",
"796 77 OFFCURVE",
"803 98 OFFCURVE",
"804 102 CURVE",
"803 133 OFFCURVE",
"795 176 OFFCURVE",
"768 213 CURVE SMOOTH",
"733 258 OFFCURVE",
"677 281 OFFCURVE",
"599 281 CURVE SMOOTH",
"561 281 OFFCURVE",
"416 276 OFFCURVE",
"384 276 CURVE SMOOTH",
"364 276 OFFCURVE",
"343 278 OFFCURVE",
"325 283 CURVE SMOOTH",
"293 289 OFFCURVE",
"271 306 OFFCURVE",
"268 329 CURVE",
"305 367 OFFCURVE",
"370 399 OFFCURVE",
"426 416 CURVE",
"434 444 OFFCURVE",
"440 471 OFFCURVE",
"443 500 CURVE"
);
}
);
width = 864;
}
);
unicode = 06AA;
},
{
glyphname = uni06AA.fina;
layers = (
{
anchors = (
{
name = bottom;
position = "{440, -27}";
},
{
name = top;
position = "{314, 490}";
}
);
layerId = "51F41761-070F-43EA-B302-C90910850260";
name = Regular;
paths = (
{
closed = 1;
nodes = (
"804 98 LINE",
"803 129 OFFCURVE",
"794 177 OFFCURVE",
"768 213 CURVE SMOOTH",
"733 258 OFFCURVE",
"677 281 OFFCURVE",
"599 281 CURVE SMOOTH",
"561 281 OFFCURVE",
"416 276 OFFCURVE",
"384 276 CURVE SMOOTH",
"364 276 OFFCURVE",
"343 278 OFFCURVE",
"325 283 CURVE",
"293 289 OFFCURVE",
"271 306 OFFCURVE",
"268 329 CURVE",
"305 367 OFFCURVE",
"370 399 OFFCURVE",
"426 416 CURVE",
"434 444 OFFCURVE",
"440 471 OFFCURVE",
"443 500 CURVE",
"358 468 OFFCURVE",
"307 425 OFFCURVE",
"280 394 CURVE SMOOTH",
"248 357 OFFCURVE",
"229 316 OFFCURVE",
"229 284 CURVE SMOOTH",
"229 265 OFFCURVE",
"236 250 OFFCURVE",
"249 237 CURVE SMOOTH",
"264 222 OFFCURVE",
"289 211 OFFCURVE",
"321 205 CURVE SMOOTH",
"343 201 OFFCURVE",
"363 200 OFFCURVE",
"374 200 CURVE SMOOTH",
"406 200 OFFCURVE",
"571 206 OFFCURVE",
"630 206 CURVE SMOOTH",
"682 206 OFFCURVE",
"718 183 OFFCURVE",
"739 163 CURVE SMOOTH",
"755 148 OFFCURVE",
"759 137 OFFCURVE",
"766 106 CURVE",
"766 106 OFFCURVE",
"730 105 OFFCURVE",
"649 102 CURVE SMOOTH",
"613 101 OFFCURVE",
"576 100 OFFCURVE",
"539 100 CURVE SMOOTH",
"466 100 OFFCURVE",
"415 97 OFFCURVE",
"376 97 CURVE SMOOTH",
"314 97 OFFCURVE",
"279 99 OFFCURVE",
"229 106 CURVE SMOOTH",
"174 114 OFFCURVE",
"133 133 OFFCURVE",
"113 164 CURVE SMOOTH",
"103 180 OFFCURVE",
"96 200 OFFCURVE",
"92 224 CURVE",
"73 231 LINE",
"68 188 OFFCURVE",
"69 151 OFFCURVE",
"77 120 CURVE SMOOTH",
"94 59 OFFCURVE",
"142 22 OFFCURVE",
"232 7 CURVE SMOOTH",
"268 1 OFFCURVE",
"299 -2 OFFCURVE",
"397 -2 CURVE SMOOTH",
"440 -2 OFFCURVE",
"588 3 OFFCURVE",
"692 7 CURVE SMOOTH",
"727 9 OFFCURVE",
"755 23 OFFCURVE",
"776 50 CURVE",
"781 38 OFFCURVE",
"789 28 OFFCURVE",
"798 21 CURVE SMOOTH",
"819 5 OFFCURVE",
"849 0 OFFCURVE",
"864 0 CURVE SMOOTH",
"907 0 LINE",
"907 98 LINE"
);
}
);
width = 907;
}
);
},
{
glyphname = uni06AA.init;
layers = (
{
anchors = (
{
name = bottom;
position = "{265, -28}";
},
{
name = top;
position = "{116, 491}";
}
);
layerId = "51F41761-070F-43EA-B302-C90910850260";
name = Regular;
paths = (
{
closed = 1;
nodes = (
"602 133 OFFCURVE",
"593 177 OFFCURVE",
"567 213 CURVE SMOOTH",
"532 258 OFFCURVE",
"476 281 OFFCURVE",
"398 281 CURVE SMOOTH",
"360 281 OFFCURVE",
"215 276 OFFCURVE",
"183 276 CURVE SMOOTH",
"163 276 OFFCURVE",
"142 278 OFFCURVE",
"124 283 CURVE",
"92 289 OFFCURVE",
"70 306 OFFCURVE",
"67 329 CURVE",
"104 367 OFFCURVE",
"169 399 OFFCURVE",
"225 416 CURVE",
"233 444 OFFCURVE",
"239 471 OFFCURVE",
"242 500 CURVE",
"157 468 OFFCURVE",
"106 425 OFFCURVE",
"79 394 CURVE SMOOTH",
"47 357 OFFCURVE",
"28 316 OFFCURVE",
"28 284 CURVE SMOOTH",
"28 265 OFFCURVE",
"35 250 OFFCURVE",
"48 237 CURVE SMOOTH",
"63 222 OFFCURVE",
"88 211 OFFCURVE",
"120 205 CURVE SMOOTH",
"142 201 OFFCURVE",
"162 200 OFFCURVE",
"173 200 CURVE SMOOTH",
"205 200 OFFCURVE",
"370 206 OFFCURVE",
"429 206 CURVE SMOOTH",
"481 206 OFFCURVE",
"517 183 OFFCURVE",
"538 163 CURVE SMOOTH",
"555 147 OFFCURVE",
"559 133 OFFCURVE",
"566 106 CURVE",
"559 106 OFFCURVE",
"484 103 OFFCURVE",
"454 102 CURVE SMOOTH",
"418 100 OFFCURVE",
"375 100 OFFCURVE",
"338 100 CURVE SMOOTH",
"241 100 OFFCURVE",
"210 98 OFFCURVE",
"124 98 CURVE",
"-21 98 LINE SMOOTH",
"-48 98 OFFCURVE",
"-70 77 OFFCURVE",
"-70 50 CURVE SMOOTH",
"-70 22 OFFCURVE",
"-48 0 OFFCURVE",
"-21 0 CURVE SMOOTH",
"143 0 LINE",
"266 0 OFFCURVE",
"391 1 OFFCURVE",
"491 7 CURVE SMOOTH",
"535 10 OFFCURVE",
"561 31 OFFCURVE",
"577 53 CURVE SMOOTH",
"591 71 OFFCURVE",
"598 87 OFFCURVE",
"603 98 CURVE"
);
}
);
width = 663;
}
);
},
{
glyphname = uni06AA.medi;
layers = (
{
anchors = (
{
name = bottom;
position = "{266, -26}";
},
{
name = top;
position = "{112, 491}";
}
);
layerId = "51F41761-070F-43EA-B302-C90910850260";
name = Regular;
paths = (
{
closed = 1;
nodes = (
"603 98 LINE",
"602 133 OFFCURVE",
"593 177 OFFCURVE",
"567 213 CURVE SMOOTH",
"532 258 OFFCURVE",
"476 281 OFFCURVE",
"398 281 CURVE SMOOTH",
"360 281 OFFCURVE",
"215 276 OFFCURVE",
"183 276 CURVE SMOOTH",
"163 276 OFFCURVE",
"142 278 OFFCURVE",
"124 283 CURVE",
"92 289 OFFCURVE",
"70 306 OFFCURVE",
"67 329 CURVE",
"104 367 OFFCURVE",
"169 399 OFFCURVE",
"225 416 CURVE",
"233 444 OFFCURVE",
"239 471 OFFCURVE",
"242 500 CURVE",
"157 468 OFFCURVE",
"106 425 OFFCURVE",
"79 394 CURVE SMOOTH",
"47 357 OFFCURVE",
"28 316 OFFCURVE",
"28 284 CURVE SMOOTH",
"28 265 OFFCURVE",
"35 250 OFFCURVE",
"48 237 CURVE SMOOTH",
"63 222 OFFCURVE",
"88 211 OFFCURVE",
"120 205 CURVE SMOOTH",
"142 201 OFFCURVE",
"162 200 OFFCURVE",
"173 200 CURVE SMOOTH",
"205 200 OFFCURVE",
"370 206 OFFCURVE",
"429 206 CURVE SMOOTH",
"481 206 OFFCURVE",
"517 183 OFFCURVE",
"538 163 CURVE SMOOTH",
"555 147 OFFCURVE",
"559 133 OFFCURVE",
"566 106 CURVE",
"566 106 OFFCURVE",
"491 103 OFFCURVE",
"454 102 CURVE SMOOTH",
"418 100 OFFCURVE",
"375 100 OFFCURVE",
"338 100 CURVE SMOOTH",
"241 100 OFFCURVE",
"210 98 OFFCURVE",
"124 98 CURVE",
"-21 98 LINE SMOOTH",
"-48 98 OFFCURVE",
"-70 77 OFFCURVE",
"-70 50 CURVE SMOOTH",
"-70 22 OFFCURVE",
"-48 0 OFFCURVE",
"-21 0 CURVE SMOOTH",
"143 0 LINE",
"266 0 OFFCURVE",
"391 3 OFFCURVE",
"491 7 CURVE SMOOTH",
"526 9 OFFCURVE",
"555 23 OFFCURVE",
"576 51 CURVE",
"580 41 OFFCURVE",
"585 32 OFFCURVE",
"593 26 CURVE SMOOTH",
"614 6 OFFCURVE",
"648 0 OFFCURVE",
"664 0 CURVE SMOOTH",
"707 0 LINE",
"707 98 LINE"
);
}
);
width = 707;
}
);
},
{
glyphname = uni0644;
layers = (
{
anchors = (
{
name = bottom;
position = "{285, -229}";
},
{
name = top;
position = "{337, 558}";
}
);
layerId = "51F41761-070F-43EA-B302-C90910850260";
name = Regular;
paths = (
{
closed = 1;
nodes = (
"457 514 OFFCURVE",
"437 548 OFFCURVE",
"427 566 CURVE",
"368 490 LINE",
"382 454 OFFCURVE",
"409 358 OFFCURVE",
"439 169 CURVE SMOOTH",
"450 99 OFFCURVE",
"455 49 OFFCURVE",
"455 25 CURVE SMOOTH",
"455 -9 OFFCURVE",
"445 -35 OFFCURVE",
"419 -54 CURVE SMOOTH",
"390 -75 OFFCURVE",
"344 -86 OFFCURVE",
"289 -86 CURVE SMOOTH",
"253 -86 OFFCURVE",
"222 -81 OFFCURVE",
"196 -73 CURVE SMOOTH",
"155 -60 OFFCURVE",
"135 -41 OFFCURVE",
"124 -19 CURVE SMOOTH",
"105 18 OFFCURVE",
"113 66 OFFCURVE",
"120 101 CURVE",
"101 107 LINE",
"86 71 OFFCURVE",
"74 32 OFFCURVE",
"71 -6 CURVE SMOOTH",
"69 -36 OFFCURVE",
"72 -65 OFFCURVE",
"84 -94 CURVE SMOOTH",
"97 -126 OFFCURVE",
"120 -153 OFFCURVE",
"156 -172 CURVE SMOOTH",
"191 -190 OFFCURVE",
"234 -199 OFFCURVE",
"285 -199 CURVE SMOOTH",
"355 -199 OFFCURVE",
"408 -179 OFFCURVE",
"444 -138 CURVE SMOOTH",
"466 -113 OFFCURVE",
"481 -81 OFFCURVE",
"490 -44 CURVE SMOOTH",
"499 -8 OFFCURVE",
"501 33 OFFCURVE",
"496 78 CURVE",
"479 265 OFFCURVE",
"468 346 OFFCURVE",
"463 401 CURVE SMOOTH",
"459 446 OFFCURVE",
"462 464 OFFCURVE",
"486 484 CURVE"
);
}
);
width = 559;
}
);
unicode = 0644;
},
{
glyphname = uniFEDE;
layers = (
{
anchors = (
{
name = bottom;
position = "{284, -313}";
},
{
name = top;
position = "{356, 558}";
}
);
layerId = "51F41761-070F-43EA-B302-C90910850260";
name = Regular;
paths = (
{
closed = 1;
nodes = (
"560 98 LINE SMOOTH",
"552 98 OFFCURVE",
"524 101 OFFCURVE",
"507 116 CURVE SMOOTH",
"496 126 OFFCURVE",
"490 141 OFFCURVE",
"485 178 CURVE SMOOTH",
"475 253 OFFCURVE",
"443 567 OFFCURVE",
"443 567 CURVE",
"424 550 OFFCURVE",
"405 530 OFFCURVE",
"382 496 CURVE",
"388 454 OFFCURVE",
"442 54 OFFCURVE",
"451 -27 CURVE SMOOTH",
"456 -72 OFFCURVE",
"459 -113 OFFCURVE",
"416 -142 CURVE SMOOTH",
"391 -160 OFFCURVE",
"351 -170 OFFCURVE",
"288 -170 CURVE SMOOTH",
"256 -170 OFFCURVE",
"220 -164 OFFCURVE",
"195 -156 CURVE SMOOTH",
"151 -142 OFFCURVE",
"129 -118 OFFCURVE",
"119 -89 CURVE SMOOTH",
"107 -54 OFFCURVE",
"113 -14 OFFCURVE",
"119 17 CURVE",
"100 24 LINE",
"82 -21 OFFCURVE",
"74 -51 OFFCURVE",
"71 -89 CURVE SMOOTH",
"69 -117 OFFCURVE",
"69 -144 OFFCURVE",
"83 -177 CURVE SMOOTH",
"97 -210 OFFCURVE",
"121 -237 OFFCURVE",
"155 -255 CURVE SMOOTH",
"190 -274 OFFCURVE",
"236 -283 OFFCURVE",
"284 -283 CURVE SMOOTH",
"354 -283 OFFCURVE",
"408 -263 OFFCURVE",
"444 -222 CURVE SMOOTH",
"466 -199 OFFCURVE",
"482 -168 OFFCURVE",
"490 -131 CURVE SMOOTH",
"497 -100 OFFCURVE",
"500 -65 OFFCURVE",
"497 -18 CURVE SMOOTH",
"495 11 OFFCURVE",
"497 -12 OFFCURVE",
"493 42 CURVE",
"515 11 OFFCURVE",
"533 0 OFFCURVE",
"584 0 CURVE SMOOTH",
"628 0 LINE",
"628 98 LINE"
);
}
);
width = 628;
}
);
unicode = FEDE;
},
{
glyphname = uniFEE0;
layers = (
{
anchors = (
{
name = bottom;
position = "{70, -25}";
},
{
name = top;
position = "{45, 557}";
}
);
layerId = "51F41761-070F-43EA-B302-C90910850260";
name = Regular;
paths = (
{
closed = 1;
nodes = (
"243 98 LINE SMOOTH",
"216 98 OFFCURVE",
"195 107 OFFCURVE",
"180 125 CURVE SMOOTH",
"169 139 OFFCURVE",
"163 162 OFFCURVE",
"161 178 CURVE SMOOTH",
"143 325 OFFCURVE",
"133 430 OFFCURVE",
"120 568 CURVE",
"97 547 OFFCURVE",
"80 529 OFFCURVE",
"59 497 CURVE",
"78 386 OFFCURVE",
"89 309 OFFCURVE",
"98 239 CURVE",
"101 214 OFFCURVE",
"103 201 OFFCURVE",
"105 179 CURVE",
"107 160 OFFCURVE",
"102 141 OFFCURVE",
"88 125 CURVE SMOOTH",
"72 107 OFFCURVE",
"49 98 OFFCURVE",
"24 98 CURVE SMOOTH",
"-21 98 LINE SMOOTH",
"-48 98 OFFCURVE",
"-70 76 OFFCURVE",
"-70 49 CURVE SMOOTH",
"-70 21 OFFCURVE",
"-46 0 OFFCURVE",
"-21 0 CURVE SMOOTH",
"47 0 LINE SMOOTH",
"109 0 OFFCURVE",
"150 26 OFFCURVE",
"153 82 CURVE",
"164 26 OFFCURVE",
"199 0 OFFCURVE",
"256 0 CURVE SMOOTH",
"294 0 LINE",
"294 98 LINE"
);
}
);
width = 294;
}
);
unicode = FEE0;
},
{
glyphname = uniFEDF;
layers = (
{
anchors = (
{
name = bottom;
position = "{21, -26}";
},
{
name = top;
position = "{28, 558}";
}
);
layerId = "51F41761-070F-43EA-B302-C90910850260";
name = Regular;
paths = (
{
closed = 1;
nodes = (
"127 514 OFFCURVE",
"107 539 OFFCURVE",
"95 568 CURVE",
"37 492 LINE",
"52 454 OFFCURVE",
"71 377 OFFCURVE",
"82 320 CURVE SMOOTH",
"92 266 OFFCURVE",
"103 199 OFFCURVE",
"108 152 CURVE",
"89 118 OFFCURVE",
"50 98 OFFCURVE",
"10 98 CURVE SMOOTH",
"-21 98 LINE SMOOTH",
"-56 98 OFFCURVE",
"-70 72 OFFCURVE",
"-70 48 CURVE SMOOTH",
"-70 18 OFFCURVE",
"-48 0 OFFCURVE",
"-21 0 CURVE",
"11 0 LINE",
"29 0 OFFCURVE",
"41 1 OFFCURVE",
"53 4 CURVE SMOOTH",
"83 10 OFFCURVE",
"109 28 OFFCURVE",
"127 54 CURVE SMOOTH",
"146 82 OFFCURVE",
"155 116 OFFCURVE",
"158 157 CURVE",
"157 192 OFFCURVE",
"156 206 OFFCURVE",
"139 322 CURVE SMOOTH",
"135 348 OFFCURVE",
"131 385 OFFCURVE",
"129 399 CURVE",
"126 441 OFFCURVE",
"132 463 OFFCURVE",
"155 483 CURVE"
);
}
);
width = 218;
}
);
unicode = FEDF;
},
{
glyphname = uni0645;
layers = (
{
anchors = (
{
name = bottom;
position = "{137, -362}";
},
{
name = top;
position = "{218, 336}";
}
);
layerId = "51F41761-070F-43EA-B302-C90910850260";
name = Regular;
paths = (
{
closed = 1;
nodes = (
"341 235 OFFCURVE",
"319 263 OFFCURVE",
"287 284 CURVE SMOOTH",
"269 296 OFFCURVE",
"245 306 OFFCURVE",
"221 306 CURVE SMOOTH",
"188 306 OFFCURVE",
"165 289 OFFCURVE",
"151 253 CURVE SMOOTH",
"145 239 OFFCURVE",
"142 225 OFFCURVE",
"141 214 CURVE",
"182 233 OFFCURVE",
"219 227 OFFCURVE",
"261 196 CURVE",
"200 195 OFFCURVE",
"154 186 OFFCURVE",
"115 150 CURVE SMOOTH",
"90 128 OFFCURVE",
"62 76 OFFCURVE",
"72 -5 CURVE SMOOTH",
"77 -44 OFFCURVE",
"84 -88 OFFCURVE",
"91 -134 CURVE SMOOTH",
"101 -194 OFFCURVE",
"113 -264 OFFCURVE",
"121 -337 CURVE",
"149 -328 LINE",
"151 -272 OFFCURVE",
"141 -171 OFFCURVE",
"122 -24 CURVE SMOOTH",
"118 9 OFFCURVE",
"126 38 OFFCURVE",
"148 61 CURVE SMOOTH",
"168 84 OFFCURVE",
"201 102 OFFCURVE",
"247 112 CURVE SMOOTH",
"285 120 OFFCURVE",
"316 120 OFFCURVE",
"335 120 CURVE",
"341 161 OFFCURVE",
"346 194 OFFCURVE",
"348 227 CURVE"
);
}
);
width = 408;
}
);
unicode = 0645;
},
{
glyphname = uni0645.alt;
layers = (
{
anchors = (
{
name = bottom;
position = "{404, -10}";
},
{
name = top;
position = "{453, 321}";
}
);
layerId = "51F41761-070F-43EA-B302-C90910850260";
name = Regular;
paths = (
{
closed = 1;
nodes = (
"531 96 LINE",
"538 122 OFFCURVE",
"540 149 OFFCURVE",
"536 183 CURVE SMOOTH",
"532 217 OFFCURVE",
"525 241 OFFCURVE",
"508 263 CURVE SMOOTH",
"493 282 OFFCURVE",
"476 292 OFFCURVE",
"453 292 CURVE SMOOTH",
"418 292 OFFCURVE",
"391 268 OFFCURVE",
"373 243 CURVE SMOOTH",
"361 227 OFFCURVE",
"351 207 OFFCURVE",
"341 181 CURVE",
"327 190 LINE",
"291 101 OFFCURVE",
"241 38 OFFCURVE",
"150 -14 CURVE SMOOTH",
"118 -32 OFFCURVE",
"85 -50 OFFCURVE",
"20 -85 CURVE",
"29 -98 LINE",
"51 -93 OFFCURVE",
"69 -91 OFFCURVE",
"87 -91 CURVE SMOOTH",
"110 -91 OFFCURVE",
"132 -94 OFFCURVE",
"151 -94 CURVE SMOOTH",
"179 -94 OFFCURVE",
"199 -88 OFFCURVE",
"223 -71 CURVE SMOOTH",
"259 -46 OFFCURVE",
"304 2 OFFCURVE",
"340 89 CURVE",
"383 61 OFFCURVE",
"431 44 OFFCURVE",
"499 37 CURVE"
);
},
{
closed = 1;
nodes = (
"506 145 OFFCURVE",
"508 110 OFFCURVE",
"508 110 CURVE",
"463 120 OFFCURVE",
"414 141 OFFCURVE",
"367 169 CURVE",
"367 169 OFFCURVE",
"379 222 OFFCURVE",
"421 222 CURVE SMOOTH",
"446 222 OFFCURVE",
"476 203 OFFCURVE",
"492 172 CURVE SMOOTH"
);
}
);
width = 598;
}
);
},
{
glyphname = uni0645.altfina;
layers = (
{
anchors = (
{
name = bottom;
position = "{396, -45}";
},
{
name = top;
position = "{435, 297}";
}
);
layerId = "51F41761-070F-43EA-B302-C90910850260";
name = Regular;
paths = (
{
closed = 1;
nodes = (
"619 98 LINE SMOOTH",
"596 98 OFFCURVE",
"579 107 OFFCURVE",
"565 125 CURVE SMOOTH",
"541 157 OFFCURVE",
"538 207 OFFCURVE",
"509 240 CURVE SMOOTH",
"494 258 OFFCURVE",
"476 267 OFFCURVE",
"455 267 CURVE SMOOTH",
"425 267 OFFCURVE",
"396 246 OFFCURVE",
"375 224 CURVE SMOOTH",
"365 214 OFFCURVE",
"350 196 OFFCURVE",
"339 182 CURVE",
"327 190 LINE",
"291 101 OFFCURVE",
"241 38 OFFCURVE",
"150 -14 CURVE SMOOTH",
"118 -32 OFFCURVE",
"85 -50 OFFCURVE",
"20 -85 CURVE",
"29 -98 LINE",
"51 -93 OFFCURVE",
"69 -91 OFFCURVE",
"87 -91 CURVE SMOOTH",
"110 -91 OFFCURVE",
"132 -94 OFFCURVE",
"151 -94 CURVE SMOOTH",
"179 -94 OFFCURVE",
"199 -88 OFFCURVE",
"223 -71 CURVE SMOOTH",
"258 -47 OFFCURVE",
"300 -2 OFFCURVE",
"335 80 CURVE",
"379 43 OFFCURVE",
"429 11 OFFCURVE",
"477 -8 CURVE",
"494 6 OFFCURVE",
"517 39 OFFCURVE",
"537 75 CURVE",
"548 24 OFFCURVE",
"573 0 OFFCURVE",
"637 0 CURVE SMOOTH",
"666 0 LINE",
"666 98 LINE"
);
},
{
closed = 1;
nodes = (
"460 92 OFFCURVE",
"403 131 OFFCURVE",
"364 162 CURVE",
"364 162 OFFCURVE",
"375 178 OFFCURVE",
"395 191 CURVE SMOOTH",
"407 199 OFFCURVE",
"422 205 OFFCURVE",
"439 205 CURVE SMOOTH",
"457 205 OFFCURVE",
"473 197 OFFCURVE",
"485 183 CURVE SMOOTH",
"496 170 OFFCURVE",
"502 153 OFFCURVE",
"502 136 CURVE SMOOTH",
"502 117 OFFCURVE",
"496 103 OFFCURVE",
"482 79 CURVE"
);
}
);
width = 666;
}
);
},
{
glyphname = uniFEE2;
layers = (
{
anchors = (
{
name = bottom;
position = "{140, -368}";
},
{
name = top;
position = "{252, 263}";
}
);
layerId = "51F41761-070F-43EA-B302-C90910850260";
name = Regular;
paths = (
{
closed = 1;
nodes = (
"486 98 LINE SMOOTH",
"432 98 OFFCURVE",
"389 131 OFFCURVE",
"333 175 CURVE SMOOTH",
"304 198 OFFCURVE",
"284 221 OFFCURVE",
"271 233 CURVE",
"245 196 LINE",
"204 196 OFFCURVE",
"177 190 OFFCURVE",
"146 174 CURVE SMOOTH",
"120 159 OFFCURVE",
"99 138 OFFCURVE",
"86 112 CURVE SMOOTH",
"70 79 OFFCURVE",
"66 38 OFFCURVE",
"75 -9 CURVE SMOOTH",
"112 -218 OFFCURVE",
"122 -308 OFFCURVE",
"125 -339 CURVE",
"154 -330 LINE",
"149 -214 OFFCURVE",
"143 -146 OFFCURVE",
"136 -96 CURVE SMOOTH",
"135 -83 OFFCURVE",
"119 12 OFFCURVE",
"119 25 CURVE SMOOTH",
"119 37 OFFCURVE",
"126 58 OFFCURVE",
"143 75 CURVE SMOOTH",
"174 102 OFFCURVE",
"200 106 OFFCURVE",
"243 104 CURVE SMOOTH",
"248 71 OFFCURVE",
"257 43 OFFCURVE",
"271 20 CURVE SMOOTH",
"295 -17 OFFCURVE",
"329 -38 OFFCURVE",
"378 -38 CURVE",
"396 -24 OFFCURVE",
"413 1 OFFCURVE",
"432 34 CURVE SMOOTH",
"446 13 OFFCURVE",
"460 0 OFFCURVE",
"493 0 CURVE SMOOTH",
"529 0 LINE",
"529 98 LINE"
);
}
);
width = 529;
}
);
unicode = FEE2;
},
{
glyphname = uniFEE4;
layers = (
{
anchors = (
{
name = bottom;
position = "{166, -25}";
},
{
name = top;
position = "{250, 297}";
}
);
layerId = "51F41761-070F-43EA-B302-C90910850260";
name = Regular;
paths = (
{
closed = 1;
nodes = (
"444 98 LINE SMOOTH",
"421 98 OFFCURVE",
"404 107 OFFCURVE",
"390 125 CURVE SMOOTH",
"366 157 OFFCURVE",
"363 207 OFFCURVE",
"334 240 CURVE SMOOTH",
"319 258 OFFCURVE",
"301 267 OFFCURVE",
"280 267 CURVE SMOOTH",
"250 267 OFFCURVE",
"221 246 OFFCURVE",
"200 224 CURVE SMOOTH",
"190 214 OFFCURVE",
"176 198 OFFCURVE",
"166 184 CURVE",
"155 194 LINE",
"138 175 OFFCURVE",
"123 157 OFFCURVE",
"108 140 CURVE SMOOTH",
"94 125 OFFCURVE",
"70 98 OFFCURVE",
"23 98 CURVE SMOOTH",
"-22 98 LINE SMOOTH",
"-54 98 OFFCURVE",
"-70 73 OFFCURVE",
"-70 48 CURVE SMOOTH",
"-70 19 OFFCURVE",
"-48 0 OFFCURVE",
"-22 0 CURVE SMOOTH",
"19 0 LINE SMOOTH",
"56 0 OFFCURVE",
"82 10 OFFCURVE",
"100 30 CURVE SMOOTH",
"116 48 OFFCURVE",
"125 74 OFFCURVE",
"130 107 CURVE SMOOTH",
"181 58 OFFCURVE",
"242 16 OFFCURVE",
"302 -8 CURVE",
"319 6 OFFCURVE",
"342 39 OFFCURVE",
"362 75 CURVE SMOOTH",
"373 24 OFFCURVE",
"398 0 OFFCURVE",
"462 0 CURVE SMOOTH",
"491 0 LINE",
"491 98 LINE"
);
},
{
closed = 1;
nodes = (
"282 205 OFFCURVE",
"298 197 OFFCURVE",
"310 183 CURVE SMOOTH",
"321 170 OFFCURVE",
"327 153 OFFCURVE",
"327 136 CURVE SMOOTH",
"327 106 OFFCURVE",
"307 79 OFFCURVE",
"307 79 CURVE",
"285 92 OFFCURVE",
"228 131 OFFCURVE",
"189 162 CURVE SMOOTH",
"189 162 OFFCURVE",
"200 178 OFFCURVE",
"220 191 CURVE SMOOTH",
"232 199 OFFCURVE",
"247 205 OFFCURVE",
"264 205 CURVE SMOOTH"
);
}
);
width = 491;
}
);
unicode = FEE4;
},
{
glyphname = uniFEE3;
layers = (
{
anchors = (
{
name = bottom;
position = "{174, -10}";
},
{
name = top;
position = "{245, 302}";
}
);
layerId = "51F41761-070F-43EA-B302-C90910850260";
name = Regular;
paths = (
{
closed = 1;
nodes = (
"350 102 OFFCURVE",
"352 129 OFFCURVE",
"348 163 CURVE SMOOTH",
"344 197 OFFCURVE",
"337 221 OFFCURVE",
"320 243 CURVE SMOOTH",
"305 262 OFFCURVE",
"288 272 OFFCURVE",
"265 272 CURVE SMOOTH",
"230 272 OFFCURVE",
"203 248 OFFCURVE",
"185 223 CURVE SMOOTH",
"173 207 OFFCURVE",
"163 187 OFFCURVE",
"153 161 CURVE",
"139 170 LINE",
"127 141 OFFCURVE",
"118 124 OFFCURVE",
"107 114 CURVE SMOOTH",
"94 100 OFFCURVE",
"79 98 OFFCURVE",
"52 98 CURVE SMOOTH",
"-21 98 LINE SMOOTH",
"-51 98 OFFCURVE",
"-70 76 OFFCURVE",
"-70 49 CURVE SMOOTH",
"-70 21 OFFCURVE",
"-49 0 OFFCURVE",
"-21 0 CURVE SMOOTH",
"11 0 LINE SMOOTH",
"84 0 OFFCURVE",
"123 11 OFFCURVE",
"143 75 CURVE SMOOTH",
"189 43 OFFCURVE",
"238 25 OFFCURVE",
"311 17 CURVE",
"343 76 LINE"
);
},
{
closed = 1;
nodes = (
"258 202 OFFCURVE",
"288 183 OFFCURVE",
"304 152 CURVE SMOOTH",
"318 125 OFFCURVE",
"320 90 OFFCURVE",
"320 90 CURVE",
"275 100 OFFCURVE",
"226 121 OFFCURVE",
"179 149 CURVE SMOOTH",
"179 149 OFFCURVE",
"191 202 OFFCURVE",
"233 202 CURVE SMOOTH"
);
}
);
width = 410;
}
);
unicode = FEE3;
},
{
glyphname = uni06BA;
layers = (
{
anchors = (
{
name = bottom;
position = "{284, -229}";
},
{
name = top;
position = "{278, 19}";
}
);
layerId = "51F41761-070F-43EA-B302-C90910850260";
name = Regular;
paths = (
{
closed = 1;
nodes = (
"447 231 OFFCURVE",
"426 205 OFFCURVE",
"412 178 CURVE",
"415 174 OFFCURVE",
"488 73 OFFCURVE",
"488 24 CURVE SMOOTH",
"488 -4 OFFCURVE",
"466 -31 OFFCURVE",
"431 -51 CURVE SMOOTH",
"396 -71 OFFCURVE",
"349 -83 OFFCURVE",
"292 -83 CURVE SMOOTH",
"214 -83 OFFCURVE",
"159 -61 OFFCURVE",
"132 -27 CURVE SMOOTH",
"106 6 OFFCURVE",
"109 47 OFFCURVE",
"119 104 CURVE",
"100 111 LINE",
"82 68 OFFCURVE",
"73 26 OFFCURVE",
"71 -2 CURVE SMOOTH",
"69 -31 OFFCURVE",
"72 -61 OFFCURVE",
"84 -90 CURVE SMOOTH",
"98 -124 OFFCURVE",
"121 -149 OFFCURVE",
"156 -168 CURVE SMOOTH",
"191 -187 OFFCURVE",
"234 -196 OFFCURVE",
"284 -196 CURVE SMOOTH",
"321 -196 OFFCURVE",
"354 -191 OFFCURVE",
"384 -181 CURVE SMOOTH",
"411 -172 OFFCURVE",
"436 -160 OFFCURVE",
"460 -138 CURVE SMOOTH",
"505 -97 OFFCURVE",
"528 -34 OFFCURVE",
"528 43 CURVE SMOOTH",
"528 93 OFFCURVE",
"518 139 OFFCURVE",
"499 184 CURVE SMOOTH",
"485 218 OFFCURVE",
"470 237 OFFCURVE",
"461 248 CURVE"
);
}
);
width = 588;
}
);
unicode = 06BA;
},
{
glyphname = uniFB9F;
layers = (
{
anchors = (
{
name = bottom;
position = "{282, -318}";
},
{
name = top;
position = "{285, -59}";
}
);
layerId = "51F41761-070F-43EA-B302-C90910850260";
name = Regular;
paths = (
{
closed = 1;
nodes = (
"657 98 LINE",
"568 98 LINE SMOOTH",
"551 98 OFFCURVE",
"504 102 OFFCURVE",
"463 153 CURVE SMOOTH",
"459 158 LINE",
"445 140 OFFCURVE",
"430 119 OFFCURVE",
"416 94 CURVE",
"461 19 OFFCURVE",
"487 -31 OFFCURVE",
"487 -64 CURVE SMOOTH",
"487 -95 OFFCURVE",
"463 -122 OFFCURVE",
"431 -140 CURVE SMOOTH",
"401 -157 OFFCURVE",
"353 -172 OFFCURVE",
"290 -172 CURVE SMOOTH",
"254 -172 OFFCURVE",
"221 -167 OFFCURVE",
"195 -158 CURVE SMOOTH",
"163 -147 OFFCURVE",
"143 -133 OFFCURVE",
"130 -113 CURVE SMOOTH",
"109 -82 OFFCURVE",
"109 -39 OFFCURVE",
"119 15 CURVE",
"100 22 LINE",
"83 -19 OFFCURVE",
"74 -57 OFFCURVE",
"71 -91 CURVE SMOOTH",
"68 -123 OFFCURVE",
"72 -154 OFFCURVE",
"83 -180 CURVE SMOOTH",
"96 -210 OFFCURVE",
"117 -236 OFFCURVE",
"156 -257 CURVE SMOOTH",
"190 -275 OFFCURVE",
"230 -285 OFFCURVE",
"282 -285 CURVE SMOOTH",
"318 -285 OFFCURVE",
"348 -280 OFFCURVE",
"369 -274 CURVE SMOOTH",
"408 -263 OFFCURVE",
"449 -238 OFFCURVE",
"476 -209 CURVE SMOOTH",
"540 -140 OFFCURVE",
"541 -39 OFFCURVE",
"524 19 CURVE",
"544 4 OFFCURVE",
"563 0 OFFCURVE",
"594 0 CURVE SMOOTH",
"657 0 LINE"
);
}
);
width = 657;
}
);
unicode = FB9F;
},
{
glyphname = uni0647;
layers = (
{
anchors = (
{
name = bottom;
position = "{175, -35}";
},
{
name = top;
position = "{138, 357}";
}
);
layerId = "51F41761-070F-43EA-B302-C90910850260";
name = Regular;
paths = (
{
closed = 1;
nodes = (
"301 161 OFFCURVE",
"295 188 OFFCURVE",
"285 211 CURVE SMOOTH",
"273 238 OFFCURVE",
"256 261 OFFCURVE",
"234 279 CURVE SMOOTH",
"207 302 OFFCURVE",
"174 318 OFFCURVE",
"138 327 CURVE",
"117 309 OFFCURVE",
"106 297 OFFCURVE",
"81 265 CURVE",
"118 249 LINE",
"94 223 OFFCURVE",
"70 171 OFFCURVE",
"70 113 CURVE SMOOTH",
"70 88 OFFCURVE",
"75 55 OFFCURVE",
"94 29 CURVE SMOOTH",
"111 6 OFFCURVE",
"141 -5 OFFCURVE",
"176 -5 CURVE SMOOTH",
"230 -5 OFFCURVE",
"262 12 OFFCURVE",
"282 47 CURVE SMOOTH",
"299 77 OFFCURVE",
"301 114 OFFCURVE",
"301 132 CURVE SMOOTH"
);
},
{
closed = 1;
nodes = (
"256 180 OFFCURVE",
"268 167 OFFCURVE",
"268 151 CURVE SMOOTH",
"268 128 OFFCURVE",
"241 100 OFFCURVE",
"205 100 CURVE SMOOTH",
"179 100 OFFCURVE",
"153 104 OFFCURVE",
"140 112 CURVE SMOOTH",
"121 123 OFFCURVE",
"114 142 OFFCURVE",
"114 163 CURVE SMOOTH",
"114 206 OFFCURVE",
"147 236 OFFCURVE",
"147 236 CURVE",
"172 228 OFFCURVE",
"206 211 OFFCURVE",
"221 202 CURVE SMOOTH"
);
}
);
width = 361;
}
);
unicode = 0647;
},
{
glyphname = uniFEEA;
layers = (
{
anchors = (
{
name = bottom;
position = "{160, 38}";
},
{
name = top;
position = "{151, 323}";
}
);
layerId = "51F41761-070F-43EA-B302-C90910850260";
name = Regular;
paths = (
{
closed = 1;
nodes = (
"390 98 LINE SMOOTH",
"359 98 OFFCURVE",
"341 107 OFFCURVE",
"326 140 CURVE SMOOTH",
"315 164 OFFCURVE",
"305 196 OFFCURVE",
"289 242 CURVE SMOOTH",
"280 268 OFFCURVE",
"270 298 OFFCURVE",
"258 336 CURVE",
"238 322 OFFCURVE",
"225 311 OFFCURVE",
"211 293 CURVE",
"224 257 LINE",
"195 254 OFFCURVE",
"166 250 OFFCURVE",
"130 229 CURVE SMOOTH",
"111 218 OFFCURVE",
"85 199 OFFCURVE",
"81 175 CURVE SMOOTH",
"71 115 LINE SMOOTH",
"67 88 OFFCURVE",
"85 76 OFFCURVE",
"106 70 CURVE SMOOTH",
"132 63 OFFCURVE",
"171 63 OFFCURVE",
"200 68 CURVE",
"223 91 OFFCURVE",
"241 118 OFFCURVE",
"255 158 CURVE",
"267 114 OFFCURVE",
"279 76 OFFCURVE",
"298 48 CURVE SMOOTH",
"318 18 OFFCURVE",
"346 0 OFFCURVE",
"391 0 CURVE SMOOTH",
"433 0 LINE",
"433 98 LINE"
);
},
{
closed = 1;
nodes = (
"115 141 LINE",
"116 150 LINE SMOOTH",
"119 176 OFFCURVE",
"139 200 OFFCURVE",
"171 207 CURVE SMOOTH",
"188 211 OFFCURVE",
"208 210 OFFCURVE",
"216 210 CURVE",
"230 239 LINE",
"244 195 LINE",
"231 164 OFFCURVE",
"215 141 OFFCURVE",
"186 141 CURVE SMOOTH"
);
}
);
width = 433;
}
);
unicode = FEEA;
},
{
glyphname = uniFEEC;
layers = (
{
anchors = (
{
name = bottom;
position = "{193, -215}";
},
{
name = top;
position = "{164, 321}";
}
);
layerId = "51F41761-070F-43EA-B302-C90910850260";
name = Regular;
paths = (
{
closed = 1;
nodes = (
"293 98 LINE SMOOTH",
"271 98 OFFCURVE",
"242 97 OFFCURVE",
"212 79 CURVE",
"255 123 OFFCURVE",
"278 156 OFFCURVE",
"278 198 CURVE SMOOTH",
"278 226 OFFCURVE",
"268 257 OFFCURVE",
"244 291 CURVE",
"198 287 OFFCURVE",
"159 257 OFFCURVE",
"130 218 CURVE SMOOTH",
"99 176 OFFCURVE",
"86 134 OFFCURVE",
"78 98 CURVE",
"-21 98 LINE SMOOTH",
"-46 98 OFFCURVE",
"-70 77 OFFCURVE",
"-70 49 CURVE SMOOTH",
"-70 22 OFFCURVE",
"-48 0 OFFCURVE",
"-21 0 CURVE SMOOTH",
"38 0 LINE",
"34 -19 LINE",
"50 -12 OFFCURVE",
"54 -10 OFFCURVE",
"71 -6 CURVE SMOOTH",
"74 -54 OFFCURVE",
"86 -95 OFFCURVE",
"114 -130 CURVE SMOOTH",
"134 -155 OFFCURVE",
"168 -185 OFFCURVE",
"213 -185 CURVE SMOOTH",
"249 -185 OFFCURVE",
"269 -166 OFFCURVE",
"280 -150 CURVE SMOOTH",
"291 -134 OFFCURVE",
"301 -108 OFFCURVE",
"301 -85 CURVE SMOOTH",
"301 -34 OFFCURVE",
"252 0 OFFCURVE",
"252 0 CURVE",
"437 0 LINE",
"437 98 LINE"
);
},
{
closed = 1;
nodes = (
"241 158 OFFCURVE",
"234 146 OFFCURVE",
"221 136 CURVE SMOOTH",
"199 119 OFFCURVE",
"159 107 OFFCURVE",
"123 98 CURVE",
"128 124 OFFCURVE",
"133 141 OFFCURVE",
"155 175 CURVE SMOOTH",
"168 194 OFFCURVE",
"186 213 OFFCURVE",
"209 232 CURVE",
"224 215 OFFCURVE",
"241 188 OFFCURVE",
"241 170 CURVE SMOOTH"
);
},
{
closed = 1;
nodes = (
"262 -56 OFFCURVE",
"267 -94 OFFCURVE",
"267 -113 CURVE",
"227 -115 OFFCURVE",
"195 -107 OFFCURVE",
"166 -89 CURVE SMOOTH",
"113 -55 OFFCURVE",
"118 0 OFFCURVE",
"118 0 CURVE SMOOTH",
"118 0 OFFCURVE",
"179 5 OFFCURVE",
"219 -24 CURVE SMOOTH"
);
}
);
width = 437;
}
);
unicode = FEEC;
},
{
glyphname = uniFEEB;
layers = (
{
anchors = (
{
name = bottom;
position = "{155, -10}";
},
{
name = top;
position = "{126, 387}";
}
);
layerId = "51F41761-070F-43EA-B302-C90910850260";
name = Regular;
paths = (
{
closed = 1;
nodes = (
"357 161 OFFCURVE",
"345 195 OFFCURVE",
"320 227 CURVE SMOOTH",
"299 253 OFFCURVE",
"271 276 OFFCURVE",
"232 300 CURVE SMOOTH",
"213 311 OFFCURVE",
"192 322 OFFCURVE",
"172 332 CURVE SMOOTH",
"155 341 OFFCURVE",
"139 349 OFFCURVE",
"126 357 CURVE",
"120 347 OFFCURVE",
"113 336 OFFCURVE",
"107 326 CURVE",
"95 303 OFFCURVE",
"106 291 OFFCURVE",
"126 280 CURVE",
"144 271 LINE",
"112 269 OFFCURVE",
"76 245 OFFCURVE",
"58 217 CURVE SMOOTH",
"40 190 OFFCURVE",
"37 162 OFFCURVE",
"39 140 CURVE SMOOTH",
"41 127 OFFCURVE",
"44 116 OFFCURVE",
"51 98 CURVE SMOOTH",
"-20 98 LINE SMOOTH",
"-47 98 OFFCURVE",
"-70 76 OFFCURVE",
"-70 49 CURVE SMOOTH",
"-70 21 OFFCURVE",
"-48 0 OFFCURVE",
"-20 0 CURVE SMOOTH",
"33 0 LINE SMOOTH",
"91 0 OFFCURVE",
"128 12 OFFCURVE",
"154 47 CURVE",
"197 32 OFFCURVE",
"241 13 OFFCURVE",
"276 -7 CURVE",
"291 9 OFFCURVE",
"307 25 OFFCURVE",
"322 41 CURVE SMOOTH",
"344 65 OFFCURVE",
"355 93 OFFCURVE",
"357 123 CURVE SMOOTH"
);
},
{
closed = 1;
nodes = (
"195 170 OFFCURVE",
"189 155 OFFCURVE",
"173 143 CURVE SMOOTH",
"161 135 OFFCURVE",
"148 131 OFFCURVE",
"137 131 CURVE SMOOTH",
"130 131 OFFCURVE",
"121 132 OFFCURVE",
"102 144 CURVE SMOOTH",
"87 152 OFFCURVE",
"72 166 OFFCURVE",
"72 177 CURVE SMOOTH",
"72 186 OFFCURVE",
"84 202 OFFCURVE",
"103 219 CURVE SMOOTH",
"124 237 OFFCURVE",
"137 243 OFFCURVE",
"150 243 CURVE SMOOTH",
"164 243 OFFCURVE",
"172 235 OFFCURVE",
"182 217 CURVE SMOOTH",
"190 203 OFFCURVE",
"195 187 OFFCURVE",
"195 179 CURVE SMOOTH"
);
},
{
closed = 1;
nodes = (
"273 93 OFFCURVE",
"235 102 OFFCURVE",
"197 112 CURVE",
"213 128 OFFCURVE",
"223 148 OFFCURVE",
"226 169 CURVE SMOOTH",
"230 192 OFFCURVE",
"226 217 OFFCURVE",
"215 240 CURVE",
"253 217 OFFCURVE",
"277 192 OFFCURVE",
"293 161 CURVE SMOOTH",
"304 139 OFFCURVE",
"309 113 OFFCURVE",
"311 83 CURVE"
);
}
);
width = 417;
}
);
unicode = FEEB;
},
{
glyphname = uniFBA7;
layers = (
{
anchors = (
{
name = bottom;
position = "{134, -25}";
},
{
name = top;
position = "{195, 234}";
}
);
layerId = "51F41761-070F-43EA-B302-C90910850260";
name = Regular;
paths = (
{
closed = 1;
nodes = (
"386 98 LINE SMOOTH",
"355 98 OFFCURVE",
"332 115 OFFCURVE",
"315 139 CURVE SMOOTH",
"297 165 OFFCURVE",
"271 204 OFFCURVE",
"232 204 CURVE SMOOTH",
"197 204 OFFCURVE",
"161 173 OFFCURVE",
"123 104 CURVE SMOOTH",
"96 55 OFFCURVE",
"78 4 OFFCURVE",
"70 -20 CURVE",
"88 -15 LINE",
"92 -6 OFFCURVE",
"106 23 OFFCURVE",
"126 56 CURVE SMOOTH",
"146 89 OFFCURVE",
"175 133 OFFCURVE",
"219 133 CURVE SMOOTH",
"252 133 OFFCURVE",
"266 109 OFFCURVE",
"283 76 CURVE SMOOTH",
"295 52 OFFCURVE",
"302 41 OFFCURVE",
"311 31 CURVE SMOOTH",
"327 13 OFFCURVE",
"347 0 OFFCURVE",
"384 0 CURVE SMOOTH",
"420 0 LINE",
"420 98 LINE"
);
}
);
width = 420;
}
);
unicode = FBA7;
},
{
glyphname = uniFBA9;
layers = (
{
anchors = (
{
name = bottom;
position = "{212, -214}";
},
{
name = top;
position = "{200, 198}";
}
);
layerId = "51F41761-070F-43EA-B302-C90910850260";
name = Regular;
paths = (
{
closed = 1;
nodes = (
"337 98 LINE SMOOTH",
"286 98 OFFCURVE",
"247 83 OFFCURVE",
"221 56 CURVE SMOOTH",
"192 26 OFFCURVE",
"186 -18 OFFCURVE",
"198 -60 CURVE SMOOTH",
"171 -22 OFFCURVE",
"161 -4 OFFCURVE",
"152 48 CURVE SMOOTH",
"146 81 OFFCURVE",
"144 123 OFFCURVE",
"149 174 CURVE",
"128 163 LINE",
"127 147 OFFCURVE",
"119 132 OFFCURVE",
"106 120 CURVE SMOOTH",
"93 108 OFFCURVE",
"75 98 OFFCURVE",
"39 98 CURVE SMOOTH",
"-20 98 LINE SMOOTH",
"-47 98 OFFCURVE",
"-70 76 OFFCURVE",
"-70 48 CURVE SMOOTH",
"-70 21 OFFCURVE",
"-48 0 OFFCURVE",
"-20 0 CURVE SMOOTH",
"22 0 LINE SMOOTH",
"67 0 OFFCURVE",
"91 13 OFFCURVE",
"109 47 CURVE",
"108 19 OFFCURVE",
"110 -12 OFFCURVE",
"116 -39 CURVE SMOOTH",
"122 -67 OFFCURVE",
"135 -94 OFFCURVE",
"148 -115 CURVE SMOOTH",
"164 -141 OFFCURVE",
"181 -161 OFFCURVE",
"212 -184 CURVE",
"236 -164 OFFCURVE",
"251 -149 OFFCURVE",
"271 -123 CURVE",
"258 -107 OFFCURVE",
"248 -91 OFFCURVE",
"242 -69 CURVE SMOOTH",
"236 -47 OFFCURVE",
"237 -28 OFFCURVE",
"244 -11 CURVE SMOOTH",
"253 11 OFFCURVE",
"273 30 OFFCURVE",
"312 30 CURVE SMOOTH",
"339 30 OFFCURVE",
"358 21 OFFCURVE",
"372 13 CURVE SMOOTH",
"385 6 OFFCURVE",
"397 0 OFFCURVE",
"430 0 CURVE SMOOTH",
"463 0 LINE",
"463 98 LINE"
);
}
);
width = 463;
}
);
unicode = FBA9;
},
{
glyphname = uniFBA8;
layers = (
{
anchors = (
{
name = bottom;
position = "{6, -216}";
},
{
name = top;
position = "{-1, 264}";
}
);
layerId = "51F41761-070F-43EA-B302-C90910850260";
name = Regular;
paths = (
{
closed = 1;
nodes = (
"163 215 OFFCURVE",
"144 263 OFFCURVE",
"111 299 CURVE",
"94 280 OFFCURVE",
"82 260 OFFCURVE",
"68 230 CURVE",
"92 201 OFFCURVE",
"109 183 OFFCURVE",
"129 158 CURVE",
"129 158 OFFCURVE",
"111 98 OFFCURVE",
"34 98 CURVE SMOOTH",
"-21 98 LINE SMOOTH",
"-50 98 OFFCURVE",
"-70 77 OFFCURVE",
"-70 50 CURVE SMOOTH",
"-70 22 OFFCURVE",
"-49 0 OFFCURVE",
"-21 0 CURVE SMOOTH",
"26 0 LINE SMOOTH",
"74 0 OFFCURVE",
"108 19 OFFCURVE",
"132 56 CURVE SMOOTH",
"153 89 OFFCURVE",
"163 122 OFFCURVE",
"163 165 CURVE SMOOTH"
);
},
{
closed = 1;
nodes = (
"87 -22 LINE",
"37 -42 OFFCURVE",
"-13 -74 OFFCURVE",
"-26 -129 CURVE SMOOTH",
"-34 -165 OFFCURVE",
"-13 -188 OFFCURVE",
"8 -188 CURVE SMOOTH",
"29 -188 OFFCURVE",
"38 -176 OFFCURVE",
"41 -162 CURVE",
"16 -155 OFFCURVE",
"2 -143 OFFCURVE",
"10 -110 CURVE SMOOTH",
"16 -85 OFFCURVE",
"37 -66 OFFCURVE",
"87 -40 CURVE"
);
}
);
width = 223;
}
);
unicode = FBA8;
},
{
glyphname = uniFBAB;
layers = (
{
anchors = (
{
name = bottom;
position = "{297, -10}";
},
{
name = top;
position = "{262, 387}";
}
);
layerId = "51F41761-070F-43EA-B302-C90910850260";
name = Regular;
paths = (
{
closed = 1;
nodes = (
"569 98 LINE SMOOTH",
"535 98 OFFCURVE",
"503 98 OFFCURVE",
"492 111 CURVE",
"497 167 OFFCURVE",
"474 205 OFFCURVE",
"456 227 CURVE SMOOTH",
"435 253 OFFCURVE",
"407 276 OFFCURVE",
"368 300 CURVE SMOOTH",
"349 311 OFFCURVE",
"328 322 OFFCURVE",
"308 332 CURVE SMOOTH",
"291 341 OFFCURVE",
"275 349 OFFCURVE",
"262 357 CURVE",
"256 347 OFFCURVE",
"249 336 OFFCURVE",
"243 326 CURVE",
"231 303 OFFCURVE",
"242 291 OFFCURVE",
"262 280 CURVE",
"280 271 LINE",
"248 269 OFFCURVE",
"212 245 OFFCURVE",
"194 217 CURVE SMOOTH",
"180 196 OFFCURVE",
"173 171 OFFCURVE",
"173 147 CURVE",
"174 125 OFFCURVE",
"180 100 OFFCURVE",
"196 81 CURVE",
"180 65 OFFCURVE",
"140 43 OFFCURVE",
"79 25 CURVE",
"70 -4 LINE",
"120 -13 OFFCURVE",
"158 -9 OFFCURVE",
"194 -3 CURVE SMOOTH",
"228 3 OFFCURVE",
"259 17 OFFCURVE",
"291 46 CURVE",
"333 31 OFFCURVE",
"371 13 OFFCURVE",
"412 -7 CURVE",
"440 23 LINE SMOOTH",
"454 39 OFFCURVE",
"462 47 OFFCURVE",
"467 58 CURVE",
"469 43 OFFCURVE",
"476 31 OFFCURVE",
"486 21 CURVE SMOOTH",
"502 4 OFFCURVE",
"533 0 OFFCURVE",
"567 0 CURVE SMOOTH",
"613 0 LINE",
"613 98 LINE"
);
},
{
closed = 1;
nodes = (
"326 203 OFFCURVE",
"331 187 OFFCURVE",
"331 179 CURVE SMOOTH",
"331 170 OFFCURVE",
"325 155 OFFCURVE",
"309 143 CURVE",
"297 135 OFFCURVE",
"284 131 OFFCURVE",
"273 131 CURVE SMOOTH",
"266 131 OFFCURVE",
"257 132 OFFCURVE",
"238 144 CURVE",
"223 152 OFFCURVE",
"208 166 OFFCURVE",
"208 177 CURVE SMOOTH",
"208 186 OFFCURVE",
"220 202 OFFCURVE",
"239 219 CURVE SMOOTH",
"260 237 OFFCURVE",
"273 243 OFFCURVE",
"286 243 CURVE SMOOTH",
"300 243 OFFCURVE",
"308 235 OFFCURVE",
"318 217 CURVE SMOOTH"
);
},
{
closed = 1;
nodes = (
"440 139 OFFCURVE",
"445 113 OFFCURVE",
"447 83 CURVE",
"409 93 OFFCURVE",
"371 102 OFFCURVE",
"333 112 CURVE",
"349 128 OFFCURVE",
"359 148 OFFCURVE",
"362 169 CURVE SMOOTH",
"366 192 OFFCURVE",
"362 217 OFFCURVE",
"351 240 CURVE",
"389 217 OFFCURVE",
"413 192 OFFCURVE",
"429 161 CURVE SMOOTH"
);
}
);
width = 613;
}
);
unicode = FBAB;
},
{
glyphname = uniFBAD;
layers = (
{
anchors = (
{
name = bottom;
position = "{164, -26}";
},
{
name = top;
position = "{126, 387}";
}
);
layerId = "51F41761-070F-43EA-B302-C90910850260";
name = Regular;
paths = (
{
closed = 1;
nodes = (
"433 98 LINE",
"399 98 OFFCURVE",
"367 98 OFFCURVE",
"356 111 CURVE",
"361 167 OFFCURVE",
"338 205 OFFCURVE",
"320 227 CURVE SMOOTH",
"299 253 OFFCURVE",
"271 276 OFFCURVE",
"232 300 CURVE SMOOTH",
"213 311 OFFCURVE",
"192 322 OFFCURVE",
"172 332 CURVE SMOOTH",
"155 341 OFFCURVE",
"139 349 OFFCURVE",
"126 357 CURVE",
"120 347 OFFCURVE",
"113 336 OFFCURVE",
"107 326 CURVE",
"95 303 OFFCURVE",
"106 291 OFFCURVE",
"126 280 CURVE",
"144 271 LINE",
"112 269 OFFCURVE",
"76 245 OFFCURVE",
"58 217 CURVE SMOOTH",
"40 190 OFFCURVE",
"37 162 OFFCURVE",
"39 140 CURVE",
"41 127 OFFCURVE",
"44 116 OFFCURVE",
"51 98 CURVE",
"-20 98 LINE SMOOTH",
"-47 98 OFFCURVE",
"-70 76 OFFCURVE",
"-70 49 CURVE SMOOTH",
"-70 21 OFFCURVE",
"-48 0 OFFCURVE",
"-20 0 CURVE SMOOTH",
"33 0 LINE SMOOTH",
"91 0 OFFCURVE",
"128 12 OFFCURVE",
"154 47 CURVE",
"197 32 OFFCURVE",
"241 13 OFFCURVE",
"276 -7 CURVE",
"304 23 LINE SMOOTH",
"318 39 OFFCURVE",
"326 47 OFFCURVE",
"331 58 CURVE",
"333 43 OFFCURVE",
"340 31 OFFCURVE",
"350 21 CURVE SMOOTH",
"366 4 OFFCURVE",
"397 0 OFFCURVE",
"431 0 CURVE SMOOTH",
"477 0 LINE",
"477 98 LINE"
);
},
{
closed = 1;
nodes = (
"190 203 OFFCURVE",
"195 187 OFFCURVE",
"195 179 CURVE SMOOTH",
"195 170 OFFCURVE",
"189 155 OFFCURVE",
"173 143 CURVE",
"161 135 OFFCURVE",
"148 131 OFFCURVE",
"137 131 CURVE SMOOTH",
"130 131 OFFCURVE",
"121 132 OFFCURVE",
"102 144 CURVE",
"87 152 OFFCURVE",
"72 166 OFFCURVE",
"72 177 CURVE SMOOTH",
"72 186 OFFCURVE",
"84 202 OFFCURVE",
"103 219 CURVE SMOOTH",
"124 237 OFFCURVE",
"137 243 OFFCURVE",
"150 243 CURVE SMOOTH",
"164 243 OFFCURVE",
"172 235 OFFCURVE",
"182 217 CURVE SMOOTH"
);
},
{
closed = 1;
nodes = (
"304 139 OFFCURVE",
"309 113 OFFCURVE",
"311 83 CURVE",
"273 93 OFFCURVE",
"235 102 OFFCURVE",
"197 112 CURVE",
"213 128 OFFCURVE",
"223 148 OFFCURVE",
"226 169 CURVE SMOOTH",
"230 192 OFFCURVE",
"226 217 OFFCURVE",
"215 240 CURVE",
"253 217 OFFCURVE",
"277 192 OFFCURVE",
"293 161 CURVE SMOOTH"
);
}
);
width = 477;
}
);
unicode = FBAD;
},
{
glyphname = uni0648;
layers = (
{
anchors = (
{
name = bottom;
position = "{76, -268}";
},
{
name = center;
position = "{106, -34}";
},
{
name = top;
position = "{175, 333}";
}
);
layerId = "51F41761-070F-43EA-B302-C90910850260";
name = Regular;
paths = (
{
closed = 1;
nodes = (
"257 243 OFFCURVE",
"236 303 OFFCURVE",
"185 303 CURVE SMOOTH",
"157 303 OFFCURVE",
"134 282 OFFCURVE",
"118 255 CURVE SMOOTH",
"100 225 OFFCURVE",
"90 187 OFFCURVE",
"89 160 CURVE SMOOTH",
"87 119 OFFCURVE",
"94 89 OFFCURVE",
"112 70 CURVE SMOOTH",
"126 55 OFFCURVE",
"148 47 OFFCURVE",
"179 47 CURVE SMOOTH",
"233 47 OFFCURVE",
"249 78 OFFCURVE",
"254 92 CURVE",
"255 66 OFFCURVE",
"254 33 OFFCURVE",
"249 11 CURVE SMOOTH",
"231 -64 OFFCURVE",
"170 -117 OFFCURVE",
"109 -151 CURVE SMOOTH",
"56 -181 OFFCURVE",
"0 -210 OFFCURVE",
"-20 -221 CURVE",
"-11 -234 LINE",
"11 -229 OFFCURVE",
"30 -226 OFFCURVE",
"47 -226 CURVE SMOOTH",
"68 -226 OFFCURVE",
"89 -230 OFFCURVE",
"118 -230 CURVE SMOOTH",
"143 -230 OFFCURVE",
"165 -225 OFFCURVE",
"190 -208 CURVE SMOOTH",
"210 -195 OFFCURVE",
"231 -173 OFFCURVE",
"243 -149 CURVE SMOOTH",
"261 -112 OFFCURVE",
"272 -76 OFFCURVE",
"279 -42 CURVE SMOOTH",
"290 14 OFFCURVE",
"289 63 OFFCURVE",
"287 99 CURVE SMOOTH",
"284 166 OFFCURVE",
"272 202 OFFCURVE",
"265 220 CURVE SMOOTH"
);
},
{
closed = 1;
nodes = (
"241 168 OFFCURVE",
"244 145 OFFCURVE",
"244 145 CURVE SMOOTH",
"244 145 OFFCURVE",
"224 120 OFFCURVE",
"186 120 CURVE SMOOTH",
"153 120 OFFCURVE",
"121 133 OFFCURVE",
"121 167 CURVE SMOOTH",
"121 204 OFFCURVE",
"147 226 OFFCURVE",
"177 226 CURVE SMOOTH",
"203 226 OFFCURVE",
"219 208 OFFCURVE",
"229 189 CURVE SMOOTH"
);
}
);
width = 348;
}
);
unicode = 0648;
},
{
glyphname = uniFEEE;
layers = (
{
anchors = (
{
name = bottom;
position = "{103, -319}";
},
{
name = center;
position = "{114, -77}";
},
{
name = top;
position = "{173, 288}";
}
);
layerId = "51F41761-070F-43EA-B302-C90910850260";
name = Regular;
paths = (
{
closed = 1;
nodes = (
"287 98 LINE",
"287 128 OFFCURVE",
"278 164 OFFCURVE",
"265 192 CURVE SMOOTH",
"247 230 OFFCURVE",
"219 258 OFFCURVE",
"183 258 CURVE SMOOTH",
"150 258 OFFCURVE",
"123 231 OFFCURVE",
"107 197 CURVE SMOOTH",
"95 170 OFFCURVE",
"89 150 OFFCURVE",
"89 117 CURVE SMOOTH",
"89 98 OFFCURVE",
"91 60 OFFCURVE",
"109 35 CURVE SMOOTH",
"126 10 OFFCURVE",
"156 0 OFFCURVE",
"197 0 CURVE SMOOTH",
"249 0 LINE",
"249 -11 OFFCURVE",
"247 -26 OFFCURVE",
"244 -38 CURVE SMOOTH",
"234 -79 OFFCURVE",
"212 -119 OFFCURVE",
"179 -150 CURVE SMOOTH",
"158 -170 OFFCURVE",
"131 -188 OFFCURVE",
"110 -200 CURVE SMOOTH",
"84 -215 OFFCURVE",
"-8 -263 OFFCURVE",
"-20 -270 CURVE",
"-11 -283 LINE",
"11 -278 OFFCURVE",
"30 -275 OFFCURVE",
"49 -275 CURVE SMOOTH",
"70 -275 OFFCURVE",
"99 -279 OFFCURVE",
"117 -279 CURVE SMOOTH",
"138 -279 OFFCURVE",
"165 -274 OFFCURVE",
"190 -258 CURVE SMOOTH",
"211 -244 OFFCURVE",
"228 -224 OFFCURVE",
"243 -197 CURVE SMOOTH",
"280 -128 OFFCURVE",
"289 -38 OFFCURVE",
"289 0 CURVE",
"405 0 LINE SMOOTH",
"405 98 LINE SMOOTH"
);
},
{
closed = 1;
nodes = (
"243 122 OFFCURVE",
"244 104 OFFCURVE",
"244 98 CURVE",
"186 98 LINE SMOOTH",
"151 98 OFFCURVE",
"121 104 OFFCURVE",
"121 142 CURVE SMOOTH",
"121 165 OFFCURVE",
"144 186 OFFCURVE",
"175 186 CURVE SMOOTH",
"202 186 OFFCURVE",
"221 169 OFFCURVE",
"231 148 CURVE SMOOTH"
);
}
);
width = 405;
}
);
unicode = FEEE;
},
{
glyphname = uni0649;
layers = (
{
anchors = (
{
name = bottom;
position = "{285, -229}";
},
{
name = top;
position = "{193, 121}";
}
);
layerId = "51F41761-070F-43EA-B302-C90910850260";
name = Regular;
paths = (
{
closed = 1;
nodes = (
"410 130 OFFCURVE",
"391 144 OFFCURVE",
"391 165 CURVE SMOOTH",
"391 170 OFFCURVE",
"399 199 OFFCURVE",
"423 226 CURVE SMOOTH",
"446 251 OFFCURVE",
"482 279 OFFCURVE",
"541 279 CURVE",
"541 279 OFFCURVE",
"556 274 OFFCURVE",
"579 230 CURVE",
"597 238 LINE",
"598 255 OFFCURVE",
"596 314 OFFCURVE",
"566 345 CURVE SMOOTH",
"554 359 OFFCURVE",
"536 366 OFFCURVE",
"516 366 CURVE SMOOTH",
"481 366 OFFCURVE",
"430 347 OFFCURVE",
"383 255 CURVE SMOOTH",
"351 192 OFFCURVE",
"338 127 OFFCURVE",
"338 107 CURVE SMOOTH",
"338 85 OFFCURVE",
"354 69 OFFCURVE",
"374 59 CURVE SMOOTH",
"395 48 OFFCURVE",
"420 42 OFFCURVE",
"439 39 CURVE SMOOTH",
"520 25 OFFCURVE",
"556 19 OFFCURVE",
"556 19 CURVE SMOOTH",
"556 19 OFFCURVE",
"526 -26 OFFCURVE",
"453 -57 CURVE SMOOTH",
"414 -74 OFFCURVE",
"362 -86 OFFCURVE",
"296 -86 CURVE SMOOTH",
"221 -86 OFFCURVE",
"164 -70 OFFCURVE",
"133 -32 CURVE SMOOTH",
"107 1 OFFCURVE",
"109 53 OFFCURVE",
"120 111 CURVE",
"101 118 LINE",
"83 78 OFFCURVE",
"71 33 OFFCURVE",
"70 -9 CURVE SMOOTH",
"69 -64 OFFCURVE",
"85 -115 OFFCURVE",
"126 -149 CURVE SMOOTH",
"166 -182 OFFCURVE",
"223 -199 OFFCURVE",
"285 -199 CURVE SMOOTH",
"344 -199 OFFCURVE",
"405 -182 OFFCURVE",
"459 -155 CURVE SMOOTH",
"503 -134 OFFCURVE",
"534 -105 OFFCURVE",
"555 -75 CURVE SMOOTH",
"591 -25 OFFCURVE",
"599 29 OFFCURVE",
"599 56 CURVE SMOOTH",
"599 77 OFFCURVE",
"590 108 OFFCURVE",
"484 121 CURVE SMOOTH"
);
}
);
width = 659;
}
);
unicode = 0649;
},
{
glyphname = uniFEF0;
layers = (
{
anchors = (
{
name = bottom;
position = "{293, -311}";
},
{
name = top;
position = "{287, 29}";
}
);
layerId = "51F41761-070F-43EA-B302-C90910850260";
name = Regular;
paths = (
{
closed = 1;
nodes = (
"482 98 LINE",
"460 71 OFFCURVE",
"440 37 OFFCURVE",
"422 -1 CURVE",
"434 -3 OFFCURVE",
"454 -7 OFFCURVE",
"474 -14 CURVE SMOOTH",
"520 -29 OFFCURVE",
"543 -48 OFFCURVE",
"543 -71 CURVE SMOOTH",
"543 -92 OFFCURVE",
"503 -119 OFFCURVE",
"447 -139 CURVE SMOOTH",
"401 -156 OFFCURVE",
"344 -168 OFFCURVE",
"292 -168 CURVE SMOOTH",
"217 -168 OFFCURVE",
"163 -152 OFFCURVE",
"132 -114 CURVE SMOOTH",
"105 -81 OFFCURVE",
"108 -29 OFFCURVE",
"119 29 CURVE",
"100 36 LINE",
"84 -2 OFFCURVE",
"74 -50 OFFCURVE",
"71 -87 CURVE SMOOTH",
"68 -120 OFFCURVE",
"72 -149 OFFCURVE",
"83 -175 CURVE SMOOTH",
"96 -206 OFFCURVE",
"117 -231 OFFCURVE",
"147 -248 CURVE SMOOTH",
"182 -270 OFFCURVE",
"228 -281 OFFCURVE",
"283 -281 CURVE SMOOTH",
"342 -281 OFFCURVE",
"404 -266 OFFCURVE",
"457 -237 CURVE SMOOTH",
"508 -211 OFFCURVE",
"547 -175 OFFCURVE",
"567 -137 CURVE SMOOTH",
"585 -103 OFFCURVE",
"589 -75 OFFCURVE",
"589 -58 CURVE SMOOTH",
"589 -36 OFFCURVE",
"582 -14 OFFCURVE",
"563 0 CURVE",
"660 0 LINE",
"660 98 LINE"
);
}
);
width = 660;
}
);
unicode = FEF0;
},
{
glyphname = uni06CD;
layers = (
{
components = (
{
name = uni0649;
}
);
layerId = "51F41761-070F-43EA-B302-C90910850260";
name = Regular;
paths = (
{
closed = 1;
nodes = (
"72 101 OFFCURVE",
"40 85 OFFCURVE",
"1 75 CURVE",
"30 40 LINE",
"101 71 LINE",
"101 118 LINE"
);
}
);
width = 659;
}
);
unicode = 06CD;
},
{
glyphname = uni06CD.fina;
layers = (
{
components = (
{
name = uniFEF0;
}
);
layerId = "51F41761-070F-43EA-B302-C90910850260";
name = Regular;
paths = (
{
closed = 1;
nodes = (
"71 19 OFFCURVE",
"39 3 OFFCURVE",
"0 -7 CURVE",
"29 -42 LINE",
"100 -11 LINE",
"100 36 LINE"
);
}
);
width = 660;
}
);
},
{
glyphname = uni06D2;
layers = (
{
anchors = (
{
name = bottom;
position = "{432, -27}";
},
{
name = top;
position = "{407, 437}";
}
);
layerId = "51F41761-070F-43EA-B302-C90910850260";
name = Regular;
paths = (
{
closed = 1;
nodes = (
"460 280 OFFCURVE",
"466 351 OFFCURVE",
"442 387 CURVE SMOOTH",
"430 405 OFFCURVE",
"414 407 OFFCURVE",
"407 407 CURVE SMOOTH",
"388 407 OFFCURVE",
"374 391 OFFCURVE",
"353 362 CURVE SMOOTH",
"324 320 OFFCURVE",
"313 305 OFFCURVE",
"226 264 CURVE SMOOTH",
"194 249 OFFCURVE",
"153 230 OFFCURVE",
"122 204 CURVE SMOOTH",
"87 175 OFFCURVE",
"70 143 OFFCURVE",
"70 106 CURVE SMOOTH",
"70 73 OFFCURVE",
"83 49 OFFCURVE",
"109 32 CURVE SMOOTH",
"141 11 OFFCURVE",
"194 1 OFFCURVE",
"265 1 CURVE SMOOTH",
"825 1 LINE",
"858 40 OFFCURVE",
"873 65 OFFCURVE",
"890 99 CURVE",
"270 99 LINE SMOOTH",
"170 99 OFFCURVE",
"135 111 OFFCURVE",
"135 145 CURVE SMOOTH",
"135 160 OFFCURVE",
"144 177 OFFCURVE",
"166 186 CURVE SMOOTH",
"261 221 OFFCURVE",
"279 242 OFFCURVE",
"318 281 CURVE SMOOTH",
"328 291 OFFCURVE",
"358 335 OFFCURVE",
"395 335 CURVE SMOOTH",
"441 335 OFFCURVE",
"435 282 OFFCURVE",
"432 242 CURVE",
"451 246 LINE"
);
}
);
width = 950;
}
);
unicode = 06D2;
},
{
glyphname = uniFBAF;
layers = (
{
anchors = (
{
name = bottom;
position = "{266, -304}";
},
{
name = top;
position = "{261, 77}";
}
);
layerId = "51F41761-070F-43EA-B302-C90910850260";
name = Regular;
paths = (
{
closed = 1;
nodes = (
"584 98 LINE",
"470 98 LINE SMOOTH",
"433 98 OFFCURVE",
"399 90 OFFCURVE",
"370 74 CURVE SMOOTH",
"347 61 OFFCURVE",
"337 51 OFFCURVE",
"321 36 CURVE SMOOTH",
"295 12 OFFCURVE",
"253 -9 OFFCURVE",
"226 -21 CURVE SMOOTH",
"193 -37 OFFCURVE",
"156 -55 OFFCURVE",
"126 -79 CURVE SMOOTH",
"69 -125 OFFCURVE",
"70 -164 OFFCURVE",
"70 -179 CURVE SMOOTH",
"70 -193 OFFCURVE",
"75 -224 OFFCURVE",
"110 -248 CURVE SMOOTH",
"144 -272 OFFCURVE",
"198 -284 OFFCURVE",
"266 -284 CURVE SMOOTH",
"567 -284 LINE",
"599 -245 OFFCURVE",
"616 -221 OFFCURVE",
"632 -186 CURVE",
"244 -186 LINE",
"196 -186 OFFCURVE",
"136 -183 OFFCURVE",
"136 -138 CURVE SMOOTH",
"136 -123 OFFCURVE",
"151 -106 OFFCURVE",
"170 -100 CURVE SMOOTH",
"183 -95 OFFCURVE",
"201 -87 OFFCURVE",
"222 -76 CURVE SMOOTH",
"249 -63 OFFCURVE",
"272 -49 OFFCURVE",
"291 -33 CURVE",
"303 -21 OFFCURVE",
"327 0 OFFCURVE",
"384 0 CURVE SMOOTH",
"584 0 LINE"
);
}
);
width = 583;
}
);
unicode = FBAF;
},
{
glyphname = uni08AC.pt.fina;
layers = (
{
anchors = (
{
name = bottom;
position = "{340, -25}";
},
{
name = top;
position = "{391, 338}";
}
);
layerId = "51F41761-070F-43EA-B302-C90910850260";
name = Regular;
paths = (
{
closed = 1;
nodes = (
"454 98 LINE SMOOTH",
"454 98 OFFCURVE",
"472 131 OFFCURVE",
"472 185 CURVE SMOOTH",
"472 267 OFFCURVE",
"430 308 OFFCURVE",
"391 308 CURVE SMOOTH",
"365 308 OFFCURVE",
"338 290 OFFCURVE",
"315 259 CURVE SMOOTH",
"294 231 OFFCURVE",
"277 193 OFFCURVE",
"277 158 CURVE SMOOTH",
"277 120 OFFCURVE",
"297 98 OFFCURVE",
"297 98 CURVE SMOOTH",
"202 98 LINE SMOOTH",
"170 98 OFFCURVE",
"134 89 OFFCURVE",
"108 65 CURVE SMOOTH",
"85 44 OFFCURVE",
"70 12 OFFCURVE",
"70 -35 CURVE SMOOTH",
"70 -86 OFFCURVE",
"101 -137 OFFCURVE",
"170 -156 CURVE",
"196 -139 LINE",
"168 -120 OFFCURVE",
"141 -95 OFFCURVE",
"141 -60 CURVE SMOOTH",
"141 -27 OFFCURVE",
"161 0 OFFCURVE",
"206 0 CURVE SMOOTH",
"308 0 LINE SMOOTH",
"384 0 OFFCURVE",
"422 19 OFFCURVE",
"437 45 CURVE",
"442 34 OFFCURVE",
"461 0 OFFCURVE",
"531 0 CURVE SMOOTH",
"602 0 LINE",
"602 98 LINE"
);
},
{
closed = 1;
nodes = (
"439 155 OFFCURVE",
"416 110 OFFCURVE",
"374 110 CURVE SMOOTH",
"326 110 OFFCURVE",
"309 170 OFFCURVE",
"309 170 CURVE SMOOTH",
"309 170 OFFCURVE",
"339 228 OFFCURVE",
"373 228 CURVE SMOOTH",
"399 228 OFFCURVE",
"439 192 OFFCURVE",
"439 171 CURVE SMOOTH"
);
}
);
width = 602;
}
);
},
{
glyphname = uni0676.fina;
layers = (
{
anchors = (
{
name = bottom;
position = "{50, -319}";
},
{
name = top;
position = "{113, 288}";
}
);
components = (
{
name = uni0654;
transform = "{1, 0, 0, 1, 318, -420}";
}
);
layerId = "51F41761-070F-43EA-B302-C90910850260";
name = Regular;
paths = (
{
closed = 1;
nodes = (
"247 98 LINE",
"247 128 OFFCURVE",
"238 164 OFFCURVE",
"225 192 CURVE SMOOTH",
"207 230 OFFCURVE",
"179 258 OFFCURVE",
"143 258 CURVE SMOOTH",
"110 258 OFFCURVE",
"83 231 OFFCURVE",
"67 197 CURVE SMOOTH",
"55 170 OFFCURVE",
"49 150 OFFCURVE",
"49 117 CURVE SMOOTH",
"49 98 OFFCURVE",
"51 60 OFFCURVE",
"69 35 CURVE SMOOTH",
"86 10 OFFCURVE",
"116 0 OFFCURVE",
"157 0 CURVE SMOOTH",
"209 0 LINE",
"209 -11 OFFCURVE",
"207 -26 OFFCURVE",
"204 -38 CURVE SMOOTH",
"194 -79 OFFCURVE",
"172 -119 OFFCURVE",
"139 -150 CURVE SMOOTH",
"118 -170 OFFCURVE",
"91 -188 OFFCURVE",
"70 -200 CURVE SMOOTH",
"44 -215 OFFCURVE",
"-48 -263 OFFCURVE",
"-60 -270 CURVE",
"-51 -283 LINE",
"-29 -278 OFFCURVE",
"-10 -275 OFFCURVE",
"9 -275 CURVE SMOOTH",
"30 -275 OFFCURVE",
"59 -279 OFFCURVE",
"77 -279 CURVE SMOOTH",
"98 -279 OFFCURVE",
"125 -274 OFFCURVE",
"150 -258 CURVE SMOOTH",
"171 -244 OFFCURVE",
"188 -224 OFFCURVE",
"203 -197 CURVE SMOOTH",
"240 -128 OFFCURVE",
"249 -38 OFFCURVE",
"249 0 CURVE",
"540 0 LINE",
"540 98 LINE"
);
},
{
closed = 1;
nodes = (
"203 122 OFFCURVE",
"204 104 OFFCURVE",
"204 98 CURVE",
"146 98 LINE SMOOTH",
"111 98 OFFCURVE",
"81 104 OFFCURVE",
"81 142 CURVE SMOOTH",
"81 165 OFFCURVE",
"104 186 OFFCURVE",
"135 186 CURVE SMOOTH",
"162 186 OFFCURVE",
"181 169 OFFCURVE",
"191 148 CURVE SMOOTH"
);
}
);
width = 540;
}
);
},
{
glyphname = uni0677;
layers = (
{
anchors = (
{
name = top;
position = "{151, 518}";
}
);
components = (
{
name = uni0648;
}
);
layerId = "51F41761-070F-43EA-B302-C90910850260";
name = Regular;
paths = (
{
closed = 1;
nodes = (
"160 419 OFFCURVE",
"153 418 OFFCURVE",
"146 416 CURVE SMOOTH",
"128 414 OFFCURVE",
"111 414 OFFCURVE",
"95 418 CURVE SMOOTH",
"73 424 OFFCURVE",
"65 429 OFFCURVE",
"65 449 CURVE SMOOTH",
"82 459 OFFCURVE",
"96 466 OFFCURVE",
"117 466 CURVE SMOOTH",
"130 466 OFFCURVE",
"138 464 OFFCURVE",
"144 462 CURVE",
"148 468 LINE",
"147 475 OFFCURVE",
"138 489 OFFCURVE",
"114 489 CURVE SMOOTH",
"96 489 OFFCURVE",
"80 484 OFFCURVE",
"64 470 CURVE SMOOTH",
"55 463 OFFCURVE",
"44 449 OFFCURVE",
"38 440 CURVE SMOOTH",
"36 437 OFFCURVE",
"35 434 OFFCURVE",
"35 431 CURVE SMOOTH",
"35 412 OFFCURVE",
"51 399 OFFCURVE",
"81 395 CURVE",
"52 384 OFFCURVE",
"37 374 OFFCURVE",
"21 359 CURVE SMOOTH",
"20 357 OFFCURVE",
"18 354 OFFCURVE",
"18 352 CURVE SMOOTH",
"18 349 OFFCURVE",
"20 345 OFFCURVE",
"23 345 CURVE",
"40 355 OFFCURVE",
"58 366 OFFCURVE",
"93 378 CURVE SMOOTH",
"116 385 OFFCURVE",
"129 389 OFFCURVE",
"153 391 CURVE",
"158 399 OFFCURVE",
"163 410 OFFCURVE",
"167 420 CURVE"
);
},
{
closed = 1;
nodes = (
"253 416 LINE SMOOTH",
"275 452 OFFCURVE",
"274 485 OFFCURVE",
"256 495 CURVE SMOOTH",
"237 505 OFFCURVE",
"219 495 OFFCURVE",
"200 472 CURVE SMOOTH",
"189 459 OFFCURVE",
"186 447 OFFCURVE",
"188 436 CURVE SMOOTH",
"191 422 OFFCURVE",
"203 412 OFFCURVE",
"227 403 CURVE",
"202 376 OFFCURVE",
"179 365 OFFCURVE",
"134 367 CURVE SMOOTH",
"133 365 OFFCURVE",
"128 357 OFFCURVE",
"125 345 CURVE",
"158 341 OFFCURVE",
"188 348 OFFCURVE",
"212 365 CURVE SMOOTH",
"226 376 OFFCURVE",
"233 383 OFFCURVE",
"243 398 CURVE",
"269 387 LINE SMOOTH",
"269 396 OFFCURVE",
"268 402 OFFCURVE",
"266 409 CURVE SMOOTH"
);
},
{
closed = 1;
nodes = (
"222 433 LINE SMOOTH",
"206 442 OFFCURVE",
"205 451 OFFCURVE",
"206 457 CURVE SMOOTH",
"206 465 OFFCURVE",
"213 473 OFFCURVE",
"223 475 CURVE",
"231 478 OFFCURVE",
"241 475 OFFCURVE",
"246 468 CURVE",
"256 458 OFFCURVE",
"251 440 OFFCURVE",
"240 423 CURVE"
);
}
);
width = 348;
}
);
unicode = 0677;
},
{
glyphname = uni0677.fina;
layers = (
{
anchors = (
{
name = top;
position = "{126, 479}";
}
);
components = (
{
name = uniFEEE;
}
);
layerId = "51F41761-070F-43EA-B302-C90910850260";
name = Regular;
paths = (
{
closed = 1;
nodes = (
"126 379 OFFCURVE",
"119 378 OFFCURVE",
"112 376 CURVE SMOOTH",
"94 374 OFFCURVE",
"77 374 OFFCURVE",
"61 378 CURVE SMOOTH",
"39 384 OFFCURVE",
"31 389 OFFCURVE",
"31 409 CURVE SMOOTH",
"48 419 OFFCURVE",
"62 426 OFFCURVE",
"83 426 CURVE SMOOTH",
"96 426 OFFCURVE",
"104 424 OFFCURVE",
"110 422 CURVE",
"114 428 LINE",
"113 435 OFFCURVE",
"104 449 OFFCURVE",
"80 449 CURVE SMOOTH",
"62 449 OFFCURVE",
"46 444 OFFCURVE",
"30 430 CURVE SMOOTH",
"21 423 OFFCURVE",
"10 409 OFFCURVE",
"4 400 CURVE SMOOTH",
"2 397 OFFCURVE",
"1 394 OFFCURVE",
"1 391 CURVE SMOOTH",
"1 372 OFFCURVE",
"17 359 OFFCURVE",
"47 355 CURVE",
"18 344 OFFCURVE",
"3 334 OFFCURVE",
"-13 319 CURVE SMOOTH",
"-14 317 OFFCURVE",
"-16 314 OFFCURVE",
"-16 312 CURVE SMOOTH",
"-16 309 OFFCURVE",
"-14 305 OFFCURVE",
"-11 305 CURVE",
"6 315 OFFCURVE",
"24 326 OFFCURVE",
"59 338 CURVE SMOOTH",
"82 345 OFFCURVE",
"95 349 OFFCURVE",
"119 351 CURVE",
"124 359 OFFCURVE",
"129 370 OFFCURVE",
"133 380 CURVE"
);
},
{
closed = 1;
nodes = (
"219 376 LINE SMOOTH",
"241 412 OFFCURVE",
"240 445 OFFCURVE",
"222 455 CURVE SMOOTH",
"203 465 OFFCURVE",
"185 455 OFFCURVE",
"166 432 CURVE SMOOTH",
"155 419 OFFCURVE",
"152 407 OFFCURVE",
"154 396 CURVE SMOOTH",
"157 382 OFFCURVE",
"169 372 OFFCURVE",
"193 363 CURVE",
"168 336 OFFCURVE",
"145 325 OFFCURVE",
"100 327 CURVE SMOOTH",
"99 325 OFFCURVE",
"94 317 OFFCURVE",
"91 305 CURVE",
"124 301 OFFCURVE",
"154 308 OFFCURVE",
"178 325 CURVE SMOOTH",
"192 336 OFFCURVE",
"199 343 OFFCURVE",
"209 358 CURVE",
"235 347 LINE SMOOTH",
"235 356 OFFCURVE",
"234 362 OFFCURVE",
"232 369 CURVE SMOOTH"
);
},
{
closed = 1;
nodes = (
"188 393 LINE SMOOTH",
"172 402 OFFCURVE",
"171 411 OFFCURVE",
"172 417 CURVE SMOOTH",
"172 425 OFFCURVE",
"179 433 OFFCURVE",
"189 435 CURVE",
"197 438 OFFCURVE",
"207 435 OFFCURVE",
"212 428 CURVE",
"222 418 OFFCURVE",
"217 400 OFFCURVE",
"206 383 CURVE"
);
}
);
width = 405;
}
);
},
{
glyphname = uni0678.fina;
layers = (
{
anchors = (
{
name = bottom;
position = "{283, -311}";
},
{
name = top;
position = "{219, 29}";
}
);
components = (
{
name = uni0654;
transform = "{1, 0, 0, 1, 610, -548}";
}
);
layerId = "51F41761-070F-43EA-B302-C90910850260";
name = Regular;
paths = (
{
closed = 1;
nodes = (
"482 98 LINE",
"460 71 OFFCURVE",
"440 37 OFFCURVE",
"422 -1 CURVE",
"434 -3 OFFCURVE",
"454 -7 OFFCURVE",
"474 -14 CURVE SMOOTH",
"520 -29 OFFCURVE",
"543 -48 OFFCURVE",
"543 -71 CURVE SMOOTH",
"543 -92 OFFCURVE",
"503 -119 OFFCURVE",
"447 -139 CURVE SMOOTH",
"401 -156 OFFCURVE",
"344 -168 OFFCURVE",
"292 -168 CURVE SMOOTH",
"217 -168 OFFCURVE",
"163 -152 OFFCURVE",
"132 -114 CURVE SMOOTH",
"105 -81 OFFCURVE",
"108 -29 OFFCURVE",
"119 29 CURVE",
"100 36 LINE",
"84 -2 OFFCURVE",
"74 -50 OFFCURVE",
"71 -87 CURVE SMOOTH",
"68 -120 OFFCURVE",
"72 -149 OFFCURVE",
"83 -175 CURVE SMOOTH",
"96 -206 OFFCURVE",
"117 -231 OFFCURVE",
"147 -248 CURVE SMOOTH",
"182 -270 OFFCURVE",
"228 -281 OFFCURVE",
"283 -281 CURVE SMOOTH",
"342 -281 OFFCURVE",
"404 -266 OFFCURVE",
"457 -237 CURVE SMOOTH",
"508 -211 OFFCURVE",
"547 -175 OFFCURVE",
"567 -137 CURVE SMOOTH",
"585 -103 OFFCURVE",
"589 -75 OFFCURVE",
"589 -58 CURVE SMOOTH",
"589 -36 OFFCURVE",
"582 -14 OFFCURVE",
"563 0 CURVE",
"833 0 LINE",
"833 98 LINE"
);
}
);
width = 833;
}
);
},
{
glyphname = uni0678.medi;
layers = (
{
anchors = (
{
name = bottom;
position = "{52, -25}";
},
{
name = top;
position = "{262, 393}";
}
);
components = (
{
name = uni0654;
transform = "{1, 0, 0, 1, 260, -481}";
}
);
layerId = "51F41761-070F-43EA-B302-C90910850260";
name = Regular;
paths = (
{
closed = 1;
nodes = (
"114 183 LINE",
"109 127 OFFCURVE",
"89 98 OFFCURVE",
"19 98 CURVE SMOOTH",
"-21 98 LINE SMOOTH",
"-48 98 OFFCURVE",
"-70 77 OFFCURVE",
"-70 50 CURVE SMOOTH",
"-70 22 OFFCURVE",
"-48 0 OFFCURVE",
"-21 0 CURVE SMOOTH",
"38 0 LINE SMOOTH",
"69 0 OFFCURVE",
"95 11 OFFCURVE",
"114 31 CURVE SMOOTH",
"133 51 OFFCURVE",
"136 68 OFFCURVE",
"139 76 CURVE",
"140 68 OFFCURVE",
"145 50 OFFCURVE",
"160 33 CURVE SMOOTH",
"176 15 OFFCURVE",
"200 0 OFFCURVE",
"244 0 CURVE SMOOTH",
"484 0 LINE",
"484 98 LINE",
"230 98 LINE SMOOTH",
"195 98 OFFCURVE",
"170 107 OFFCURVE",
"154 125 CURVE SMOOTH",
"140 141 OFFCURVE",
"134 164 OFFCURVE",
"136 195 CURVE"
);
}
);
width = 484;
}
);
},
{
glyphname = uni0640;
layers = (
{
layerId = "51F41761-070F-43EA-B302-C90910850260";
name = Regular;
paths = (
{
closed = 1;
nodes = (
"-22 98 LINE SMOOTH",
"-44 98 OFFCURVE",
"-70 80 OFFCURVE",
"-70 49 CURVE SMOOTH",
"-70 21 OFFCURVE",
"-49 0 OFFCURVE",
"-22 0 CURVE SMOOTH",
"187 0 LINE",
"187 98 LINE"
);
}
);
width = 187;
}
);
unicode = 0640;
},
{
glyphname = uniFEFB;
layers = (
{
anchors = (
{
name = bottom_1;
position = "{335, -46}";
},
{
name = bottom_2;
position = "{129, -42}";
},
{
name = caret_1;
position = "{293, -29}";
},
{
name = top_1;
position = "{294, 557}";
},
{
name = top_2;
position = "{49, 523}";
}
);
layerId = "51F41761-070F-43EA-B302-C90910850260";
name = Regular;
paths = (
{
closed = 1;
nodes = (
"401 493 OFFCURVE",
"377 528 OFFCURVE",
"362 568 CURVE",
"343 546 OFFCURVE",
"323 530 OFFCURVE",
"314 523 CURVE",
"326 476 OFFCURVE",
"335 417 OFFCURVE",
"329 359 CURVE SMOOTH",
"325 321 OFFCURVE",
"315 283 OFFCURVE",
"296 248 CURVE",
"280 279 OFFCURVE",
"256 314 OFFCURVE",
"226 351 CURVE SMOOTH",
"187 399 OFFCURVE",
"144 442 OFFCURVE",
"102 479 CURVE SMOOTH",
"78 500 OFFCURVE",
"67 508 OFFCURVE",
"61 511 CURVE SMOOTH",
"55 514 OFFCURVE",
"43 517 OFFCURVE",
"37 505 CURVE SMOOTH",
"34 499 OFFCURVE",
"23 466 OFFCURVE",
"20 430 CURVE",
"44 410 OFFCURVE",
"62 396 OFFCURVE",
"89 379 CURVE",
"100 396 LINE",
"116 383 OFFCURVE",
"193 314 OFFCURVE",
"267 191 CURVE",
"232 142 OFFCURVE",
"191 110 OFFCURVE",
"142 97 CURVE",
"129 96 LINE",
"125 64 OFFCURVE",
"124 32 OFFCURVE",
"124 -5 CURVE",
"234 -5 OFFCURVE",
"295 4 OFFCURVE",
"353 17 CURVE",
"355 30 OFFCURVE",
"360 73 OFFCURVE",
"360 76 CURVE",
"362 117 OFFCURVE",
"339 172 OFFCURVE",
"327 196 CURVE",
"381 290 OFFCURVE",
"383 385 OFFCURVE",
"379 431 CURVE",
"405 421 LINE",
"427 473 LINE"
);
},
{
closed = 1;
nodes = (
"298 97 OFFCURVE",
"248 95 OFFCURVE",
"227 95 CURVE",
"238 103 OFFCURVE",
"272 124 OFFCURVE",
"296 160 CURVE",
"306 140 OFFCURVE",
"315 124 OFFCURVE",
"325 101 CURVE"
);
}
);
width = 447;
}
);
unicode = FEFB;
},
{
glyphname = uniFEFC;
layers = (
{
anchors = (
{
name = bottom_1;
position = "{397, -35}";
},
{
name = bottom_2;
position = "{162, -75}";
},
{
name = caret_1;
position = "{188, -63}";
},
{
name = top_1;
position = "{342, 557}";
},
{
name = top_2;
position = "{52, 527}";
}
);
layerId = "51F41761-070F-43EA-B302-C90910850260";
name = Regular;
paths = (
{
closed = 1;
nodes = (
"524 98 LINE SMOOTH",
"490 98 OFFCURVE",
"470 106 OFFCURVE",
"457 131 CURVE SMOOTH",
"445 154 OFFCURVE",
"438 187 OFFCURVE",
"432 250 CURVE SMOOTH",
"432 254 OFFCURVE",
"423 342 OFFCURVE",
"417 406 CURVE SMOOTH",
"406 520 OFFCURVE",
"408 504 OFFCURVE",
"401 567 CURVE",
"376 547 OFFCURVE",
"355 525 OFFCURVE",
"341 505 CURVE",
"341 505 OFFCURVE",
"352 429 OFFCURVE",
"355 406 CURVE SMOOTH",
"358 381 OFFCURVE",
"364 307 OFFCURVE",
"361 259 CURVE SMOOTH",
"358 207 OFFCURVE",
"346 184 OFFCURVE",
"340 176 CURVE",
"329 215 OFFCURVE",
"304 262 OFFCURVE",
"283 295 CURVE SMOOTH",
"254 340 OFFCURVE",
"212 391 OFFCURVE",
"158 438 CURVE",
"110 481 OFFCURVE",
"59 517 OFFCURVE",
"42 517 CURVE SMOOTH",
"35 517 OFFCURVE",
"29 511 OFFCURVE",
"28 501 CURVE SMOOTH",
"23 459 OFFCURVE",
"25 482 OFFCURVE",
"20 434 CURVE",
"43 416 OFFCURVE",
"62 402 OFFCURVE",
"89 385 CURVE",
"100 405 LINE",
"124 386 OFFCURVE",
"161 356 OFFCURVE",
"206 301 CURVE SMOOTH",
"254 242 OFFCURVE",
"301 167 OFFCURVE",
"296 115 CURVE",
"288 105 OFFCURVE",
"235 35 OFFCURVE",
"71 -46 CURVE",
"73 -59 LINE",
"100 -51 OFFCURVE",
"125 -47 OFFCURVE",
"148 -43 CURVE SMOOTH",
"194 -35 OFFCURVE",
"217 -30 OFFCURVE",
"252 -12 CURVE SMOOTH",
"374 50 OFFCURVE",
"389 130 OFFCURVE",
"390 135 CURVE",
"392 83 OFFCURVE",
"405 54 OFFCURVE",
"421 36 CURVE SMOOTH",
"441 13 OFFCURVE",
"471 0 OFFCURVE",
"527 0 CURVE SMOOTH",
"559 0 LINE",
"559 98 LINE"
);
}
);
width = 559;
}
);
unicode = FEFC;
},
{
glyphname = uni066E062D;
layers = (
{
anchors = (
{
name = bottom_1;
position = "{478, 140}";
},
{
name = bottom_2;
position = "{289, -340}";
},
{
name = caret_1;
position = "{275, 17}";
},
{
name = center;
position = "{314, -15}";
},
{
name = top_1;
position = "{379, 508}";
},
{
name = top_2;
position = "{158, 391}";
}
);
layerId = "51F41761-070F-43EA-B302-C90910850260";
name = Regular;
paths = (
{
closed = 1;
nodes = (
"428 244 OFFCURVE",
"400 251 OFFCURVE",
"347 261 CURVE SMOOTH",
"260 277 OFFCURVE",
"218 276 OFFCURVE",
"203 278 CURVE",
"230 288 OFFCURVE",
"255 300 OFFCURVE",
"277 323 CURVE SMOOTH",
"292 339 OFFCURVE",
"297 350 OFFCURVE",
"309 370 CURVE SMOOTH",
"323 393 OFFCURVE",
"340 413 OFFCURVE",
"364 413 CURVE SMOOTH",
"405 413 OFFCURVE",
"397 356 OFFCURVE",
"393 342 CURVE",
"408 342 LINE",
"418 358 OFFCURVE",
"429 391 OFFCURVE",
"429 418 CURVE SMOOTH",
"429 448 OFFCURVE",
"415 478 OFFCURVE",
"379 478 CURVE SMOOTH",
"349 478 OFFCURVE",
"325 457 OFFCURVE",
"304 431 CURVE SMOOTH",
"296 421 OFFCURVE",
"281 398 OFFCURVE",
"247 366 CURVE SMOOTH",
"225 345 OFFCURVE",
"204 327 OFFCURVE",
"166 307 CURVE SMOOTH",
"142 295 OFFCURVE",
"126 284 OFFCURVE",
"110 257 CURVE",
"106 249 OFFCURVE",
"100 235 OFFCURVE",
"94 212 CURVE",
"105 213 OFFCURVE",
"150 217 OFFCURVE",
"156 217 CURVE SMOOTH",
"160 217 OFFCURVE",
"165 217 OFFCURVE",
"170 217 CURVE SMOOTH",
"233 217 OFFCURVE",
"312 202 OFFCURVE",
"312 202 CURVE",
"238 183 OFFCURVE",
"195 153 OFFCURVE",
"158 116 CURVE SMOOTH",
"87 45 OFFCURVE",
"74 -39 OFFCURVE",
"71 -69 CURVE SMOOTH",
"64 -139 OFFCURVE",
"88 -199 OFFCURVE",
"125 -240 CURVE SMOOTH",
"165 -284 OFFCURVE",
"221 -310 OFFCURVE",
"289 -310 CURVE SMOOTH",
"335 -310 OFFCURVE",
"359 -298 OFFCURVE",
"384 -284 CURVE SMOOTH",
"408 -271 OFFCURVE",
"434 -258 OFFCURVE",
"479 -256 CURVE",
"484 -241 LINE",
"448 -236 OFFCURVE",
"449 -237 OFFCURVE",
"402 -233 CURVE SMOOTH",
"357 -229 OFFCURVE",
"338 -227 OFFCURVE",
"314 -223 CURVE SMOOTH",
"254 -213 OFFCURVE",
"202 -192 OFFCURVE",
"168 -152 CURVE SMOOTH",
"135 -113 OFFCURVE",
"125 -65 OFFCURVE",
"128 -33 CURVE SMOOTH",
"133 19 OFFCURVE",
"174 96 OFFCURVE",
"253 139 CURVE SMOOTH",
"295 162 OFFCURVE",
"349 179 OFFCURVE",
"413 179 CURVE SMOOTH",
"429 179 OFFCURVE",
"446 179 OFFCURVE",
"463 177 CURVE",
"473 198 OFFCURVE",
"486 230 OFFCURVE",
"489 244 CURVE"
);
}
);
width = 579;
}
);
},
{
glyphname = uni066E062D.init;
layers = (
{
anchors = (
{
name = bottom_1;
position = "{377, 60}";
},
{
name = bottom_2;
position = "{122, -25}";
},
{
name = caret_1;
position = "{288, 0}";
},
{
name = top_1;
position = "{386, 508}";
},
{
name = top_2;
position = "{144, 391}";
}
);
layerId = "51F41761-070F-43EA-B302-C90910850260";
name = Regular;
paths = (
{
closed = 1;
nodes = (
"500 230 OFFCURVE",
"486 229 OFFCURVE",
"466 229 CURVE SMOOTH",
"394 229 OFFCURVE",
"352 242 OFFCURVE",
"303 253 CURVE SMOOTH",
"263 262 OFFCURVE",
"212 271 OFFCURVE",
"161 271 CURVE",
"161 271 OFFCURVE",
"268 291 OFFCURVE",
"317 366 CURVE SMOOTH",
"327 381 OFFCURVE",
"342 413 OFFCURVE",
"371 413 CURVE SMOOTH",
"400 413 OFFCURVE",
"411 382 OFFCURVE",
"400 342 CURVE",
"415 342 LINE",
"427 360 OFFCURVE",
"433 383 OFFCURVE",
"435 397 CURVE SMOOTH",
"438 419 OFFCURVE",
"440 478 OFFCURVE",
"386 478 CURVE SMOOTH",
"349 478 OFFCURVE",
"326 449 OFFCURVE",
"290 412 CURVE SMOOTH",
"232 351 OFFCURVE",
"204 334 OFFCURVE",
"133 306 CURVE SMOOTH",
"99 293 OFFCURVE",
"76 284 OFFCURVE",
"59 257 CURVE SMOOTH",
"51 244 OFFCURVE",
"40 221 OFFCURVE",
"39 200 CURVE",
"54 191 LINE",
"63 203 OFFCURVE",
"73 216 OFFCURVE",
"114 216 CURVE SMOOTH",
"157 216 OFFCURVE",
"257 202 OFFCURVE",
"305 158 CURVE SMOOTH",
"308 156 OFFCURVE",
"246 135 OFFCURVE",
"228 129 CURVE SMOOTH",
"186 115 OFFCURVE",
"123 98 OFFCURVE",
"26 98 CURVE SMOOTH",
"-21 98 LINE SMOOTH",
"-48 98 OFFCURVE",
"-70 76 OFFCURVE",
"-70 48 CURVE SMOOTH",
"-70 21 OFFCURVE",
"-49 0 OFFCURVE",
"-21 0 CURVE SMOOTH",
"25 0 LINE SMOOTH",
"123 0 OFFCURVE",
"181 33 OFFCURVE",
"243 68 CURVE SMOOTH",
"318 110 OFFCURVE",
"379 138 OFFCURVE",
"472 139 CURVE",
"492 172 OFFCURVE",
"504 197 OFFCURVE",
"516 231 CURVE"
);
}
);
width = 576;
}
);
},
{
glyphname = uni066E062D0649;
layers = (
{
anchors = (
{
name = bottom_1;
position = "{748, 56}";
},
{
name = bottom_2;
position = "{632, -200}";
},
{
name = bottom_3;
position = "{283, -311}";
},
{
name = caret_1;
position = "{313, 0}";
},
{
name = caret_2;
position = "{625, 0}";
},
{
name = top_1;
position = "{738, 508}";
},
{
name = top_2;
position = "{524, 425}";
},
{
name = top_3;
position = "{234, 28}";
}
);
layerId = "51F41761-070F-43EA-B302-C90910850260";
name = Regular;
paths = (
{
closed = 1;
nodes = (
"862 230 OFFCURVE",
"848 229 OFFCURVE",
"827 229 CURVE SMOOTH",
"763 229 OFFCURVE",
"714 241 OFFCURVE",
"665 253 CURVE SMOOTH",
"622 262 OFFCURVE",
"578 271 OFFCURVE",
"523 271 CURVE SMOOTH",
"523 271 OFFCURVE",
"630 291 OFFCURVE",
"679 366 CURVE SMOOTH",
"689 381 OFFCURVE",
"704 413 OFFCURVE",
"733 413 CURVE SMOOTH",
"762 413 OFFCURVE",
"773 382 OFFCURVE",
"762 342 CURVE",
"777 342 LINE",
"788 358 OFFCURVE",
"795 382 OFFCURVE",
"797 397 CURVE SMOOTH",
"800 419 OFFCURVE",
"802 478 OFFCURVE",
"748 478 CURVE SMOOTH",
"711 478 OFFCURVE",
"688 449 OFFCURVE",
"652 412 CURVE SMOOTH",
"594 351 OFFCURVE",
"564 333 OFFCURVE",
"495 306 CURVE SMOOTH",
"461 293 OFFCURVE",
"438 284 OFFCURVE",
"421 257 CURVE SMOOTH",
"413 244 OFFCURVE",
"402 221 OFFCURVE",
"401 200 CURVE",
"416 191 LINE",
"425 203 OFFCURVE",
"435 216 OFFCURVE",
"474 216 CURVE SMOOTH",
"517 216 OFFCURVE",
"586 197 OFFCURVE",
"664 171 CURVE",
"623 160 OFFCURVE",
"587 147 OFFCURVE",
"560 136 CURVE SMOOTH",
"511 117 OFFCURVE",
"468 88 OFFCURVE",
"450 74 CURVE SMOOTH",
"444 69 OFFCURVE",
"426 42 OFFCURVE",
"421 -2 CURVE",
"438 -5 OFFCURVE",
"464 -11 OFFCURVE",
"487 -19 CURVE SMOOTH",
"524 -33 OFFCURVE",
"543 -50 OFFCURVE",
"543 -71 CURVE SMOOTH",
"543 -95 OFFCURVE",
"495 -119 OFFCURVE",
"464 -132 CURVE",
"432 -147 OFFCURVE",
"367 -168 OFFCURVE",
"292 -168 CURVE SMOOTH",
"217 -168 OFFCURVE",
"163 -152 OFFCURVE",
"132 -114 CURVE SMOOTH",
"105 -81 OFFCURVE",
"109 -39 OFFCURVE",
"119 19 CURVE",
"100 26 LINE",
"85 -11 OFFCURVE",
"74 -50 OFFCURVE",
"71 -87 CURVE SMOOTH",
"68 -120 OFFCURVE",
"72 -149 OFFCURVE",
"83 -175 CURVE SMOOTH",
"97 -210 OFFCURVE",
"123 -237 OFFCURVE",
"159 -255 CURVE SMOOTH",
"192 -272 OFFCURVE",
"234 -281 OFFCURVE",
"283 -281 CURVE SMOOTH",
"342 -281 OFFCURVE",
"404 -266 OFFCURVE",
"457 -238 CURVE SMOOTH",
"508 -211 OFFCURVE",
"547 -175 OFFCURVE",
"567 -137 CURVE SMOOTH",
"581 -110 OFFCURVE",
"589 -83 OFFCURVE",
"589 -59 CURVE SMOOTH",
"589 5 OFFCURVE",
"526 28 OFFCURVE",
"486 39 CURVE",
"486 39 OFFCURVE",
"560 80 OFFCURVE",
"614 98 CURVE SMOOTH",
"650 110 OFFCURVE",
"718 134 OFFCURVE",
"789 134 CURVE SMOOTH",
"834 134 LINE",
"854 167 OFFCURVE",
"866 197 OFFCURVE",
"878 231 CURVE"
);
}
);
width = 938;
}
);
},
{
glyphname = uni066E0631;
layers = (
{
anchors = (
{
name = bottom_1;
position = "{360, -15}";
},
{
name = bottom_2;
position = "{39, -300}";
},
{
name = caret_1;
position = "{285, 0}";
},
{
name = top_1;
position = "{355, 262}";
},
{
name = top_2;
position = "{151, 188}";
}
);
layerId = "51F41761-070F-43EA-B302-C90910850260";
name = Regular;
paths = (
{
closed = 1;
nodes = (
"355 211 OFFCURVE",
"299 192 OFFCURVE",
"273 179 CURVE SMOOTH",
"218 151 OFFCURVE",
"188 85 OFFCURVE",
"195 23 CURVE SMOOTH",
"197 5 OFFCURVE",
"202 -12 OFFCURVE",
"202 -34 CURVE SMOOTH",
"202 -72 OFFCURVE",
"188 -101 OFFCURVE",
"160 -128 CURVE SMOOTH",
"134 -153 OFFCURVE",
"93 -179 OFFCURVE",
"55 -201 CURVE SMOOTH",
"17 -223 OFFCURVE",
"-23 -244 OFFCURVE",
"-60 -264 CURVE",
"-51 -277 LINE",
"-30 -271 OFFCURVE",
"-12 -269 OFFCURVE",
"3 -269 CURVE SMOOTH",
"25 -269 OFFCURVE",
"57 -273 OFFCURVE",
"79 -273 CURVE SMOOTH",
"119 -273 OFFCURVE",
"140 -260 OFFCURVE",
"161 -240 CURVE SMOOTH",
"181 -221 OFFCURVE",
"201 -194 OFFCURVE",
"218 -155 CURVE SMOOTH",
"240 -105 OFFCURVE",
"249 -65 OFFCURVE",
"249 -23 CURVE SMOOTH",
"250 2 OFFCURVE",
"247 28 OFFCURVE",
"242 57 CURVE",
"251 75 OFFCURVE",
"346 104 OFFCURVE",
"405 104 CURVE SMOOTH",
"410 104 OFFCURVE",
"415 104 OFFCURVE",
"419 103 CURVE",
"441 151 OFFCURVE",
"449 209 OFFCURVE",
"449 209 CURVE",
"439 210 OFFCURVE",
"431 211 OFFCURVE",
"417 211 CURVE SMOOTH"
);
}
);
width = 509;
}
);
},
{
glyphname = uni066E0631.fina;
layers = (
{
anchors = (
{
name = bottom_1;
position = "{349, -22}";
},
{
name = bottom_2;
position = "{41, -223}";
},
{
name = caret_1;
position = "{327, 0}";
},
{
name = top_1;
position = "{320, 273}";
},
{
name = top_2;
position = "{103, 273}";
}
);
layerId = "51F41761-070F-43EA-B302-C90910850260";
name = Regular;
paths = (
{
closed = 1;
nodes = (
"558 98 LINE SMOOTH",
"501 98 OFFCURVE",
"476 124 OFFCURVE",
"467 166 CURVE SMOOTH",
"460 196 OFFCURVE",
"461 235 OFFCURVE",
"464 279 CURVE",
"442 267 LINE",
"440 241 OFFCURVE",
"425 220 OFFCURVE",
"403 206 CURVE SMOOTH",
"381 191 OFFCURVE",
"350 182 OFFCURVE",
"317 183 CURVE SMOOTH",
"284 184 OFFCURVE",
"255 191 OFFCURVE",
"228 206 CURVE SMOOTH",
"212 215 OFFCURVE",
"196 227 OFFCURVE",
"181 243 CURVE",
"164 224 OFFCURVE",
"149 201 OFFCURVE",
"133 171 CURVE",
"172 135 OFFCURVE",
"202 98 OFFCURVE",
"202 43 CURVE SMOOTH",
"202 5 OFFCURVE",
"188 -24 OFFCURVE",
"160 -51 CURVE SMOOTH",
"134 -76 OFFCURVE",
"93 -102 OFFCURVE",
"55 -124 CURVE SMOOTH",
"17 -146 OFFCURVE",
"-23 -167 OFFCURVE",
"-60 -187 CURVE",
"-51 -200 LINE",
"-30 -194 OFFCURVE",
"-12 -192 OFFCURVE",
"3 -192 CURVE SMOOTH",
"25 -192 OFFCURVE",
"57 -196 OFFCURVE",
"79 -196 CURVE SMOOTH",
"119 -196 OFFCURVE",
"140 -183 OFFCURVE",
"161 -163 CURVE SMOOTH",
"181 -144 OFFCURVE",
"201 -117 OFFCURVE",
"218 -78 CURVE SMOOTH",
"235 -39 OFFCURVE",
"242 -4 OFFCURVE",
"245 35 CURVE SMOOTH",
"248 71 OFFCURVE",
"246 101 OFFCURVE",
"245 113 CURVE",
"260 95 OFFCURVE",
"286 89 OFFCURVE",
"314 89 CURVE SMOOTH",
"362 89 OFFCURVE",
"407 104 OFFCURVE",
"428 160 CURVE",
"422 122 OFFCURVE",
"425 84 OFFCURVE",
"442 54 CURVE SMOOTH",
"461 22 OFFCURVE",
"496 0 OFFCURVE",
"554 0 CURVE SMOOTH",
"593 0 LINE",
"593 98 LINE"
);
}
);
width = 593;
}
);
},
{
glyphname = uni066E0645;
layers = (
{
anchors = (
{
name = bottom_1;
position = "{312, -100}";
},
{
name = bottom_2;
position = "{118, -502}";
},
{
name = caret_1;
position = "{235, 0}";
},
{
name = top_1;
position = "{304, 227}";
},
{
name = top_2;
position = "{93, 98}";
}
);
layerId = "51F41761-070F-43EA-B302-C90910850260";
name = Regular;
paths = (
{
closed = 1;
nodes = (
"406 122 OFFCURVE",
"410 137 OFFCURVE",
"410 149 CURVE SMOOTH",
"409 171 OFFCURVE",
"390 193 OFFCURVE",
"354 193 CURVE SMOOTH",
"293 193 OFFCURVE",
"248 166 OFFCURVE",
"214 125 CURVE SMOOTH",
"188 94 OFFCURVE",
"166 56 OFFCURVE",
"157 7 CURVE",
"123 -10 OFFCURVE",
"107 -16 OFFCURVE",
"85 -48 CURVE",
"65 -75 OFFCURVE",
"52 -114 OFFCURVE",
"59 -169 CURVE",
"93 -375 OFFCURVE",
"99 -447 OFFCURVE",
"102 -474 CURVE",
"135 -465 LINE",
"134 -379 OFFCURVE",
"125 -302 OFFCURVE",
"113 -191 CURVE SMOOTH",
"107 -142 OFFCURVE",
"106 -136 OFFCURVE",
"100 -99 CURVE",
"127 -72 OFFCURVE",
"156 -60 OFFCURVE",
"200 -60 CURVE SMOOTH",
"246 -60 OFFCURVE",
"273 -64 OFFCURVE",
"302 -70 CURVE",
"321 -44 OFFCURVE",
"337 -12 OFFCURVE",
"346 15 CURVE",
"333 27 OFFCURVE",
"284 63 OFFCURVE",
"224 76 CURVE",
"232 85 OFFCURVE",
"244 95 OFFCURVE",
"258 104 CURVE SMOOTH",
"277 117 OFFCURVE",
"299 127 OFFCURVE",
"321 132 CURVE SMOOTH",
"355 140 OFFCURVE",
"390 135 OFFCURVE",
"387 109 CURVE",
"397 109 LINE"
);
}
);
width = 470;
}
);
},
{
glyphname = uni066E0645.fina;
layers = (
{
anchors = (
{
name = bottom_1;
position = "{303, -142}";
},
{
name = bottom_2;
position = "{115, -499}";
},
{
name = caret_1;
position = "{250, 0}";
},
{
name = top_1;
position = "{287, 214}";
},
{
name = top_2;
position = "{72, 108}";
}
);
layerId = "51F41761-070F-43EA-B302-C90910850260";
name = Regular;
paths = (
{
closed = 1;
nodes = (
"466 98 LINE SMOOTH",
"424 98 OFFCURVE",
"400 123 OFFCURVE",
"378 145 CURVE SMOOTH",
"359 165 OFFCURVE",
"338 184 OFFCURVE",
"308 184 CURVE SMOOTH",
"280 184 OFFCURVE",
"237 167 OFFCURVE",
"203 118 CURVE SMOOTH",
"178 82 OFFCURVE",
"164 53 OFFCURVE",
"156 7 CURVE",
"122 -10 OFFCURVE",
"106 -16 OFFCURVE",
"84 -48 CURVE",
"64 -75 OFFCURVE",
"51 -114 OFFCURVE",
"59 -169 CURVE",
"93 -375 OFFCURVE",
"98 -447 OFFCURVE",
"101 -474 CURVE",
"134 -465 LINE",
"133 -379 OFFCURVE",
"124 -302 OFFCURVE",
"112 -191 CURVE SMOOTH",
"107 -142 OFFCURVE",
"105 -136 OFFCURVE",
"99 -99 CURVE",
"126 -72 OFFCURVE",
"142 -60 OFFCURVE",
"199 -60 CURVE SMOOTH",
"246 -60 OFFCURVE",
"287 -71 OFFCURVE",
"317 -78 CURVE",
"336 -51 OFFCURVE",
"348 -24 OFFCURVE",
"357 2 CURVE",
"343 20 OFFCURVE",
"282 58 OFFCURVE",
"212 68 CURVE",
"234 98 OFFCURVE",
"253 116 OFFCURVE",
"293 116 CURVE SMOOTH",
"337 116 OFFCURVE",
"360 88 OFFCURVE",
"379 60 CURVE SMOOTH",
"401 29 OFFCURVE",
"421 0 OFFCURVE",
"473 0 CURVE SMOOTH",
"503 0 LINE",
"503 98 LINE"
);
}
);
width = 503;
}
);
},
{
glyphname = uni066E06BA;
layers = (
{
anchors = (
{
name = bottom_1;
position = "{642, -15}";
},
{
name = bottom_2;
position = "{282, -230}";
},
{
name = caret_1;
position = "{389, 0}";
},
{
name = top_1;
position = "{571, 279}";
},
{
name = top_2;
position = "{284, 17}";
}
);
layerId = "51F41761-070F-43EA-B302-C90910850260";
name = Regular;
paths = (
{
closed = 1;
nodes = (
"687 267 LINE",
"684 226 OFFCURVE",
"654 183 OFFCURVE",
"595 183 CURVE SMOOTH",
"562 183 OFFCURVE",
"533 191 OFFCURVE",
"506 206 CURVE SMOOTH",
"490 215 OFFCURVE",
"474 227 OFFCURVE",
"459 243 CURVE",
"445 225 OFFCURVE",
"430 204 OFFCURVE",
"416 179 CURVE",
"461 104 OFFCURVE",
"487 54 OFFCURVE",
"487 21 CURVE SMOOTH",
"487 -10 OFFCURVE",
"463 -37 OFFCURVE",
"431 -55 CURVE SMOOTH",
"401 -72 OFFCURVE",
"353 -87 OFFCURVE",
"290 -87 CURVE SMOOTH",
"254 -87 OFFCURVE",
"221 -82 OFFCURVE",
"195 -73 CURVE SMOOTH",
"163 -62 OFFCURVE",
"143 -48 OFFCURVE",
"130 -28 CURVE SMOOTH",
"109 3 OFFCURVE",
"109 46 OFFCURVE",
"119 100 CURVE",
"100 107 LINE",
"83 66 OFFCURVE",
"74 28 OFFCURVE",
"71 -6 CURVE SMOOTH",
"68 -38 OFFCURVE",
"72 -69 OFFCURVE",
"83 -95 CURVE SMOOTH",
"96 -125 OFFCURVE",
"117 -151 OFFCURVE",
"156 -172 CURVE SMOOTH",
"190 -190 OFFCURVE",
"230 -200 OFFCURVE",
"282 -200 CURVE SMOOTH",
"318 -200 OFFCURVE",
"348 -195 OFFCURVE",
"369 -189 CURVE SMOOTH",
"408 -178 OFFCURVE",
"449 -153 OFFCURVE",
"476 -124 CURVE SMOOTH",
"537 -59 OFFCURVE",
"541 43 OFFCURVE",
"523 113 CURVE",
"538 97 OFFCURVE",
"566 88 OFFCURVE",
"598 88 CURVE SMOOTH",
"640 88 OFFCURVE",
"671 107 OFFCURVE",
"691 136 CURVE SMOOTH",
"718 175 OFFCURVE",
"725 231 OFFCURVE",
"709 279 CURVE"
);
}
);
width = 777;
}
);
},
{
glyphname = uni066E06BA.fina;
layers = (
{
anchors = (
{
name = bottom_1;
position = "{648, -25}";
},
{
name = bottom_2;
position = "{282, -230}";
},
{
name = caret_1;
position = "{436, 0}";
},
{
name = top_1;
position = "{593, 279}";
},
{
name = top_2;
position = "{276, 31}";
}
);
layerId = "51F41761-070F-43EA-B302-C90910850260";
name = Regular;
paths = (
{
closed = 1;
nodes = (
"836 98 LINE SMOOTH",
"779 98 OFFCURVE",
"754 124 OFFCURVE",
"745 166 CURVE SMOOTH",
"738 196 OFFCURVE",
"739 235 OFFCURVE",
"742 279 CURVE",
"720 267 LINE",
"718 241 OFFCURVE",
"703 220 OFFCURVE",
"681 206 CURVE SMOOTH",
"659 191 OFFCURVE",
"628 182 OFFCURVE",
"595 183 CURVE SMOOTH",
"562 184 OFFCURVE",
"533 191 OFFCURVE",
"506 206 CURVE SMOOTH",
"490 215 OFFCURVE",
"474 227 OFFCURVE",
"459 243 CURVE",
"445 225 OFFCURVE",
"430 204 OFFCURVE",
"416 179 CURVE",
"461 104 OFFCURVE",
"487 54 OFFCURVE",
"487 21 CURVE SMOOTH",
"487 -10 OFFCURVE",
"463 -37 OFFCURVE",
"431 -55 CURVE SMOOTH",
"401 -72 OFFCURVE",
"353 -87 OFFCURVE",
"290 -87 CURVE SMOOTH",
"254 -87 OFFCURVE",
"221 -82 OFFCURVE",
"195 -73 CURVE SMOOTH",
"163 -62 OFFCURVE",
"143 -48 OFFCURVE",
"130 -28 CURVE SMOOTH",
"109 3 OFFCURVE",
"109 46 OFFCURVE",
"119 100 CURVE",
"100 107 LINE",
"83 66 OFFCURVE",
"74 28 OFFCURVE",
"71 -6 CURVE SMOOTH",
"68 -38 OFFCURVE",
"72 -69 OFFCURVE",
"83 -95 CURVE SMOOTH",
"96 -125 OFFCURVE",
"117 -151 OFFCURVE",
"156 -172 CURVE SMOOTH",
"190 -190 OFFCURVE",
"230 -200 OFFCURVE",
"282 -200 CURVE SMOOTH",
"318 -200 OFFCURVE",
"348 -195 OFFCURVE",
"369 -189 CURVE SMOOTH",
"408 -178 OFFCURVE",
"449 -153 OFFCURVE",
"476 -124 CURVE SMOOTH",
"537 -59 OFFCURVE",
"541 43 OFFCURVE",
"523 113 CURVE",
"533 98 OFFCURVE",
"565 89 OFFCURVE",
"600 89 CURVE SMOOTH",
"650 89 OFFCURVE",
"686 113 OFFCURVE",
"706 160 CURVE",
"699 114 OFFCURVE",
"705 73 OFFCURVE",
"727 44 CURVE SMOOTH",
"748 16 OFFCURVE",
"782 0 OFFCURVE",
"832 0 CURVE SMOOTH",
"871 0 LINE",
"871 98 LINE"
);
}
);
width = 871;
}
);
},
{
glyphname = uni066E0649;
layers = (
{
anchors = (
{
name = bottom_1;
position = "{497, -312}";
},
{
name = bottom_2;
position = "{255, -321}";
},
{
name = caret_1;
position = "{325, 0}";
},
{
name = top_1;
position = "{335, 272}";
},
{
name = top_2;
position = "{218, 36}";
}
);
layerId = "51F41761-070F-43EA-B302-C90910850260";
name = Regular;
paths = (
{
closed = 1;
nodes = (
"537 193 OFFCURVE",
"509 241 OFFCURVE",
"451 301 CURVE",
"439 281 OFFCURVE",
"426 246 OFFCURVE",
"417 220 CURVE",
"452 195 OFFCURVE",
"478 174 OFFCURVE",
"496 136 CURVE",
"482 107 OFFCURVE",
"461 88 OFFCURVE",
"421 79 CURVE SMOOTH",
"407 76 OFFCURVE",
"395 76 OFFCURVE",
"388 75 CURVE",
"385 61 OFFCURVE",
"383 9 OFFCURVE",
"381 -9 CURVE",
"401 -11 OFFCURVE",
"439 -14 OFFCURVE",
"473 -23 CURVE SMOOTH",
"519 -35 OFFCURVE",
"543 -49 OFFCURVE",
"543 -67 CURVE SMOOTH",
"543 -93 OFFCURVE",
"494 -119 OFFCURVE",
"464 -132 CURVE SMOOTH",
"432 -146 OFFCURVE",
"373 -168 OFFCURVE",
"289 -168 CURVE SMOOTH",
"218 -168 OFFCURVE",
"163 -152 OFFCURVE",
"132 -114 CURVE SMOOTH",
"105 -81 OFFCURVE",
"104 -26 OFFCURVE",
"119 29 CURVE",
"100 36 LINE",
"85 6 OFFCURVE",
"75 -32 OFFCURVE",
"71 -70 CURVE SMOOTH",
"68 -108 OFFCURVE",
"71 -145 OFFCURVE",
"83 -175 CURVE SMOOTH",
"98 -211 OFFCURVE",
"124 -237 OFFCURVE",
"160 -255 CURVE SMOOTH",
"196 -273 OFFCURVE",
"237 -281 OFFCURVE",
"282 -281 CURVE SMOOTH",
"343 -281 OFFCURVE",
"404 -266 OFFCURVE",
"457 -238 CURVE SMOOTH",
"489 -221 OFFCURVE",
"527 -193 OFFCURVE",
"550 -166 CURVE SMOOTH",
"573 -139 OFFCURVE",
"590 -104 OFFCURVE",
"590 -68 CURVE SMOOTH",
"590 -7 OFFCURVE",
"543 21 OFFCURVE",
"492 30 CURVE",
"514 50 OFFCURVE",
"540 77 OFFCURVE",
"540 141 CURVE"
);
}
);
width = 650;
}
);
},
{
glyphname = uni066E0649.fina;
layers = (
{
anchors = (
{
name = bottom_1;
position = "{553, -254}";
},
{
name = bottom_2;
position = "{283, -313}";
},
{
name = caret_1;
position = "{361, 0}";
},
{
name = top_1;
position = "{495, 235}";
},
{
name = top_2;
position = "{230, 32}";
}
);
layerId = "51F41761-070F-43EA-B302-C90910850260";
name = Regular;
paths = (
{
closed = 1;
nodes = (
"732 98 LINE",
"677 98 LINE",
"626 98 OFFCURVE",
"602 120 OFFCURVE",
"584 143 CURVE SMOOTH",
"562 172 OFFCURVE",
"541 205 OFFCURVE",
"505 205 CURVE SMOOTH",
"475 205 OFFCURVE",
"454 186 OFFCURVE",
"431 154 CURVE SMOOTH",
"418 136 OFFCURVE",
"397 103 OFFCURVE",
"383 66 CURVE SMOOTH",
"369 29 OFFCURVE",
"366 0 OFFCURVE",
"374 -17 CURVE SMOOTH",
"382 -34 OFFCURVE",
"406 -48 OFFCURVE",
"435 -56 CURVE SMOOTH",
"461 -63 OFFCURVE",
"494 -67 OFFCURVE",
"534 -70 CURVE",
"524 -97 OFFCURVE",
"495 -126 OFFCURVE",
"447 -145 CURVE SMOOTH",
"399 -164 OFFCURVE",
"338 -171 OFFCURVE",
"295 -171 CURVE SMOOTH",
"233 -171 OFFCURVE",
"164 -156 OFFCURVE",
"133 -116 CURVE SMOOTH",
"116 -94 OFFCURVE",
"112 -66 OFFCURVE",
"112 -36 CURVE SMOOTH",
"112 -11 OFFCURVE",
"113 0 OFFCURVE",
"119 27 CURVE",
"100 36 LINE",
"77 -15 OFFCURVE",
"68 -83 OFFCURVE",
"70 -119 CURVE SMOOTH",
"71 -145 OFFCURVE",
"81 -193 OFFCURVE",
"117 -228 CURVE SMOOTH",
"149 -259 OFFCURVE",
"202 -283 OFFCURVE",
"283 -283 CURVE SMOOTH",
"369 -283 OFFCURVE",
"445 -256 OFFCURVE",
"498 -214 CURVE SMOOTH",
"522 -195 OFFCURVE",
"550 -165 OFFCURVE",
"566 -136 CURVE SMOOTH",
"580 -110 OFFCURVE",
"588 -84 OFFCURVE",
"588 -61 CURVE SMOOTH",
"588 -27 OFFCURVE",
"571 0 OFFCURVE",
"530 5 CURVE SMOOTH",
"494 9 OFFCURVE",
"483 10 OFFCURVE",
"452 17 CURVE SMOOTH",
"438 20 OFFCURVE",
"425 31 OFFCURVE",
"428 53 CURVE",
"429 65 OFFCURVE",
"446 115 OFFCURVE",
"492 115 CURVE SMOOTH",
"531 115 OFFCURVE",
"555 89 OFFCURVE",
"571 62 CURVE SMOOTH",
"589 32 OFFCURVE",
"610 0 OFFCURVE",
"670 0 CURVE",
"732 0 LINE"
);
}
);
width = 732;
}
);
},
{
glyphname = uniFC18;
layers = (
{
anchors = (
{
name = bottom_1;
position = "{397, -11}";
},
{
name = bottom_2;
position = "{118, -406}";
},
{
name = caret_1;
position = "{344, 0}";
},
{
name = top_1;
position = "{342, 380}";
},
{
name = top_2;
position = "{88, 220}";
}
);
layerId = "51F41761-070F-43EA-B302-C90910850260";
name = Regular;
paths = (
{
closed = 1;
nodes = (
"519 269 OFFCURVE",
"465 296 OFFCURVE",
"421 318 CURVE SMOOTH",
"390 334 OFFCURVE",
"358 350 OFFCURVE",
"322 350 CURVE SMOOTH",
"305 350 OFFCURVE",
"288 346 OFFCURVE",
"273 338 CURVE SMOOTH",
"251 326 OFFCURVE",
"230 304 OFFCURVE",
"213 273 CURVE",
"224 256 LINE",
"245 278 OFFCURVE",
"264 286 OFFCURVE",
"295 286 CURVE SMOOTH",
"326 286 OFFCURVE",
"374 260 OFFCURVE",
"413 239 CURVE",
"368 239 OFFCURVE",
"312 233 OFFCURVE",
"267 216 CURVE SMOOTH",
"225 199 OFFCURVE",
"205 182 OFFCURVE",
"185 159 CURVE",
"175 140 OFFCURVE",
"165 120 OFFCURVE",
"162 100 CURVE",
"123 92 OFFCURVE",
"95 73 OFFCURVE",
"78 45 CURVE SMOOTH",
"60 15 OFFCURVE",
"54 -26 OFFCURVE",
"60 -74 CURVE SMOOTH",
"70 -153 OFFCURVE",
"75 -192 OFFCURVE",
"81 -223 CURVE SMOOTH",
"94 -315 OFFCURVE",
"99 -351 OFFCURVE",
"103 -380 CURVE",
"135 -371 LINE",
"133 -291 OFFCURVE",
"129 -241 OFFCURVE",
"122 -181 CURVE SMOOTH",
"120 -153 OFFCURVE",
"107 -46 OFFCURVE",
"99 3 CURVE SMOOTH",
"108 23 OFFCURVE",
"164 37 OFFCURVE",
"222 33 CURVE SMOOTH",
"262 30 OFFCURVE",
"291 23 OFFCURVE",
"317 16 CURVE",
"340 48 OFFCURVE",
"350 77 OFFCURVE",
"357 97 CURVE",
"315 140 OFFCURVE",
"258 146 OFFCURVE",
"237 150 CURVE",
"260 165 OFFCURVE",
"320 196 OFFCURVE",
"431 196 CURVE SMOOTH",
"480 196 OFFCURVE",
"529 192 OFFCURVE",
"576 179 CURVE",
"601 203 OFFCURVE",
"613 224 OFFCURVE",
"627 252 CURVE"
);
}
);
width = 687;
}
);
unicode = FC18;
},
{
glyphname = uniFCAA;
layers = (
{
anchors = (
{
name = bottom_1;
position = "{422, 150}";
},
{
name = bottom_2;
position = "{129, -35}";
},
{
name = caret_1;
position = "{311, 0}";
},
{
name = top_1;
position = "{304, 405}";
},
{
name = top_2;
position = "{43, 278}";
}
);
layerId = "51F41761-070F-43EA-B302-C90910850260";
name = Regular;
paths = (
{
closed = 1;
nodes = (
"453 297 OFFCURVE",
"399 324 OFFCURVE",
"355 347 CURVE SMOOTH",
"331 359 OFFCURVE",
"309 370 OFFCURVE",
"284 375 CURVE SMOOTH",
"255 381 OFFCURVE",
"230 378 OFFCURVE",
"208 366 CURVE SMOOTH",
"185 354 OFFCURVE",
"165 332 OFFCURVE",
"147 301 CURVE",
"158 284 LINE",
"169 294 OFFCURVE",
"187 316 OFFCURVE",
"231 312 CURVE SMOOTH",
"261 309 OFFCURVE",
"300 292 OFFCURVE",
"336 273 CURVE",
"286 271 OFFCURVE",
"242 261 OFFCURVE",
"201 238 CURVE SMOOTH",
"166 218 OFFCURVE",
"133 182 OFFCURVE",
"102 140 CURVE SMOOTH",
"87 121 OFFCURVE",
"76 98 OFFCURVE",
"43 98 CURVE SMOOTH",
"-22 98 LINE SMOOTH",
"-34 98 OFFCURVE",
"-70 89 OFFCURVE",
"-70 49 CURVE SMOOTH",
"-70 19 OFFCURVE",
"-45 0 OFFCURVE",
"-22 0 CURVE SMOOTH",
"9 0 LINE SMOOTH",
"50 0 OFFCURVE",
"76 10 OFFCURVE",
"90 48 CURVE",
"126 -2 OFFCURVE",
"229 -18 OFFCURVE",
"244 -12 CURVE",
"261 0 OFFCURVE",
"288 45 OFFCURVE",
"287 83 CURVE SMOOTH",
"287 124 OFFCURVE",
"267 167 OFFCURVE",
"230 185 CURVE",
"262 209 OFFCURVE",
"312 220 OFFCURVE",
"364 223 CURVE SMOOTH",
"415 225 OFFCURVE",
"469 219 OFFCURVE",
"511 209 CURVE",
"536 233 OFFCURVE",
"546 255 OFFCURVE",
"562 280 CURVE"
);
},
{
closed = 1;
nodes = (
"186 71 OFFCURVE",
"165 81 OFFCURVE",
"129 102 CURVE SMOOTH",
"136 118 OFFCURVE",
"155 142 OFFCURVE",
"182 142 CURVE SMOOTH",
"216 142 OFFCURVE",
"244 106 OFFCURVE",
"233 60 CURVE"
);
}
);
width = 632;
}
);
unicode = FCAA;
},
{
glyphname = uni062D06450649;
layers = (
{
anchors = (
{
name = bottom_1;
position = "{908, 152}";
},
{
name = bottom_2;
position = "{687, -143}";
},
{
name = bottom_3;
position = "{302, -339}";
},
{
name = caret_1;
position = "{371, 0}";
},
{
name = caret_2;
position = "{741, 0}";
},
{
name = top_1;
position = "{745, 405}";
},
{
name = top_2;
position = "{486, 188}";
},
{
name = top_3;
position = "{237, -19}";
}
);
layerId = "51F41761-070F-43EA-B302-C90910850260";
name = Regular;
paths = (
{
closed = 1;
nodes = (
"943 291 OFFCURVE",
"889 318 OFFCURVE",
"845 341 CURVE SMOOTH",
"821 353 OFFCURVE",
"799 364 OFFCURVE",
"774 369 CURVE SMOOTH",
"745 375 OFFCURVE",
"720 372 OFFCURVE",
"698 360 CURVE SMOOTH",
"675 348 OFFCURVE",
"655 326 OFFCURVE",
"637 295 CURVE",
"648 278 LINE",
"659 288 OFFCURVE",
"677 310 OFFCURVE",
"721 306 CURVE SMOOTH",
"751 303 OFFCURVE",
"790 286 OFFCURVE",
"826 267 CURVE",
"776 265 OFFCURVE",
"732 255 OFFCURVE",
"691 232 CURVE SMOOTH",
"656 212 OFFCURVE",
"626 184 OFFCURVE",
"592 140 CURVE SMOOTH",
"566 108 OFFCURVE",
"533 77 OFFCURVE",
"495 57 CURVE SMOOTH",
"463 39 OFFCURVE",
"428 28 OFFCURVE",
"389 28 CURVE",
"385 13 OFFCURVE",
"382 -7 OFFCURVE",
"379 -32 CURVE",
"399 -34 OFFCURVE",
"439 -39 OFFCURVE",
"473 -48 CURVE SMOOTH",
"519 -60 OFFCURVE",
"543 -77 OFFCURVE",
"543 -95 CURVE SMOOTH",
"543 -121 OFFCURVE",
"494 -147 OFFCURVE",
"464 -160 CURVE SMOOTH",
"432 -174 OFFCURVE",
"373 -196 OFFCURVE",
"290 -196 CURVE SMOOTH",
"212 -196 OFFCURVE",
"160 -177 OFFCURVE",
"132 -142 CURVE SMOOTH",
"105 -109 OFFCURVE",
"109 -57 OFFCURVE",
"119 1 CURVE",
"100 8 LINE",
"84 -33 OFFCURVE",
"74 -81 OFFCURVE",
"71 -115 CURVE SMOOTH",
"68 -149 OFFCURVE",
"72 -177 OFFCURVE",
"83 -203 CURVE SMOOTH",
"98 -239 OFFCURVE",
"124 -265 OFFCURVE",
"160 -283 CURVE SMOOTH",
"196 -301 OFFCURVE",
"237 -309 OFFCURVE",
"282 -309 CURVE SMOOTH",
"343 -309 OFFCURVE",
"404 -294 OFFCURVE",
"457 -266 CURVE SMOOTH",
"489 -249 OFFCURVE",
"527 -221 OFFCURVE",
"550 -194 CURVE SMOOTH",
"573 -167 OFFCURVE",
"590 -132 OFFCURVE",
"590 -96 CURVE SMOOTH",
"590 -41 OFFCURVE",
"551 -12 OFFCURVE",
"506 -1 CURVE",
"529 2 OFFCURVE",
"570 28 OFFCURVE",
"580 48 CURVE",
"616 -2 OFFCURVE",
"719 -14 OFFCURVE",
"734 -8 CURVE",
"751 4 OFFCURVE",
"778 45 OFFCURVE",
"777 83 CURVE",
"777 124 OFFCURVE",
"760 165 OFFCURVE",
"723 183 CURVE",
"759 204 OFFCURVE",
"805 214 OFFCURVE",
"853 217 CURVE SMOOTH",
"905 219 OFFCURVE",
"958 213 OFFCURVE",
"1001 201 CURVE",
"1026 225 OFFCURVE",
"1036 249 OFFCURVE",
"1052 274 CURVE"
);
},
{
closed = 1;
nodes = (
"676 71 OFFCURVE",
"655 81 OFFCURVE",
"619 102 CURVE",
"626 118 OFFCURVE",
"645 142 OFFCURVE",
"672 142 CURVE SMOOTH",
"706 142 OFFCURVE",
"734 106 OFFCURVE",
"723 60 CURVE"
);
}
);
width = 1122;
}
);
},
{
glyphname = uniFCFF;
layers = (
{
anchors = (
{
name = bottom_1;
position = "{726, 69}";
},
{
name = bottom_2;
position = "{283, -311}";
},
{
name = caret_1;
position = "{466, 0}";
},
{
name = top_1;
position = "{551, 321}";
},
{
name = top_2;
position = "{240, 16}";
}
);
layerId = "51F41761-070F-43EA-B302-C90910850260";
name = Regular;
paths = (
{
closed = 1;
nodes = (
"735 215 OFFCURVE",
"665 245 OFFCURVE",
"613 267 CURVE SMOOTH",
"582 280 OFFCURVE",
"558 291 OFFCURVE",
"531 291 CURVE SMOOTH",
"504 291 OFFCURVE",
"480 280 OFFCURVE",
"460 259 CURVE SMOOTH",
"442 240 OFFCURVE",
"426 210 OFFCURVE",
"416 174 CURVE",
"432 163 LINE",
"442 177 OFFCURVE",
"457 213 OFFCURVE",
"494 216 CURVE SMOOTH",
"516 218 OFFCURVE",
"549 212 OFFCURVE",
"587 201 CURVE SMOOTH",
"612 194 OFFCURVE",
"675 173 OFFCURVE",
"675 173 CURVE",
"624 161 OFFCURVE",
"589 148 OFFCURVE",
"560 136 CURVE SMOOTH",
"507 115 OFFCURVE",
"468 88 OFFCURVE",
"450 74 CURVE SMOOTH",
"444 69 OFFCURVE",
"426 42 OFFCURVE",
"421 -2 CURVE",
"438 -5 OFFCURVE",
"464 -11 OFFCURVE",
"487 -19 CURVE SMOOTH",
"524 -33 OFFCURVE",
"543 -50 OFFCURVE",
"543 -71 CURVE SMOOTH",
"543 -95 OFFCURVE",
"495 -119 OFFCURVE",
"464 -132 CURVE SMOOTH",
"432 -147 OFFCURVE",
"367 -168 OFFCURVE",
"292 -168 CURVE SMOOTH",
"217 -168 OFFCURVE",
"163 -152 OFFCURVE",
"132 -114 CURVE SMOOTH",
"105 -81 OFFCURVE",
"105 -26 OFFCURVE",
"119 29 CURVE",
"100 36 LINE",
"85 4 OFFCURVE",
"74 -35 OFFCURVE",
"70 -74 CURVE SMOOTH",
"67 -110 OFFCURVE",
"70 -146 OFFCURVE",
"83 -175 CURVE SMOOTH",
"97 -210 OFFCURVE",
"123 -237 OFFCURVE",
"159 -255 CURVE SMOOTH",
"192 -272 OFFCURVE",
"234 -281 OFFCURVE",
"283 -281 CURVE SMOOTH",
"342 -281 OFFCURVE",
"404 -266 OFFCURVE",
"457 -238 CURVE SMOOTH",
"508 -211 OFFCURVE",
"547 -175 OFFCURVE",
"567 -137 CURVE SMOOTH",
"581 -110 OFFCURVE",
"589 -83 OFFCURVE",
"589 -59 CURVE SMOOTH",
"589 5 OFFCURVE",
"526 28 OFFCURVE",
"486 39 CURVE",
"486 39 OFFCURVE",
"545 75 OFFCURVE",
"612 98 CURVE SMOOTH",
"654 112 OFFCURVE",
"729 134 OFFCURVE",
"791 134 CURVE SMOOTH",
"833 134 LINE",
"849 164 OFFCURVE",
"858 182 OFFCURVE",
"872 215 CURVE",
"867 215 OFFCURVE",
"863 215 OFFCURVE",
"859 215 CURVE SMOOTH"
);
}
);
width = 932;
}
);
unicode = FCFF;
},
{
glyphname = uniFD1B;
layers = (
{
anchors = (
{
name = bottom_1;
position = "{723, -25}";
},
{
name = bottom_2;
position = "{283, -311}";
},
{
name = caret_1;
position = "{487, 0}";
},
{
name = top_1;
position = "{551, 321}";
},
{
name = top_2;
position = "{232, 28}";
}
);
layerId = "51F41761-070F-43EA-B302-C90910850260";
name = Regular;
paths = (
{
closed = 1;
nodes = (
"871 98 LINE SMOOTH",
"812 98 OFFCURVE",
"779 113 OFFCURVE",
"769 140 CURVE",
"800 144 OFFCURVE",
"821 144 OFFCURVE",
"838 144 CURVE",
"854 174 OFFCURVE",
"858 182 OFFCURVE",
"872 215 CURVE",
"770 215 OFFCURVE",
"706 228 OFFCURVE",
"613 267 CURVE SMOOTH",
"582 280 OFFCURVE",
"558 291 OFFCURVE",
"531 291 CURVE SMOOTH",
"504 291 OFFCURVE",
"480 280 OFFCURVE",
"460 259 CURVE SMOOTH",
"442 240 OFFCURVE",
"426 210 OFFCURVE",
"416 174 CURVE",
"432 163 LINE",
"442 177 OFFCURVE",
"457 213 OFFCURVE",
"494 216 CURVE SMOOTH",
"516 218 OFFCURVE",
"549 212 OFFCURVE",
"587 201 CURVE SMOOTH",
"612 194 OFFCURVE",
"675 173 OFFCURVE",
"675 173 CURVE",
"631 161 OFFCURVE",
"590 148 OFFCURVE",
"561 136 CURVE SMOOTH",
"518 119 OFFCURVE",
"471 94 OFFCURVE",
"450 75 CURVE SMOOTH",
"444 70 OFFCURVE",
"426 42 OFFCURVE",
"421 -2 CURVE",
"438 -5 OFFCURVE",
"464 -11 OFFCURVE",
"487 -19 CURVE SMOOTH",
"524 -33 OFFCURVE",
"543 -50 OFFCURVE",
"543 -71 CURVE SMOOTH",
"543 -95 OFFCURVE",
"495 -119 OFFCURVE",
"464 -132 CURVE",
"432 -147 OFFCURVE",
"367 -168 OFFCURVE",
"292 -168 CURVE SMOOTH",
"217 -168 OFFCURVE",
"163 -152 OFFCURVE",
"132 -114 CURVE SMOOTH",
"105 -81 OFFCURVE",
"109 -29 OFFCURVE",
"119 29 CURVE",
"100 36 LINE",
"85 -1 OFFCURVE",
"74 -50 OFFCURVE",
"71 -87 CURVE SMOOTH",
"68 -120 OFFCURVE",
"72 -149 OFFCURVE",
"83 -175 CURVE SMOOTH",
"97 -210 OFFCURVE",
"123 -237 OFFCURVE",
"159 -255 CURVE SMOOTH",
"192 -272 OFFCURVE",
"234 -281 OFFCURVE",
"283 -281 CURVE SMOOTH",
"342 -281 OFFCURVE",
"404 -266 OFFCURVE",
"457 -238 CURVE SMOOTH",
"508 -211 OFFCURVE",
"547 -175 OFFCURVE",
"567 -137 CURVE SMOOTH",
"581 -110 OFFCURVE",
"589 -83 OFFCURVE",
"589 -59 CURVE SMOOTH",
"589 5 OFFCURVE",
"526 28 OFFCURVE",
"486 39 CURVE",
"486 39 OFFCURVE",
"546 77 OFFCURVE",
"619 100 CURVE SMOOTH",
"670 116 OFFCURVE",
"710 126 OFFCURVE",
"741 131 CURVE",
"745 91 OFFCURVE",
"753 67 OFFCURVE",
"774 43 CURVE",
"797 15 OFFCURVE",
"835 0 OFFCURVE",
"884 0 CURVE SMOOTH",
"984 0 LINE",
"984 98 LINE"
);
}
);
width = 984;
}
);
unicode = FD1B;
},
{
glyphname = uniFD0E;
layers = (
{
anchors = (
{
name = bottom_1;
position = "{512, -25}";
},
{
name = bottom_2;
position = "{36, -278}";
},
{
name = caret_1;
position = "{410, 0}";
},
{
name = top_1;
position = "{508, 240}";
},
{
name = top_2;
position = "{164, 144}";
}
);
layerId = "51F41761-070F-43EA-B302-C90910850260";
name = Regular;
paths = (
{
closed = 1;
nodes = (
"647 247 OFFCURVE",
"632 227 OFFCURVE",
"621 207 CURVE",
"665 146 LINE",
"653 114 OFFCURVE",
"635 93 OFFCURVE",
"603 93 CURVE SMOOTH",
"577 93 OFFCURVE",
"556 98 OFFCURVE",
"541 111 CURVE SMOOTH",
"529 122 OFFCURVE",
"522 139 OFFCURVE",
"522 165 CURVE SMOOTH",
"522 175 OFFCURVE",
"523 182 OFFCURVE",
"524 189 CURVE",
"502 177 LINE",
"501 168 OFFCURVE",
"500 158 OFFCURVE",
"497 148 CURVE SMOOTH",
"489 120 OFFCURVE",
"471 93 OFFCURVE",
"424 93 CURVE SMOOTH",
"393 93 OFFCURVE",
"374 105 OFFCURVE",
"364 119 CURVE SMOOTH",
"358 127 OFFCURVE",
"355 137 OFFCURVE",
"353 146 CURVE",
"297 125 OFFCURVE",
"232 110 OFFCURVE",
"186 100 CURVE",
"185 91 OFFCURVE",
"182 66 OFFCURVE",
"174 27 CURVE",
"182 28 OFFCURVE",
"193 30 OFFCURVE",
"200 32 CURVE",
"202 21 OFFCURVE",
"204 10 OFFCURVE",
"204 -3 CURVE SMOOTH",
"204 -40 OFFCURVE",
"188 -76 OFFCURVE",
"160 -103 CURVE SMOOTH",
"114 -149 OFFCURVE",
"-9 -211 OFFCURVE",
"-60 -239 CURVE",
"-51 -252 LINE",
"-30 -246 OFFCURVE",
"-12 -244 OFFCURVE",
"3 -244 CURVE SMOOTH",
"25 -244 OFFCURVE",
"57 -248 OFFCURVE",
"79 -248 CURVE SMOOTH",
"119 -248 OFFCURVE",
"140 -235 OFFCURVE",
"161 -215 CURVE SMOOTH",
"182 -195 OFFCURVE",
"202 -167 OFFCURVE",
"218 -130 CURVE SMOOTH",
"251 -55 OFFCURVE",
"248 15 OFFCURVE",
"245 41 CURVE",
"276 48 OFFCURVE",
"311 57 OFFCURVE",
"339 66 CURVE",
"346 33 OFFCURVE",
"367 0 OFFCURVE",
"417 0 CURVE SMOOTH",
"471 0 OFFCURVE",
"500 39 OFFCURVE",
"508 74 CURVE",
"512 44 OFFCURVE",
"539 7 OFFCURVE",
"593 7 CURVE SMOOTH",
"631 7 OFFCURVE",
"655 26 OFFCURVE",
"669 45 CURVE SMOOTH",
"696 82 OFFCURVE",
"699 138 OFFCURVE",
"699 138 CURVE SMOOTH",
"699 188 OFFCURVE",
"679 242 OFFCURVE",
"661 261 CURVE"
);
}
);
width = 759;
}
);
unicode = FD0E;
},
{
glyphname = uniFD2A;
layers = (
{
anchors = (
{
name = bottom_1;
position = "{502, -25}";
},
{
name = bottom_2;
position = "{43, -278}";
},
{
name = caret_1;
position = "{418, 0}";
},
{
name = top_1;
position = "{509, 227}";
},
{
name = top_2;
position = "{161, 140}";
}
);
layerId = "51F41761-070F-43EA-B302-C90910850260";
name = Regular;
paths = (
{
closed = 1;
nodes = (
"740 98 LINE SMOOTH",
"712 98 OFFCURVE",
"694 105 OFFCURVE",
"681 120 CURVE SMOOTH",
"663 140 OFFCURVE",
"665 167 OFFCURVE",
"667 190 CURVE",
"645 178 LINE",
"643 145 OFFCURVE",
"633 95 OFFCURVE",
"579 95 CURVE SMOOTH",
"534 95 OFFCURVE",
"522 130 OFFCURVE",
"521 160 CURVE",
"520 172 OFFCURVE",
"521 183 OFFCURVE",
"522 190 CURVE",
"500 178 LINE",
"498 143 OFFCURVE",
"485 94 OFFCURVE",
"422 94 CURVE SMOOTH",
"392 94 OFFCURVE",
"374 105 OFFCURVE",
"364 119 CURVE SMOOTH",
"358 128 OFFCURVE",
"356 134 OFFCURVE",
"353 146 CURVE",
"297 125 OFFCURVE",
"232 110 OFFCURVE",
"186 100 CURVE",
"185 91 OFFCURVE",
"182 66 OFFCURVE",
"174 27 CURVE",
"182 28 OFFCURVE",
"193 30 OFFCURVE",
"200 32 CURVE",
"202 21 OFFCURVE",
"204 10 OFFCURVE",
"204 -3 CURVE SMOOTH",
"204 -40 OFFCURVE",
"188 -76 OFFCURVE",
"160 -103 CURVE SMOOTH",
"114 -149 OFFCURVE",
"-9 -211 OFFCURVE",
"-60 -239 CURVE",
"-51 -252 LINE",
"-30 -246 OFFCURVE",
"-12 -244 OFFCURVE",
"3 -244 CURVE SMOOTH",
"25 -244 OFFCURVE",
"57 -248 OFFCURVE",
"79 -248 CURVE SMOOTH",
"119 -248 OFFCURVE",
"140 -235 OFFCURVE",
"161 -215 CURVE SMOOTH",
"182 -195 OFFCURVE",
"202 -167 OFFCURVE",
"218 -130 CURVE SMOOTH",
"251 -55 OFFCURVE",
"248 15 OFFCURVE",
"245 41 CURVE",
"275 48 OFFCURVE",
"309 56 OFFCURVE",
"336 65 CURVE",
"343 28 OFFCURVE",
"366 -2 OFFCURVE",
"414 -2 CURVE SMOOTH",
"471 -2 OFFCURVE",
"496 38 OFFCURVE",
"506 75 CURVE",
"504 37 OFFCURVE",
"527 -2 OFFCURVE",
"575 -2 CURVE SMOOTH",
"631 -2 OFFCURVE",
"647 49 OFFCURVE",
"652 75 CURVE",
"652 33 OFFCURVE",
"680 0 OFFCURVE",
"738 0 CURVE SMOOTH",
"776 0 LINE",
"776 98 LINE"
);
}
);
width = 776;
}
);
unicode = FD2A;
},
{
glyphname = uniFC1F;
layers = (
{
anchors = (
{
name = bottom_1;
position = "{568, -25}";
},
{
name = bottom_2;
position = "{118, -499}";
},
{
name = caret_1;
position = "{413, 0}";
},
{
name = top_1;
position = "{571, 232}";
},
{
name = top_2;
position = "{170, 188}";
}
);
layerId = "51F41761-070F-43EA-B302-C90910850260";
name = Regular;
paths = (
{
closed = 1;
nodes = (
"713 248 OFFCURVE",
"698 228 OFFCURVE",
"687 208 CURVE",
"731 147 LINE",
"714 103 OFFCURVE",
"699 94 OFFCURVE",
"665 94 CURVE SMOOTH",
"642 94 OFFCURVE",
"620 98 OFFCURVE",
"604 116 CURVE SMOOTH",
"591 130 OFFCURVE",
"588 149 OFFCURVE",
"588 166 CURVE SMOOTH",
"588 176 OFFCURVE",
"589 183 OFFCURVE",
"590 190 CURVE",
"568 178 LINE",
"567 169 OFFCURVE",
"566 160 OFFCURVE",
"563 149 CURVE SMOOTH",
"555 122 OFFCURVE",
"540 94 OFFCURVE",
"483 94 CURVE SMOOTH",
"423 94 OFFCURVE",
"397 126 OFFCURVE",
"375 148 CURVE SMOOTH",
"356 168 OFFCURVE",
"338 187 OFFCURVE",
"308 187 CURVE SMOOTH",
"280 187 OFFCURVE",
"237 167 OFFCURVE",
"203 118 CURVE SMOOTH",
"178 82 OFFCURVE",
"164 53 OFFCURVE",
"156 7 CURVE",
"122 -10 OFFCURVE",
"106 -16 OFFCURVE",
"84 -48 CURVE",
"64 -75 OFFCURVE",
"51 -114 OFFCURVE",
"59 -169 CURVE",
"93 -375 OFFCURVE",
"98 -447 OFFCURVE",
"101 -474 CURVE",
"134 -465 LINE",
"133 -379 OFFCURVE",
"124 -302 OFFCURVE",
"112 -191 CURVE SMOOTH",
"107 -142 OFFCURVE",
"105 -136 OFFCURVE",
"99 -99 CURVE",
"126 -72 OFFCURVE",
"142 -60 OFFCURVE",
"199 -60 CURVE SMOOTH",
"246 -60 OFFCURVE",
"287 -68 OFFCURVE",
"317 -75 CURVE",
"336 -48 OFFCURVE",
"348 -22 OFFCURVE",
"357 4 CURVE",
"341 20 OFFCURVE",
"281 60 OFFCURVE",
"211 70 CURVE",
"232 99 OFFCURVE",
"257 118 OFFCURVE",
"292 118 CURVE SMOOTH",
"330 118 OFFCURVE",
"347 98 OFFCURVE",
"369 68 CURVE SMOOTH",
"390 39 OFFCURVE",
"417 0 OFFCURVE",
"479 0 CURVE SMOOTH",
"540 0 OFFCURVE",
"565 39 OFFCURVE",
"574 75 CURVE",
"575 48 OFFCURVE",
"600 8 OFFCURVE",
"658 8 CURVE SMOOTH",
"694 8 OFFCURVE",
"719 24 OFFCURVE",
"736 47 CURVE SMOOTH",
"762 83 OFFCURVE",
"765 131 OFFCURVE",
"765 148 CURVE SMOOTH",
"765 200 OFFCURVE",
"739 250 OFFCURVE",
"727 262 CURVE"
);
}
);
width = 825;
}
);
unicode = FC1F;
},
{
glyphname = uniFCB0;
layers = (
{
anchors = (
{
name = bottom_1;
position = "{442, 78}";
},
{
name = bottom_2;
position = "{157, -35}";
},
{
name = caret_1;
position = "{354, 0}";
},
{
name = top_1;
position = "{459, 344}";
},
{
name = top_2;
position = "{121, 298}";
}
);
layerId = "51F41761-070F-43EA-B302-C90910850260";
name = Regular;
paths = (
{
closed = 1;
nodes = (
"596 366 OFFCURVE",
"581 346 OFFCURVE",
"570 326 CURVE",
"614 265 LINE",
"597 221 OFFCURVE",
"582 212 OFFCURVE",
"548 212 CURVE SMOOTH",
"525 212 OFFCURVE",
"503 216 OFFCURVE",
"487 234 CURVE SMOOTH",
"474 248 OFFCURVE",
"471 267 OFFCURVE",
"471 284 CURVE SMOOTH",
"471 294 OFFCURVE",
"472 301 OFFCURVE",
"473 308 CURVE",
"451 296 LINE",
"450 287 OFFCURVE",
"449 278 OFFCURVE",
"446 267 CURVE SMOOTH",
"440 245 OFFCURVE",
"424 212 OFFCURVE",
"372 212 CURVE SMOOTH",
"336 212 OFFCURVE",
"315 228 OFFCURVE",
"297 257 CURVE SMOOTH",
"287 272 OFFCURVE",
"280 291 OFFCURVE",
"245 291 CURVE SMOOTH",
"223 291 OFFCURVE",
"206 283 OFFCURVE",
"187 270 CURVE SMOOTH",
"171 259 OFFCURVE",
"157 247 OFFCURVE",
"141 225 CURVE SMOOTH",
"121 198 OFFCURVE",
"111 170 OFFCURVE",
"108 151 CURVE SMOOTH",
"105 135 OFFCURVE",
"105 118 OFFCURVE",
"108 100 CURVE",
"91 94 OFFCURVE",
"53 96 OFFCURVE",
"9 98 CURVE",
"-20 98 LINE SMOOTH",
"-55 98 OFFCURVE",
"-70 74 OFFCURVE",
"-70 48 CURVE SMOOTH",
"-70 16 OFFCURVE",
"-47 0 OFFCURVE",
"-20 0 CURVE SMOOTH",
"5 0 LINE SMOOTH",
"78 0 OFFCURVE",
"78 10 OFFCURVE",
"126 10 CURVE SMOOTH",
"162 10 OFFCURVE",
"190 1 OFFCURVE",
"222 -14 CURVE",
"234 15 OFFCURVE",
"243 68 OFFCURVE",
"241 100 CURVE",
"223 106 OFFCURVE",
"153 112 OFFCURVE",
"153 152 CURVE SMOOTH",
"153 179 OFFCURVE",
"175 221 OFFCURVE",
"238 221 CURVE SMOOTH",
"275 221 OFFCURVE",
"286 203 OFFCURVE",
"298 180 CURVE SMOOTH",
"316 147 OFFCURVE",
"335 120 OFFCURVE",
"376 120 CURVE SMOOTH",
"425 120 OFFCURVE",
"449 159 OFFCURVE",
"457 193 CURVE",
"458 166 OFFCURVE",
"483 126 OFFCURVE",
"541 126 CURVE SMOOTH",
"577 126 OFFCURVE",
"602 142 OFFCURVE",
"619 165 CURVE SMOOTH",
"645 201 OFFCURVE",
"648 249 OFFCURVE",
"648 266 CURVE SMOOTH",
"648 318 OFFCURVE",
"622 368 OFFCURVE",
"610 380 CURVE"
);
}
);
width = 708;
}
);
unicode = FCB0;
},
{
glyphname = uniFCFB;
layers = (
{
anchors = (
{
name = bottom_1;
position = "{767, -25}";
},
{
name = bottom_2;
position = "{294, -313}";
},
{
name = caret_1;
position = "{505, 0}";
},
{
name = top_1;
position = "{764, 229}";
},
{
name = top_2;
position = "{235, 26}";
}
);
layerId = "51F41761-070F-43EA-B302-C90910850260";
name = Regular;
paths = (
{
closed = 1;
nodes = (
"908 248 OFFCURVE",
"893 228 OFFCURVE",
"882 208 CURVE",
"926 147 LINE",
"909 103 OFFCURVE",
"894 94 OFFCURVE",
"860 94 CURVE SMOOTH",
"837 94 OFFCURVE",
"815 98 OFFCURVE",
"799 116 CURVE SMOOTH",
"786 130 OFFCURVE",
"783 149 OFFCURVE",
"783 166 CURVE SMOOTH",
"783 176 OFFCURVE",
"784 183 OFFCURVE",
"785 190 CURVE",
"763 178 LINE",
"762 169 OFFCURVE",
"761 160 OFFCURVE",
"758 149 CURVE SMOOTH",
"750 122 OFFCURVE",
"735 94 OFFCURVE",
"678 94 CURVE SMOOTH",
"633 94 OFFCURVE",
"601 113 OFFCURVE",
"568 165 CURVE SMOOTH",
"552 190 OFFCURVE",
"532 205 OFFCURVE",
"505 205 CURVE SMOOTH",
"475 205 OFFCURVE",
"454 186 OFFCURVE",
"431 154 CURVE SMOOTH",
"418 136 OFFCURVE",
"397 103 OFFCURVE",
"383 66 CURVE SMOOTH",
"369 29 OFFCURVE",
"366 0 OFFCURVE",
"374 -17 CURVE SMOOTH",
"382 -34 OFFCURVE",
"402 -46 OFFCURVE",
"435 -56 CURVE SMOOTH",
"461 -63 OFFCURVE",
"494 -67 OFFCURVE",
"534 -70 CURVE SMOOTH",
"521 -101 OFFCURVE",
"500 -123 OFFCURVE",
"447 -144 CURVE SMOOTH",
"401 -162 OFFCURVE",
"355 -171 OFFCURVE",
"299 -171 CURVE SMOOTH",
"235 -171 OFFCURVE",
"167 -159 OFFCURVE",
"133 -115 CURVE SMOOTH",
"119 -96 OFFCURVE",
"111 -70 OFFCURVE",
"110 -42 CURVE SMOOTH",
"109 -20 OFFCURVE",
"112 4 OFFCURVE",
"119 27 CURVE",
"100 36 LINE",
"72 -20 OFFCURVE",
"68 -83 OFFCURVE",
"70 -119 CURVE SMOOTH",
"71 -144 OFFCURVE",
"81 -193 OFFCURVE",
"117 -228 CURVE SMOOTH",
"149 -259 OFFCURVE",
"201 -283 OFFCURVE",
"284 -283 CURVE SMOOTH",
"368 -283 OFFCURVE",
"445 -256 OFFCURVE",
"498 -214 CURVE SMOOTH",
"525 -192 OFFCURVE",
"549 -166 OFFCURVE",
"566 -136 CURVE SMOOTH",
"580 -110 OFFCURVE",
"588 -84 OFFCURVE",
"588 -60 CURVE SMOOTH",
"588 -24 OFFCURVE",
"566 2 OFFCURVE",
"530 5 CURVE SMOOTH",
"494 9 OFFCURVE",
"484 10 OFFCURVE",
"452 17 CURVE SMOOTH",
"438 20 OFFCURVE",
"425 31 OFFCURVE",
"428 53 CURVE SMOOTH",
"429 67 OFFCURVE",
"448 115 OFFCURVE",
"491 115 CURVE SMOOTH",
"520 115 OFFCURVE",
"546 93 OFFCURVE",
"564 68 CURVE SMOOTH",
"585 39 OFFCURVE",
"612 2 OFFCURVE",
"674 2 CURVE SMOOTH",
"735 2 OFFCURVE",
"760 39 OFFCURVE",
"769 75 CURVE",
"770 48 OFFCURVE",
"795 8 OFFCURVE",
"853 8 CURVE SMOOTH",
"889 8 OFFCURVE",
"914 24 OFFCURVE",
"931 47 CURVE SMOOTH",
"957 83 OFFCURVE",
"960 131 OFFCURVE",
"960 148 CURVE SMOOTH",
"960 200 OFFCURVE",
"934 250 OFFCURVE",
"922 262 CURVE"
);
}
);
width = 1020;
}
);
unicode = FCFB;
},
{
glyphname = uniFD17;
layers = (
{
anchors = (
{
name = bottom_1;
position = "{760, -25}";
},
{
name = bottom_2;
position = "{283, -313}";
},
{
name = caret_1;
position = "{515, 0}";
},
{
name = top_1;
position = "{768, 230}";
},
{
name = top_2;
position = "{218, 25}";
}
);
layerId = "51F41761-070F-43EA-B302-C90910850260";
name = Regular;
paths = (
{
closed = 1;
nodes = (
"1003 98 LINE SMOOTH",
"975 98 OFFCURVE",
"957 105 OFFCURVE",
"944 120 CURVE SMOOTH",
"926 140 OFFCURVE",
"928 167 OFFCURVE",
"930 190 CURVE",
"908 178 LINE",
"907 163 OFFCURVE",
"904 143 OFFCURVE",
"896 127 CURVE SMOOTH",
"887 109 OFFCURVE",
"872 95 OFFCURVE",
"843 95 CURVE SMOOTH",
"799 95 OFFCURVE",
"785 127 OFFCURVE",
"784 160 CURVE",
"783 172 OFFCURVE",
"784 183 OFFCURVE",
"785 190 CURVE",
"763 178 LINE",
"762 169 OFFCURVE",
"761 160 OFFCURVE",
"758 149 CURVE SMOOTH",
"746 109 OFFCURVE",
"723 94 OFFCURVE",
"672 94 CURVE SMOOTH",
"654 94 OFFCURVE",
"608 102 OFFCURVE",
"560 165 CURVE SMOOTH",
"543 188 OFFCURVE",
"532 205 OFFCURVE",
"506 205 CURVE SMOOTH",
"480 205 OFFCURVE",
"454 188 OFFCURVE",
"431 155 CURVE",
"414 133 OFFCURVE",
"398 102 OFFCURVE",
"384 66 CURVE SMOOTH",
"370 30 OFFCURVE",
"364 3 OFFCURVE",
"374 -17 CURVE SMOOTH",
"381 -31 OFFCURVE",
"399 -46 OFFCURVE",
"435 -56 CURVE SMOOTH",
"461 -63 OFFCURVE",
"494 -67 OFFCURVE",
"534 -70 CURVE",
"524 -97 OFFCURVE",
"495 -126 OFFCURVE",
"447 -145 CURVE SMOOTH",
"399 -164 OFFCURVE",
"339 -171 OFFCURVE",
"296 -171 CURVE SMOOTH",
"241 -171 OFFCURVE",
"167 -160 OFFCURVE",
"133 -115 CURVE SMOOTH",
"117 -94 OFFCURVE",
"111 -66 OFFCURVE",
"111 -36 CURVE SMOOTH",
"110 -15 OFFCURVE",
"114 6 OFFCURVE",
"119 27 CURVE",
"100 36 LINE",
"72 -22 OFFCURVE",
"68 -83 OFFCURVE",
"70 -119 CURVE SMOOTH",
"71 -142 OFFCURVE",
"80 -192 OFFCURVE",
"117 -228 CURVE SMOOTH",
"149 -259 OFFCURVE",
"202 -283 OFFCURVE",
"283 -283 CURVE SMOOTH",
"368 -283 OFFCURVE",
"445 -256 OFFCURVE",
"498 -214 CURVE SMOOTH",
"525 -192 OFFCURVE",
"549 -166 OFFCURVE",
"566 -136 CURVE SMOOTH",
"580 -110 OFFCURVE",
"588 -84 OFFCURVE",
"588 -61 CURVE SMOOTH",
"588 -27 OFFCURVE",
"571 0 OFFCURVE",
"530 5 CURVE SMOOTH",
"494 9 OFFCURVE",
"483 10 OFFCURVE",
"452 17 CURVE SMOOTH",
"438 20 OFFCURVE",
"425 31 OFFCURVE",
"428 53 CURVE",
"429 67 OFFCURVE",
"448 115 OFFCURVE",
"491 115 CURVE SMOOTH",
"520 115 OFFCURVE",
"545 94 OFFCURVE",
"564 68 CURVE SMOOTH",
"580 47 OFFCURVE",
"593 31 OFFCURVE",
"614 18 CURVE SMOOTH",
"630 8 OFFCURVE",
"650 2 OFFCURVE",
"675 2 CURVE SMOOTH",
"732 2 OFFCURVE",
"761 35 OFFCURVE",
"769 75 CURVE",
"767 37 OFFCURVE",
"790 0 OFFCURVE",
"838 0 CURVE SMOOTH",
"894 0 OFFCURVE",
"910 49 OFFCURVE",
"915 75 CURVE",
"915 33 OFFCURVE",
"943 0 OFFCURVE",
"1001 0 CURVE SMOOTH",
"1039 0 LINE",
"1039 98 LINE"
);
}
);
width = 1039;
}
);
unicode = FD17;
},
{
glyphname = uni063306450649;
layers = (
{
anchors = (
{
name = bottom_1;
position = "{979, 83}";
},
{
name = bottom_2;
position = "{734, -51}";
},
{
name = bottom_3;
position = "{303, -311}";
},
{
name = caret_1;
position = "{409, 0}";
},
{
name = caret_2;
position = "{818, 0}";
},
{
name = top_1;
position = "{970, 336}";
},
{
name = top_2;
position = "{724, 321}";
},
{
name = top_3;
position = "{267, 18}";
}
);
layerId = "51F41761-070F-43EA-B302-C90910850260";
name = Regular;
paths = (
{
closed = 1;
nodes = (
"1115 366 OFFCURVE",
"1100 346 OFFCURVE",
"1089 326 CURVE",
"1133 265 LINE",
"1116 221 OFFCURVE",
"1101 212 OFFCURVE",
"1067 212 CURVE SMOOTH",
"1044 212 OFFCURVE",
"1022 216 OFFCURVE",
"1006 234 CURVE SMOOTH",
"993 248 OFFCURVE",
"990 267 OFFCURVE",
"990 284 CURVE SMOOTH",
"990 294 OFFCURVE",
"991 301 OFFCURVE",
"992 308 CURVE",
"970 296 LINE",
"969 287 OFFCURVE",
"968 278 OFFCURVE",
"965 267 CURVE SMOOTH",
"959 245 OFFCURVE",
"943 212 OFFCURVE",
"891 212 CURVE SMOOTH",
"855 212 OFFCURVE",
"834 228 OFFCURVE",
"816 257 CURVE SMOOTH",
"806 272 OFFCURVE",
"799 291 OFFCURVE",
"764 291 CURVE SMOOTH",
"742 291 OFFCURVE",
"725 283 OFFCURVE",
"706 270 CURVE SMOOTH",
"690 259 OFFCURVE",
"676 247 OFFCURVE",
"660 225 CURVE SMOOTH",
"640 198 OFFCURVE",
"630 170 OFFCURVE",
"627 151 CURVE SMOOTH",
"624 135 OFFCURVE",
"624 118 OFFCURVE",
"627 100 CURVE",
"519 113 OFFCURVE",
"465 85 OFFCURVE",
"450 74 CURVE",
"444 69 OFFCURVE",
"426 42 OFFCURVE",
"421 -2 CURVE",
"438 -5 OFFCURVE",
"464 -11 OFFCURVE",
"487 -19 CURVE SMOOTH",
"524 -33 OFFCURVE",
"543 -50 OFFCURVE",
"543 -71 CURVE SMOOTH",
"543 -95 OFFCURVE",
"495 -119 OFFCURVE",
"464 -132 CURVE",
"432 -147 OFFCURVE",
"367 -168 OFFCURVE",
"292 -168 CURVE SMOOTH",
"217 -168 OFFCURVE",
"163 -152 OFFCURVE",
"132 -114 CURVE SMOOTH",
"105 -81 OFFCURVE",
"109 -29 OFFCURVE",
"119 29 CURVE",
"100 36 LINE",
"85 -1 OFFCURVE",
"74 -50 OFFCURVE",
"71 -87 CURVE SMOOTH",
"68 -120 OFFCURVE",
"72 -149 OFFCURVE",
"83 -175 CURVE SMOOTH",
"97 -210 OFFCURVE",
"123 -237 OFFCURVE",
"159 -255 CURVE SMOOTH",
"192 -272 OFFCURVE",
"234 -281 OFFCURVE",
"283 -281 CURVE SMOOTH",
"342 -281 OFFCURVE",
"404 -266 OFFCURVE",
"457 -238 CURVE SMOOTH",
"508 -211 OFFCURVE",
"547 -175 OFFCURVE",
"567 -137 CURVE SMOOTH",
"581 -110 OFFCURVE",
"589 -83 OFFCURVE",
"589 -59 CURVE SMOOTH",
"589 -18 OFFCURVE",
"563 6 OFFCURVE",
"534 21 CURVE",
"568 22 OFFCURVE",
"673 18 OFFCURVE",
"741 -14 CURVE",
"753 15 OFFCURVE",
"762 65 OFFCURVE",
"760 97 CURVE",
"738 103 OFFCURVE",
"674 112 OFFCURVE",
"674 152 CURVE SMOOTH",
"674 179 OFFCURVE",
"694 221 OFFCURVE",
"757 221 CURVE SMOOTH",
"794 221 OFFCURVE",
"805 203 OFFCURVE",
"817 180 CURVE SMOOTH",
"835 147 OFFCURVE",
"854 120 OFFCURVE",
"895 120 CURVE SMOOTH",
"944 120 OFFCURVE",
"968 159 OFFCURVE",
"976 193 CURVE",
"977 166 OFFCURVE",
"1002 126 OFFCURVE",
"1060 126 CURVE SMOOTH",
"1096 126 OFFCURVE",
"1121 142 OFFCURVE",
"1138 165 CURVE SMOOTH",
"1164 201 OFFCURVE",
"1167 249 OFFCURVE",
"1167 266 CURVE SMOOTH",
"1167 318 OFFCURVE",
"1141 368 OFFCURVE",
"1129 380 CURVE"
);
}
);
width = 1227;
}
);
},
{
glyphname = uniFD0F;
layers = (
{
anchors = (
{
name = bottom_1;
position = "{536, -35}";
},
{
name = bottom_2;
position = "{43, -276}";
},
{
name = caret_1;
position = "{449, 0}";
},
{
name = top_1;
position = "{658, 352}";
},
{
name = top_2;
position = "{155, 146}";
}
);
layerId = "51F41761-070F-43EA-B302-C90910850260";
name = Regular;
paths = (
{
closed = 1;
nodes = (
"777 243 OFFCURVE",
"771 272 OFFCURVE",
"741 295 CURVE SMOOTH",
"722 310 OFFCURVE",
"693 322 OFFCURVE",
"668 322 CURVE SMOOTH",
"609 322 OFFCURVE",
"537 257 OFFCURVE",
"501 219 CURVE SMOOTH",
"453 168 OFFCURVE",
"416 109 OFFCURVE",
"410 98 CURVE",
"387 101 OFFCURVE",
"361 119 OFFCURVE",
"353 146 CURVE",
"297 125 OFFCURVE",
"232 110 OFFCURVE",
"186 100 CURVE",
"185 91 OFFCURVE",
"182 66 OFFCURVE",
"174 27 CURVE",
"182 28 OFFCURVE",
"193 30 OFFCURVE",
"200 32 CURVE",
"202 21 OFFCURVE",
"204 10 OFFCURVE",
"204 -3 CURVE SMOOTH",
"204 -40 OFFCURVE",
"188 -76 OFFCURVE",
"160 -103 CURVE SMOOTH",
"114 -149 OFFCURVE",
"-9 -211 OFFCURVE",
"-60 -239 CURVE",
"-51 -252 LINE",
"-30 -246 OFFCURVE",
"-12 -244 OFFCURVE",
"3 -244 CURVE SMOOTH",
"25 -244 OFFCURVE",
"57 -248 OFFCURVE",
"79 -248 CURVE SMOOTH",
"119 -248 OFFCURVE",
"140 -235 OFFCURVE",
"161 -215 CURVE SMOOTH",
"182 -195 OFFCURVE",
"202 -167 OFFCURVE",
"218 -130 CURVE SMOOTH",
"251 -55 OFFCURVE",
"248 15 OFFCURVE",
"245 41 CURVE",
"275 48 OFFCURVE",
"308 56 OFFCURVE",
"335 65 CURVE",
"343 43 OFFCURVE",
"358 26 OFFCURVE",
"383 18 CURVE",
"375 -16 LINE",
"403 -16 LINE",
"411 10 LINE",
"432 6 OFFCURVE",
"441 5 OFFCURVE",
"460 5 CURVE SMOOTH",
"557 5 OFFCURVE",
"631 32 OFFCURVE",
"684 73 CURVE SMOOTH",
"712 95 OFFCURVE",
"735 120 OFFCURVE",
"751 146 CURVE SMOOTH",
"768 174 OFFCURVE",
"777 206 OFFCURVE",
"777 226 CURVE SMOOTH"
);
},
{
closed = 1;
nodes = (
"708 146 OFFCURVE",
"689 130 OFFCURVE",
"657 117 CURVE SMOOTH",
"633 107 OFFCURVE",
"601 99 OFFCURVE",
"561 99 CURVE SMOOTH",
"446 99 LINE",
"465 126 OFFCURVE",
"495 163 OFFCURVE",
"515 184 CURVE SMOOTH",
"555 226 OFFCURVE",
"593 247 OFFCURVE",
"629 247 CURVE SMOOTH",
"667 247 OFFCURVE",
"693 223 OFFCURVE",
"705 209 CURVE SMOOTH",
"715 197 OFFCURVE",
"719 187 OFFCURVE",
"725 166 CURVE"
);
}
);
width = 837;
}
);
unicode = FD0F;
},
{
glyphname = uniFD2B;
layers = (
{
anchors = (
{
name = bottom_1;
position = "{547, -28}";
},
{
name = bottom_2;
position = "{79, -278}";
},
{
name = caret_1;
position = "{461, 0}";
},
{
name = top_1;
position = "{649, 350}";
},
{
name = top_2;
position = "{174, 167}";
}
);
layerId = "51F41761-070F-43EA-B302-C90910850260";
name = Regular;
paths = (
{
closed = 1;
nodes = (
"808 98 LINE SMOOTH",
"762 98 OFFCURVE",
"705 80 OFFCURVE",
"686 73 CURVE",
"700 83 OFFCURVE",
"711 93 OFFCURVE",
"723 107 CURVE SMOOTH",
"754 143 OFFCURVE",
"778 185 OFFCURVE",
"778 222 CURVE SMOOTH",
"778 229 OFFCURVE",
"777 268 OFFCURVE",
"742 295 CURVE SMOOTH",
"724 309 OFFCURVE",
"696 320 OFFCURVE",
"669 320 CURVE SMOOTH",
"640 320 OFFCURVE",
"614 308 OFFCURVE",
"587 291 CURVE SMOOTH",
"549 267 OFFCURVE",
"515 232 OFFCURVE",
"502 218 CURVE SMOOTH",
"448 160 OFFCURVE",
"413 102 OFFCURVE",
"411 98 CURVE",
"388 100 OFFCURVE",
"361 118 OFFCURVE",
"353 146 CURVE",
"297 125 OFFCURVE",
"232 110 OFFCURVE",
"186 100 CURVE",
"185 91 OFFCURVE",
"182 66 OFFCURVE",
"174 27 CURVE",
"182 28 OFFCURVE",
"193 30 OFFCURVE",
"200 32 CURVE",
"202 21 OFFCURVE",
"204 10 OFFCURVE",
"204 -3 CURVE SMOOTH",
"204 -40 OFFCURVE",
"188 -76 OFFCURVE",
"160 -103 CURVE SMOOTH",
"114 -149 OFFCURVE",
"-9 -211 OFFCURVE",
"-60 -239 CURVE",
"-51 -252 LINE",
"-30 -246 OFFCURVE",
"-12 -244 OFFCURVE",
"3 -244 CURVE SMOOTH",
"25 -244 OFFCURVE",
"57 -248 OFFCURVE",
"79 -248 CURVE SMOOTH",
"119 -248 OFFCURVE",
"140 -235 OFFCURVE",
"161 -215 CURVE SMOOTH",
"182 -195 OFFCURVE",
"202 -167 OFFCURVE",
"218 -130 CURVE SMOOTH",
"251 -55 OFFCURVE",
"248 15 OFFCURVE",
"245 41 CURVE",
"275 48 OFFCURVE",
"308 56 OFFCURVE",
"336 65 CURVE",
"343 41 OFFCURVE",
"356 26 OFFCURVE",
"384 17 CURVE",
"376 -17 LINE",
"404 -17 LINE",
"412 9 LINE",
"435 4 OFFCURVE",
"459 4 OFFCURVE",
"497 4 CURVE SMOOTH",
"529 4 OFFCURVE",
"682 2 OFFCURVE",
"723 1 CURVE SMOOTH",
"751 1 OFFCURVE",
"772 0 OFFCURVE",
"802 0 CURVE SMOOTH",
"902 0 LINE",
"902 98 LINE"
);
},
{
closed = 1;
nodes = (
"716 134 OFFCURVE",
"677 119 OFFCURVE",
"641 109 CURVE SMOOTH",
"618 103 OFFCURVE",
"591 98 OFFCURVE",
"562 98 CURVE SMOOTH",
"447 98 LINE SMOOTH",
"447 98 OFFCURVE",
"477 144 OFFCURVE",
"517 184 CURVE SMOOTH",
"555 222 OFFCURVE",
"591 246 OFFCURVE",
"632 246 CURVE SMOOTH",
"676 246 OFFCURVE",
"716 218 OFFCURVE",
"716 176 CURVE SMOOTH"
);
}
);
width = 902;
}
);
unicode = FD2B;
},
{
glyphname = uniFC21;
layers = (
{
anchors = (
{
name = bottom_1;
position = "{553, -35}";
},
{
name = bottom_2;
position = "{118, -498}";
},
{
name = caret_1;
position = "{421, 0}";
},
{
name = top_1;
position = "{652, 362}";
},
{
name = top_2;
position = "{161, 188}";
}
);
layerId = "51F41761-070F-43EA-B302-C90910850260";
name = Regular;
paths = (
{
closed = 1;
nodes = (
"781 253 OFFCURVE",
"775 282 OFFCURVE",
"745 305 CURVE SMOOTH",
"726 320 OFFCURVE",
"697 332 OFFCURVE",
"672 332 CURVE SMOOTH",
"613 332 OFFCURVE",
"541 267 OFFCURVE",
"505 229 CURVE SMOOTH",
"456 177 OFFCURVE",
"423 122 OFFCURVE",
"414 110 CURVE",
"386 113 OFFCURVE",
"369 130 OFFCURVE",
"352 157 CURVE SMOOTH",
"342 172 OFFCURVE",
"335 191 OFFCURVE",
"300 191 CURVE SMOOTH",
"278 191 OFFCURVE",
"261 183 OFFCURVE",
"242 170 CURVE SMOOTH",
"226 159 OFFCURVE",
"212 144 OFFCURVE",
"196 122 CURVE SMOOTH",
"186 107 OFFCURVE",
"176 88 OFFCURVE",
"168 68 CURVE SMOOTH",
"160 46 OFFCURVE",
"156 25 OFFCURVE",
"158 10 CURVE",
"118 -8 OFFCURVE",
"99 -26 OFFCURVE",
"84 -48 CURVE",
"64 -75 OFFCURVE",
"51 -114 OFFCURVE",
"59 -169 CURVE",
"93 -375 OFFCURVE",
"98 -448 OFFCURVE",
"101 -474 CURVE",
"134 -465 LINE",
"133 -379 OFFCURVE",
"124 -302 OFFCURVE",
"112 -191 CURVE SMOOTH",
"107 -142 OFFCURVE",
"105 -136 OFFCURVE",
"99 -99 CURVE",
"126 -73 OFFCURVE",
"142 -60 OFFCURVE",
"199 -60 CURVE SMOOTH",
"246 -60 OFFCURVE",
"287 -68 OFFCURVE",
"317 -75 CURVE",
"336 -48 OFFCURVE",
"348 -22 OFFCURVE",
"357 4 CURVE",
"343 16 OFFCURVE",
"277 58 OFFCURVE",
"208 68 CURVE",
"221 92 OFFCURVE",
"249 118 OFFCURVE",
"294 118 CURVE SMOOTH",
"338 118 OFFCURVE",
"352 90 OFFCURVE",
"372 63 CURVE SMOOTH",
"391 38 OFFCURVE",
"415 15 OFFCURVE",
"472 15 CURVE SMOOTH",
"557 15 OFFCURVE",
"635 42 OFFCURVE",
"688 83 CURVE SMOOTH",
"714 103 OFFCURVE",
"740 131 OFFCURVE",
"755 156 CURVE SMOOTH",
"772 184 OFFCURVE",
"781 216 OFFCURVE",
"781 236 CURVE SMOOTH"
);
},
{
closed = 1;
nodes = (
"712 156 OFFCURVE",
"693 140 OFFCURVE",
"661 127 CURVE SMOOTH",
"637 117 OFFCURVE",
"605 109 OFFCURVE",
"565 109 CURVE SMOOTH",
"450 109 LINE",
"469 136 OFFCURVE",
"498 172 OFFCURVE",
"519 194 CURVE SMOOTH",
"559 236 OFFCURVE",
"597 257 OFFCURVE",
"633 257 CURVE SMOOTH",
"671 257 OFFCURVE",
"697 233 OFFCURVE",
"709 219 CURVE SMOOTH",
"719 207 OFFCURVE",
"723 197 OFFCURVE",
"729 176 CURVE"
);
}
);
width = 841;
}
);
unicode = FC21;
},
{
glyphname = uniFCB3;
layers = (
{
anchors = (
{
name = bottom_1;
position = "{445, 78}";
},
{
name = bottom_2;
position = "{128, -35}";
},
{
name = caret_1;
position = "{393, 0}";
},
{
name = top_1;
position = "{597, 465}";
},
{
name = top_2;
position = "{128, 313}";
}
);
layerId = "51F41761-070F-43EA-B302-C90910850260";
name = Regular;
paths = (
{
closed = 1;
nodes = (
"726 356 OFFCURVE",
"720 385 OFFCURVE",
"690 408 CURVE SMOOTH",
"671 423 OFFCURVE",
"642 435 OFFCURVE",
"617 435 CURVE SMOOTH",
"558 435 OFFCURVE",
"486 370 OFFCURVE",
"450 332 CURVE SMOOTH",
"401 280 OFFCURVE",
"368 225 OFFCURVE",
"359 213 CURVE",
"331 216 OFFCURVE",
"314 232 OFFCURVE",
"297 259 CURVE SMOOTH",
"287 274 OFFCURVE",
"274 293 OFFCURVE",
"245 293 CURVE SMOOTH",
"223 293 OFFCURVE",
"206 283 OFFCURVE",
"187 270 CURVE SMOOTH",
"171 259 OFFCURVE",
"157 247 OFFCURVE",
"141 225 CURVE SMOOTH",
"122 199 OFFCURVE",
"112 174 OFFCURVE",
"108 151 CURVE SMOOTH",
"105 135 OFFCURVE",
"105 118 OFFCURVE",
"108 100 CURVE",
"91 94 OFFCURVE",
"53 96 OFFCURVE",
"9 98 CURVE",
"-20 98 LINE SMOOTH",
"-55 98 OFFCURVE",
"-70 74 OFFCURVE",
"-70 48 CURVE SMOOTH",
"-70 16 OFFCURVE",
"-47 0 OFFCURVE",
"-20 0 CURVE SMOOTH",
"5 0 LINE SMOOTH",
"71 0 OFFCURVE",
"79 10 OFFCURVE",
"126 10 CURVE SMOOTH",
"146 10 OFFCURVE",
"189 5 OFFCURVE",
"224 -14 CURVE",
"236 15 OFFCURVE",
"247 65 OFFCURVE",
"245 97 CURVE",
"223 103 OFFCURVE",
"157 115 OFFCURVE",
"157 152 CURVE SMOOTH",
"157 179 OFFCURVE",
"175 221 OFFCURVE",
"239 221 CURVE SMOOTH",
"279 221 OFFCURVE",
"289 200 OFFCURVE",
"298 180 CURVE SMOOTH",
"306 162 OFFCURVE",
"316 147 OFFCURVE",
"331 137 CURVE SMOOTH",
"349 125 OFFCURVE",
"375 118 OFFCURVE",
"417 118 CURVE SMOOTH",
"502 118 OFFCURVE",
"580 145 OFFCURVE",
"633 186 CURVE SMOOTH",
"659 206 OFFCURVE",
"685 234 OFFCURVE",
"700 259 CURVE SMOOTH",
"717 287 OFFCURVE",
"726 319 OFFCURVE",
"726 339 CURVE SMOOTH"
);
},
{
closed = 1;
nodes = (
"657 259 OFFCURVE",
"638 243 OFFCURVE",
"606 230 CURVE SMOOTH",
"582 220 OFFCURVE",
"550 212 OFFCURVE",
"510 212 CURVE SMOOTH",
"395 212 LINE",
"414 239 OFFCURVE",
"443 275 OFFCURVE",
"464 297 CURVE SMOOTH",
"504 339 OFFCURVE",
"542 360 OFFCURVE",
"578 360 CURVE SMOOTH",
"616 360 OFFCURVE",
"642 336 OFFCURVE",
"654 322 CURVE SMOOTH",
"664 310 OFFCURVE",
"668 300 OFFCURVE",
"674 279 CURVE"
);
}
);
width = 786;
}
);
unicode = FCB3;
},
{
glyphname = uni063506450649;
layers = (
{
anchors = (
{
name = bottom_1;
position = "{1016, 78}";
},
{
name = bottom_2;
position = "{748, -51}";
},
{
name = bottom_3;
position = "{300, -314}";
},
{
name = caret_1;
position = "{448, 0}";
},
{
name = caret_2;
position = "{877, 0}";
},
{
name = top_1;
position = "{1116, 465}";
},
{
name = top_2;
position = "{744, 324}";
},
{
name = top_3;
position = "{257, 0}";
}
);
layerId = "51F41761-070F-43EA-B302-C90910850260";
name = Regular;
paths = (
{
closed = 1;
nodes = (
"1245 356 OFFCURVE",
"1239 385 OFFCURVE",
"1209 408 CURVE SMOOTH",
"1190 423 OFFCURVE",
"1161 435 OFFCURVE",
"1136 435 CURVE SMOOTH",
"1077 435 OFFCURVE",
"1005 370 OFFCURVE",
"969 332 CURVE SMOOTH",
"920 280 OFFCURVE",
"887 225 OFFCURVE",
"878 213 CURVE",
"850 216 OFFCURVE",
"833 233 OFFCURVE",
"816 260 CURVE SMOOTH",
"806 275 OFFCURVE",
"791 294 OFFCURVE",
"764 294 CURVE SMOOTH",
"743 294 OFFCURVE",
"722 284 OFFCURVE",
"703 270 CURVE SMOOTH",
"687 258 OFFCURVE",
"672 242 OFFCURVE",
"660 225 CURVE SMOOTH",
"641 199 OFFCURVE",
"631 174 OFFCURVE",
"627 151 CURVE SMOOTH",
"624 135 OFFCURVE",
"624 118 OFFCURVE",
"627 100 CURVE",
"519 113 OFFCURVE",
"465 85 OFFCURVE",
"450 74 CURVE SMOOTH",
"444 69 OFFCURVE",
"426 42 OFFCURVE",
"421 -2 CURVE",
"438 -5 OFFCURVE",
"464 -11 OFFCURVE",
"487 -19 CURVE SMOOTH",
"524 -33 OFFCURVE",
"543 -50 OFFCURVE",
"543 -71 CURVE SMOOTH",
"543 -95 OFFCURVE",
"495 -119 OFFCURVE",
"464 -132 CURVE",
"432 -147 OFFCURVE",
"367 -168 OFFCURVE",
"292 -168 CURVE SMOOTH",
"217 -168 OFFCURVE",
"163 -152 OFFCURVE",
"132 -114 CURVE SMOOTH",
"105 -81 OFFCURVE",
"109 -29 OFFCURVE",
"119 29 CURVE",
"100 36 LINE",
"85 -1 OFFCURVE",
"74 -50 OFFCURVE",
"71 -87 CURVE SMOOTH",
"68 -120 OFFCURVE",
"72 -149 OFFCURVE",
"83 -175 CURVE SMOOTH",
"97 -210 OFFCURVE",
"123 -237 OFFCURVE",
"159 -255 CURVE SMOOTH",
"192 -272 OFFCURVE",
"234 -281 OFFCURVE",
"283 -281 CURVE SMOOTH",
"342 -281 OFFCURVE",
"404 -266 OFFCURVE",
"457 -238 CURVE SMOOTH",
"508 -211 OFFCURVE",
"547 -175 OFFCURVE",
"567 -137 CURVE SMOOTH",
"581 -110 OFFCURVE",
"589 -83 OFFCURVE",
"589 -59 CURVE SMOOTH",
"589 -18 OFFCURVE",
"563 6 OFFCURVE",
"534 21 CURVE",
"568 22 OFFCURVE",
"670 18 OFFCURVE",
"738 -14 CURVE",
"750 15 OFFCURVE",
"761 65 OFFCURVE",
"759 97 CURVE",
"737 103 OFFCURVE",
"675 112 OFFCURVE",
"675 152 CURVE SMOOTH",
"675 179 OFFCURVE",
"694 221 OFFCURVE",
"758 221 CURVE SMOOTH",
"792 221 OFFCURVE",
"808 200 OFFCURVE",
"817 180 CURVE SMOOTH",
"825 162 OFFCURVE",
"835 147 OFFCURVE",
"850 137 CURVE SMOOTH",
"868 125 OFFCURVE",
"894 118 OFFCURVE",
"936 118 CURVE SMOOTH",
"1021 118 OFFCURVE",
"1099 145 OFFCURVE",
"1152 186 CURVE SMOOTH",
"1178 206 OFFCURVE",
"1204 234 OFFCURVE",
"1219 259 CURVE SMOOTH",
"1236 287 OFFCURVE",
"1245 319 OFFCURVE",
"1245 339 CURVE SMOOTH"
);
},
{
closed = 1;
nodes = (
"1176 259 OFFCURVE",
"1157 243 OFFCURVE",
"1125 230 CURVE SMOOTH",
"1101 220 OFFCURVE",
"1069 212 OFFCURVE",
"1029 212 CURVE SMOOTH",
"914 212 LINE",
"933 239 OFFCURVE",
"962 275 OFFCURVE",
"983 297 CURVE SMOOTH",
"1023 339 OFFCURVE",
"1061 360 OFFCURVE",
"1097 360 CURVE SMOOTH",
"1135 360 OFFCURVE",
"1161 336 OFFCURVE",
"1173 322 CURVE SMOOTH",
"1183 310 OFFCURVE",
"1187 300 OFFCURVE",
"1193 279 CURVE"
);
}
);
width = 1305;
}
);
},
{
glyphname = uniFD05;
layers = (
{
anchors = (
{
name = bottom_1;
position = "{797, -25}";
},
{
name = bottom_2;
position = "{283, -313}";
},
{
name = caret_1;
position = "{547, 0}";
},
{
name = top_1;
position = "{915, 351}";
},
{
name = top_2;
position = "{238, 29}";
}
);
layerId = "51F41761-070F-43EA-B302-C90910850260";
name = Regular;
paths = (
{
closed = 1;
nodes = (
"1044 242 OFFCURVE",
"1038 271 OFFCURVE",
"1008 294 CURVE SMOOTH",
"989 309 OFFCURVE",
"960 321 OFFCURVE",
"935 321 CURVE SMOOTH",
"876 321 OFFCURVE",
"804 256 OFFCURVE",
"768 218 CURVE SMOOTH",
"720 167 OFFCURVE",
"684 110 OFFCURVE",
"677 98 CURVE",
"636 99 OFFCURVE",
"601 117 OFFCURVE",
"568 165 CURVE SMOOTH",
"551 189 OFFCURVE",
"532 205 OFFCURVE",
"505 205 CURVE SMOOTH",
"475 205 OFFCURVE",
"454 186 OFFCURVE",
"431 154 CURVE SMOOTH",
"418 136 OFFCURVE",
"397 103 OFFCURVE",
"383 66 CURVE SMOOTH",
"369 29 OFFCURVE",
"366 0 OFFCURVE",
"374 -17 CURVE SMOOTH",
"382 -34 OFFCURVE",
"406 -48 OFFCURVE",
"435 -56 CURVE SMOOTH",
"461 -63 OFFCURVE",
"494 -67 OFFCURVE",
"534 -70 CURVE",
"524 -97 OFFCURVE",
"495 -126 OFFCURVE",
"447 -145 CURVE SMOOTH",
"399 -164 OFFCURVE",
"338 -171 OFFCURVE",
"295 -171 CURVE SMOOTH",
"233 -171 OFFCURVE",
"164 -156 OFFCURVE",
"133 -116 CURVE SMOOTH",
"116 -94 OFFCURVE",
"112 -66 OFFCURVE",
"112 -36 CURVE SMOOTH",
"112 -21 OFFCURVE",
"113 0 OFFCURVE",
"119 27 CURVE",
"100 36 LINE",
"77 -17 OFFCURVE",
"68 -83 OFFCURVE",
"70 -119 CURVE SMOOTH",
"71 -145 OFFCURVE",
"81 -193 OFFCURVE",
"117 -228 CURVE SMOOTH",
"149 -259 OFFCURVE",
"202 -283 OFFCURVE",
"283 -283 CURVE SMOOTH",
"369 -283 OFFCURVE",
"445 -256 OFFCURVE",
"498 -214 CURVE SMOOTH",
"522 -195 OFFCURVE",
"550 -165 OFFCURVE",
"566 -136 CURVE SMOOTH",
"580 -110 OFFCURVE",
"588 -84 OFFCURVE",
"588 -61 CURVE SMOOTH",
"588 -27 OFFCURVE",
"571 0 OFFCURVE",
"530 5 CURVE SMOOTH",
"494 9 OFFCURVE",
"483 10 OFFCURVE",
"452 17 CURVE SMOOTH",
"438 20 OFFCURVE",
"425 31 OFFCURVE",
"428 53 CURVE",
"429 65 OFFCURVE",
"446 115 OFFCURVE",
"492 115 CURVE SMOOTH",
"523 115 OFFCURVE",
"551 92 OFFCURVE",
"567 71 CURVE SMOOTH",
"587 44 OFFCURVE",
"605 26 OFFCURVE",
"649 14 CURVE",
"642 -17 LINE",
"670 -17 LINE",
"678 9 LINE",
"699 5 OFFCURVE",
"708 4 OFFCURVE",
"727 4 CURVE SMOOTH",
"824 4 OFFCURVE",
"898 31 OFFCURVE",
"951 72 CURVE SMOOTH",
"979 94 OFFCURVE",
"1002 119 OFFCURVE",
"1018 145 CURVE SMOOTH",
"1035 173 OFFCURVE",
"1044 205 OFFCURVE",
"1044 225 CURVE SMOOTH"
);
},
{
closed = 1;
nodes = (
"975 145 OFFCURVE",
"956 129 OFFCURVE",
"924 116 CURVE SMOOTH",
"900 106 OFFCURVE",
"868 98 OFFCURVE",
"828 98 CURVE SMOOTH",
"713 98 LINE",
"732 125 OFFCURVE",
"762 162 OFFCURVE",
"782 183 CURVE SMOOTH",
"822 225 OFFCURVE",
"860 246 OFFCURVE",
"896 246 CURVE SMOOTH",
"934 246 OFFCURVE",
"960 222 OFFCURVE",
"972 208 CURVE SMOOTH",
"982 196 OFFCURVE",
"986 186 OFFCURVE",
"992 165 CURVE"
);
}
);
width = 1104;
}
);
unicode = FD05;
},
